STARTFONT 2.1
COMMENT
COMMENT Converted from OpenType font "SourceSansPro-Light.otf" by "otf2bdf 3.0".
COMMENT
FONT -FreeType-Source Sans Pro Light-Medium-R-Normal--33-240-100-100-P-142-ISO10646-1
SIZE 24 100 100
FONTBOUNDINGBOX 87 41 -15 -9
STARTPROPERTIES 19
FOUNDRY "FreeType"
FAMILY_NAME "Source Sans Pro Light"
WEIGHT_NAME "Medium"
SLANT "R"
SETWIDTH_NAME "Normal"
ADD_STYLE_NAME ""
PIXEL_SIZE 33
POINT_SIZE 240
RESOLUTION_X 100
RESOLUTION_Y 100
SPACING "P"
AVERAGE_WIDTH 142
CHARSET_REGISTRY "ISO10646"
CHARSET_ENCODING "1"
FONT_ASCENT 32
FONT_DESCENT 9
COPYRIGHT "Copyright 2010, 2012, 2014 Adobe Systems Incorporated (http://www.adobe.com/), with Reserved Font Name Source."
_OTF_FONTFILE "SourceSansPro-Light.otf"
_OTF_PSNAME "SourceSansPro-Light"
ENDPROPERTIES
CHARS 1296
STARTCHAR 0020
ENCODING 32
SWIDTH 210 0
DWIDTH 7 0
BBX 0 0 0 0
BITMAP
ENDCHAR
STARTCHAR 0021
ENCODING 33
SWIDTH 270 0
DWIDTH 9 0
BBX 3 22 3 0
BITMAP
40
40
40
40
40
40
40
40
40
40
40
40
40
40
40
40
00
00
00
C0
E0
C0
ENDCHAR
STARTCHAR 0022
ENCODING 34
SWIDTH 360 0
DWIDTH 12 0
BBX 6 7 3 16
BITMAP
8C
8C
8C
84
84
84
84
ENDCHAR
STARTCHAR 0023
ENCODING 35
SWIDTH 480 0
DWIDTH 16 0
BBX 14 22 1 0
BITMAP
0410
0410
0C10
0830
0820
0820
0820
7FFC
0820
0820
1820
1820
1060
1040
FFF8
1040
1040
1040
1040
3040
20C0
2080
ENDCHAR
STARTCHAR 0024
ENCODING 36
SWIDTH 480 0
DWIDTH 16 0
BBX 12 28 2 -3
BITMAP
0200
0200
0200
0F80
38E0
2020
6000
4000
4000
6000
6000
3000
1C00
0700
01C0
00E0
0060
0030
0030
0030
0030
0030
C060
70C0
1F80
0200
0200
0200
ENDCHAR
STARTCHAR 0025
ENCODING 37
SWIDTH 810 0
DWIDTH 27 0
BBX 24 22 1 0
BITMAP
1E0020
330040
6180C0
408080
40C180
C0C100
C0C300
C0C200
C0C400
40843C
4088C6
211883
1E1181
003181
002101
006101
004101
008181
008081
010083
030046
02003C
ENDCHAR
STARTCHAR 0026
ENCODING 38
SWIDTH 570 0
DWIDTH 19 0
BBX 17 22 1 0
BITMAP
03C000
0C6000
082000
182000
182000
182000
186000
08C000
0D8000
0E0000
0E0000
1A0080
330180
618100
40C300
C04200
C06600
C03C00
401C00
603600
38E380
0F8080
ENDCHAR
STARTCHAR 0027
ENCODING 39
SWIDTH 210 0
DWIDTH 7 0
BBX 1 7 3 16
BITMAP
80
80
80
80
80
80
80
ENDCHAR
STARTCHAR 0028
ENCODING 40
SWIDTH 270 0
DWIDTH 9 0
BBX 5 30 3 -6
BITMAP
08
08
10
30
20
20
60
40
40
40
C0
80
80
80
80
80
80
80
80
C0
C0
40
40
40
20
20
30
10
18
08
ENDCHAR
STARTCHAR 0029
ENCODING 41
SWIDTH 270 0
DWIDTH 9 0
BBX 5 30 1 -6
BITMAP
80
40
40
20
20
30
10
10
18
08
08
08
08
08
08
08
08
08
08
08
08
18
10
10
10
20
20
40
40
80
ENDCHAR
STARTCHAR 002A
ENCODING 42
SWIDTH 390 0
DWIDTH 13 0
BBX 9 8 2 16
BITMAP
0800
0800
0800
FF80
1C00
1C00
3600
2300
ENDCHAR
STARTCHAR 002B
ENCODING 43
SWIDTH 480 0
DWIDTH 16 0
BBX 14 15 1 3
BITMAP
0300
0300
0300
0300
0300
0300
0300
FFFC
0300
0300
0300
0300
0300
0300
0300
ENDCHAR
STARTCHAR 002C
ENCODING 44
SWIDTH 210 0
DWIDTH 7 0
BBX 3 8 2 -5
BITMAP
60
E0
60
20
20
60
C0
80
ENDCHAR
STARTCHAR 002D
ENCODING 45
SWIDTH 300 0
DWIDTH 10 0
BBX 8 1 1 8
BITMAP
FF
ENDCHAR
STARTCHAR 002E
ENCODING 46
SWIDTH 210 0
DWIDTH 7 0
BBX 3 3 2 0
BITMAP
60
E0
60
ENDCHAR
STARTCHAR 002F
ENCODING 47
SWIDTH 360 0
DWIDTH 12 0
BBX 12 29 0 -5
BITMAP
0030
0020
0020
0040
0040
0040
0080
0080
0180
0100
0100
0300
0200
0200
0600
0400
0400
0C00
0800
0800
1800
1000
1000
2000
2000
2000
4000
4000
C000
ENDCHAR
STARTCHAR 0030
ENCODING 48
SWIDTH 480 0
DWIDTH 16 0
BBX 12 22 2 0
BITMAP
0F00
39C0
2060
6060
4020
C030
8030
8010
8010
8010
8010
8010
8010
8010
8010
C030
C030
4020
6060
6040
39C0
0F00
ENDCHAR
STARTCHAR 0031
ENCODING 49
SWIDTH 480 0
DWIDTH 16 0
BBX 11 22 3 0
BITMAP
1C00
7C00
0400
0400
0400
0400
0400
0400
0400
0400
0400
0400
0400
0400
0400
0400
0400
0400
0400
0400
0400
FFE0
ENDCHAR
STARTCHAR 0032
ENCODING 50
SWIDTH 480 0
DWIDTH 16 0
BBX 13 22 1 0
BITMAP
0F80
39E0
6030
4030
0010
0010
0010
0010
0030
0030
0060
0040
00C0
0180
0100
0200
0600
0C00
1800
3000
6000
FFF8
ENDCHAR
STARTCHAR 0033
ENCODING 51
SWIDTH 480 0
DWIDTH 16 0
BBX 13 22 1 0
BITMAP
0F80
38E0
6030
0010
0010
0010
0010
0030
0060
03C0
0F80
00E0
0030
0018
0018
0008
0008
0018
8018
E030
38E0
0F80
ENDCHAR
STARTCHAR 0034
ENCODING 52
SWIDTH 480 0
DWIDTH 16 0
BBX 14 22 1 0
BITMAP
0060
00E0
00E0
01E0
0360
0260
0660
0C60
0860
1060
3060
2060
4060
C060
FFFC
0060
0060
0060
0060
0060
0060
0060
ENDCHAR
STARTCHAR 0035
ENCODING 53
SWIDTH 480 0
DWIDTH 16 0
BBX 13 22 1 0
BITMAP
3FF0
3000
3000
3000
2000
2000
2000
2000
2FC0
3CE0
2030
0018
0018
0008
0008
0008
0008
0018
8018
C030
78E0
1F80
ENDCHAR
STARTCHAR 0036
ENCODING 54
SWIDTH 480 0
DWIDTH 16 0
BBX 13 22 2 0
BITMAP
07C0
1CF0
3010
2000
6000
4000
C000
C000
8000
8FC0
B060
E030
C010
8010
8018
C018
C010
4010
6030
3020
18C0
0F80
ENDCHAR
STARTCHAR 0037
ENCODING 55
SWIDTH 480 0
DWIDTH 16 0
BBX 14 22 1 0
BITMAP
FFFC
0008
0010
0030
0020
0060
0040
00C0
0080
0180
0180
0100
0100
0300
0300
0200
0200
0200
0200
0600
0600
0600
ENDCHAR
STARTCHAR 0038
ENCODING 56
SWIDTH 480 0
DWIDTH 16 0
BBX 14 22 1 0
BITMAP
07C0
1CE0
3030
2018
2018
2018
2018
3010
1810
0C20
0FC0
11E0
2070
6018
4008
C00C
C00C
C008
6008
6018
3C70
0FC0
ENDCHAR
STARTCHAR 0039
ENCODING 57
SWIDTH 480 0
DWIDTH 16 0
BBX 13 22 1 0
BITMAP
0F80
18C0
2060
6030
4010
4018
C018
C008
4008
4018
6038
3068
1F88
0008
0018
0018
0010
0030
0020
4060
79C0
1F00
ENDCHAR
STARTCHAR 003A
ENCODING 58
SWIDTH 210 0
DWIDTH 7 0
BBX 3 16 2 0
BITMAP
60
E0
60
00
00
00
00
00
00
00
00
00
00
60
E0
60
ENDCHAR
STARTCHAR 003B
ENCODING 59
SWIDTH 210 0
DWIDTH 7 0
BBX 3 21 2 -5
BITMAP
60
E0
60
00
00
00
00
00
00
00
00
00
00
60
E0
60
20
20
60
C0
80
ENDCHAR
STARTCHAR 003C
ENCODING 60
SWIDTH 480 0
DWIDTH 16 0
BBX 14 12 1 6
BITMAP
0004
003C
00E0
0780
1C00
E000
C000
3800
0E00
01C0
0078
000C
ENDCHAR
STARTCHAR 003D
ENCODING 61
SWIDTH 480 0
DWIDTH 16 0
BBX 14 8 1 7
BITMAP
FFFC
0000
0000
0000
0000
0000
0000
FFFC
ENDCHAR
STARTCHAR 003E
ENCODING 62
SWIDTH 480 0
DWIDTH 16 0
BBX 14 12 1 6
BITMAP
8000
F000
1C00
0780
00E0
001C
000C
0070
03C0
0E00
7800
C000
ENDCHAR
STARTCHAR 003F
ENCODING 63
SWIDTH 390 0
DWIDTH 13 0
BBX 11 23 1 0
BITMAP
1F00
7380
C0C0
0060
0060
0060
0060
0040
00C0
0180
0300
0200
0600
0400
0400
0C00
0C00
0000
0000
0000
0C00
0E00
0C00
ENDCHAR
STARTCHAR 0040
ENCODING 64
SWIDTH 810 0
DWIDTH 27 0
BBX 23 26 2 -5
BITMAP
007F80
01C0E0
060030
0C0008
18000C
300004
200006
603D82
406702
C08102
818102
810302
830302
830202
820206
830204
83060C
819B18
C0F1F0
400000
600000
200000
100000
0C0080
070780
01FC00
ENDCHAR
STARTCHAR 0041
ENCODING 65
SWIDTH 540 0
DWIDTH 18 0
BBX 17 22 0 0
BITMAP
00C000
01C000
014000
016000
032000
022000
023000
061000
041800
041800
0C0800
080C00
080C00
1FFC00
100600
100600
300200
200300
600300
600100
400180
C00180
ENDCHAR
STARTCHAR 0042
ENCODING 66
SWIDTH 570 0
DWIDTH 19 0
BBX 15 22 3 0
BITMAP
FFC0
C0F0
C018
C018
C008
C008
C008
C018
C010
C0E0
FFE0
C038
C00C
C004
C006
C006
C006
C006
C00C
C018
C070
FFC0
ENDCHAR
STARTCHAR 0043
ENCODING 67
SWIDTH 570 0
DWIDTH 19 0
BBX 15 22 2 0
BITMAP
03F0
0F3C
1806
3000
6000
6000
4000
C000
C000
C000
8000
8000
C000
C000
C000
C000
6000
6000
3002
1806
0F3C
03F0
ENDCHAR
STARTCHAR 0044
ENCODING 68
SWIDTH 600 0
DWIDTH 20 0
BBX 15 22 3 0
BITMAP
FF80
C1E0
C030
C018
C00C
C004
C006
C006
C002
C002
C002
C002
C002
C002
C006
C006
C004
C00C
C018
C030
C1E0
FF80
ENDCHAR
STARTCHAR 0045
ENCODING 69
SWIDTH 510 0
DWIDTH 17 0
BBX 13 22 3 0
BITMAP
FFF0
C000
C000
C000
C000
C000
C000
C000
C000
C000
FFE0
C000
C000
C000
C000
C000
C000
C000
C000
C000
C000
FFF8
ENDCHAR
STARTCHAR 0046
ENCODING 70
SWIDTH 480 0
DWIDTH 16 0
BBX 12 22 3 0
BITMAP
FFF0
C000
C000
C000
C000
C000
C000
C000
C000
C000
FFE0
C000
C000
C000
C000
C000
C000
C000
C000
C000
C000
C000
ENDCHAR
STARTCHAR 0047
ENCODING 71
SWIDTH 600 0
DWIDTH 20 0
BBX 16 22 2 0
BITMAP
03F8
0F3C
1806
3000
6000
6000
4000
C000
C000
C000
8000
807F
C003
C003
C003
4003
6003
6003
3003
1803
0F3E
03F0
ENDCHAR
STARTCHAR 0048
ENCODING 72
SWIDTH 630 0
DWIDTH 21 0
BBX 15 22 3 0
BITMAP
C002
C002
C002
C002
C002
C002
C002
C002
C002
C002
FFFE
C002
C002
C002
C002
C002
C002
C002
C002
C002
C002
C002
ENDCHAR
STARTCHAR 0049
ENCODING 73
SWIDTH 240 0
DWIDTH 8 0
BBX 2 22 3 0
BITMAP
C0
C0
C0
C0
C0
C0
C0
C0
C0
C0
C0
C0
C0
C0
C0
C0
C0
C0
C0
C0
C0
C0
ENDCHAR
STARTCHAR 004A
ENCODING 74
SWIDTH 450 0
DWIDTH 15 0
BBX 10 22 2 0
BITMAP
0040
0040
0040
0040
0040
0040
0040
0040
0040
0040
0040
0040
0040
0040
0040
0040
0040
0040
80C0
C080
7780
3E00
ENDCHAR
STARTCHAR 004B
ENCODING 75
SWIDTH 570 0
DWIDTH 19 0
BBX 15 22 3 0
BITMAP
C00C
C018
C030
C060
C040
C0C0
C180
C300
C700
CF00
D980
F180
E0C0
E040
C060
C030
C030
C018
C018
C00C
C004
C006
ENDCHAR
STARTCHAR 004C
ENCODING 76
SWIDTH 480 0
DWIDTH 16 0
BBX 12 22 3 0
BITMAP
C000
C000
C000
C000
C000
C000
C000
C000
C000
C000
C000
C000
C000
C000
C000
C000
C000
C000
C000
C000
C000
FFF0
ENDCHAR
STARTCHAR 004D
ENCODING 77
SWIDTH 720 0
DWIDTH 24 0
BBX 17 22 3 0
BITMAP
E00180
E00180
E00380
F00280
D00280
D00680
D80480
C80C80
C80880
CC0880
C41880
C41080
C61080
C23080
C32080
C12080
C16080
C1C080
C0C080
C0C080
C00080
C00080
ENDCHAR
STARTCHAR 004E
ENCODING 78
SWIDTH 630 0
DWIDTH 21 0
BBX 15 22 3 0
BITMAP
C006
E006
E006
F006
D806
C806
CC06
C406
C606
C306
C306
C186
C086
C0C6
C042
C062
C032
C012
C01A
C00A
C00E
C006
ENDCHAR
STARTCHAR 004F
ENCODING 79
SWIDTH 660 0
DWIDTH 22 0
BBX 18 22 2 0
BITMAP
03F000
0F3C00
180600
300300
600100
600180
400080
C000C0
C000C0
C000C0
8000C0
8000C0
C000C0
C000C0
C000C0
400080
600180
600100
300300
180600
0F3C00
03F000
ENDCHAR
STARTCHAR 0050
ENCODING 80
SWIDTH 540 0
DWIDTH 18 0
BBX 14 22 3 0
BITMAP
FFC0
C0F0
C018
C008
C00C
C00C
C00C
C00C
C008
C018
C070
FFC0
C000
C000
C000
C000
C000
C000
C000
C000
C000
C000
ENDCHAR
STARTCHAR 0051
ENCODING 81
SWIDTH 660 0
DWIDTH 22 0
BBX 18 27 2 -5
BITMAP
03F000
0F3C00
180600
300300
600100
600180
400080
C000C0
C000C0
C000C0
8000C0
8000C0
C000C0
C000C0
C000C0
C00080
600180
600100
300300
180600
0E1C00
03F000
00C000
006000
007000
001EC0
000FC0
ENDCHAR
STARTCHAR 0052
ENCODING 82
SWIDTH 540 0
DWIDTH 18 0
BBX 14 22 3 0
BITMAP
FFC0
C0F0
C018
C008
C00C
C00C
C00C
C00C
C008
C018
C0F0
FFC0
C100
C180
C0C0
C0C0
C060
C020
C030
C018
C018
C00C
ENDCHAR
STARTCHAR 0053
ENCODING 83
SWIDTH 510 0
DWIDTH 17 0
BBX 14 22 2 0
BITMAP
0FC0
1CF0
2018
6000
4000
4000
6000
6000
3800
1E00
0780
01E0
0030
0018
000C
000C
000C
000C
800C
E018
3CF0
0FC0
ENDCHAR
STARTCHAR 0054
ENCODING 84
SWIDTH 510 0
DWIDTH 17 0
BBX 15 22 1 0
BITMAP
FFFE
0100
0100
0100
0100
0100
0100
0100
0100
0100
0100
0100
0100
0100
0100
0100
0100
0100
0100
0100
0100
0100
ENDCHAR
STARTCHAR 0055
ENCODING 85
SWIDTH 630 0
DWIDTH 21 0
BBX 15 22 3 0
BITMAP
C002
C002
C002
C002
C002
C002
C002
C002
C002
C002
C002
C002
C002
C002
C006
C006
C006
6004
600C
3018
1EF0
0FC0
ENDCHAR
STARTCHAR 0056
ENCODING 86
SWIDTH 480 0
DWIDTH 16 0
BBX 16 22 0 0
BITMAP
C003
4003
6002
6002
2006
3004
3004
100C
1008
1808
0818
0810
0C10
0430
0420
0620
0260
0240
0340
0140
0180
0180
ENDCHAR
STARTCHAR 0057
ENCODING 87
SWIDTH 780 0
DWIDTH 26 0
BBX 24 22 1 0
BITMAP
C01803
C01802
C03802
402C06
602C06
602404
606404
204604
20460C
30420C
30C208
108308
108118
108118
198110
190190
090090
090090
0A00B0
0E00E0
060060
060060
ENDCHAR
STARTCHAR 0058
ENCODING 88
SWIDTH 480 0
DWIDTH 16 0
BBX 14 22 1 0
BITMAP
C00C
6008
6018
3010
1020
1860
0840
0CC0
0680
0780
0300
0300
0580
0CC0
0840
1860
1020
3030
2010
6018
C00C
8004
ENDCHAR
STARTCHAR 0059
ENCODING 89
SWIDTH 450 0
DWIDTH 15 0
BBX 15 22 0 0
BITMAP
C006
4004
600C
2008
3018
1010
1830
0820
0C40
0440
0680
0280
0300
0100
0100
0100
0100
0100
0100
0100
0100
0100
ENDCHAR
STARTCHAR 005A
ENCODING 90
SWIDTH 540 0
DWIDTH 18 0
BBX 14 22 2 0
BITMAP
7FFC
000C
0008
0018
0030
0020
0060
00C0
0080
0180
0300
0200
0600
0400
0C00
1800
1000
3000
6000
4000
C000
FFFC
ENDCHAR
STARTCHAR 005B
ENCODING 91
SWIDTH 270 0
DWIDTH 9 0
BBX 6 29 3 -5
BITMAP
FC
80
80
80
80
80
80
80
80
80
80
80
80
80
80
80
80
80
80
80
80
80
80
80
80
80
80
80
FC
ENDCHAR
STARTCHAR 005C
ENCODING 92
SWIDTH 360 0
DWIDTH 12 0
BBX 11 29 0 -5
BITMAP
C000
4000
4000
6000
2000
2000
3000
1000
1000
1800
0800
0800
0400
0400
0600
0200
0200
0300
0100
0100
0180
0080
0080
00C0
0040
0040
0060
0020
0020
ENDCHAR
STARTCHAR 005D
ENCODING 93
SWIDTH 270 0
DWIDTH 9 0
BBX 5 29 1 -5
BITMAP
F8
08
08
08
08
08
08
08
08
08
08
08
08
08
08
08
08
08
08
08
08
08
08
08
08
08
08
08
F8
ENDCHAR
STARTCHAR 005E
ENCODING 94
SWIDTH 480 0
DWIDTH 16 0
BBX 12 13 2 9
BITMAP
0600
0600
0B00
0900
1980
1080
1080
30C0
2040
6060
4060
4020
C030
ENDCHAR
STARTCHAR 005F
ENCODING 95
SWIDTH 510 0
DWIDTH 17 0
BBX 16 1 0 -4
BITMAP
FFFF
ENDCHAR
STARTCHAR 0060
ENCODING 96
SWIDTH 540 0
DWIDTH 18 0
BBX 4 6 6 19
BITMAP
80
80
40
60
30
10
ENDCHAR
STARTCHAR 0061
ENCODING 97
SWIDTH 480 0
DWIDTH 16 0
BBX 12 16 2 0
BITMAP
0F80
39C0
4060
0020
0030
0030
00F0
0F30
3030
4030
C030
8030
C030
C070
63B0
3E30
ENDCHAR
STARTCHAR 0062
ENCODING 98
SWIDTH 540 0
DWIDTH 18 0
BBX 13 24 3 0
BITMAP
C000
C000
C000
C000
C000
C000
C000
C000
C7C0
98E0
E030
C018
C018
C008
C008
C008
C008
C008
C018
C018
C030
E030
B8E0
8F80
ENDCHAR
STARTCHAR 0063
ENCODING 99
SWIDTH 450 0
DWIDTH 15 0
BBX 12 16 2 0
BITMAP
0FC0
1CE0
3020
6000
C000
C000
8000
8000
8000
8000
C000
C000
6000
7010
3C60
0F80
ENDCHAR
STARTCHAR 0064
ENCODING 100
SWIDTH 540 0
DWIDTH 18 0
BBX 13 24 2 0
BITMAP
0008
0008
0008
0008
0008
0008
0008
0008
0F88
1CE8
3018
6008
C008
C008
8008
8008
8008
8008
C008
C008
4018
6038
38C8
0F88
ENDCHAR
STARTCHAR 0065
ENCODING 101
SWIDTH 480 0
DWIDTH 16 0
BBX 13 16 2 0
BITMAP
0F80
1CE0
2030
4010
C018
C018
8018
FFF8
8000
8000
C000
C000
6000
3010
1C70
0FC0
ENDCHAR
STARTCHAR 0066
ENCODING 102
SWIDTH 270 0
DWIDTH 9 0
BBX 8 24 1 0
BITMAP
0F
19
10
30
30
30
30
30
FE
30
30
30
30
30
30
30
30
30
30
30
30
30
30
30
ENDCHAR
STARTCHAR 0067
ENCODING 103
SWIDTH 480 0
DWIDTH 16 0
BBX 14 24 2 -8
BITMAP
0FFC
30C0
6060
4020
4030
C030
4030
4020
6060
30C0
2F00
4000
4000
4000
7000
3FF8
4018
C00C
800C
800C
8008
C018
7060
1F80
ENDCHAR
STARTCHAR 0068
ENCODING 104
SWIDTH 540 0
DWIDTH 18 0
BBX 12 24 3 0
BITMAP
C000
C000
C000
C000
C000
C000
C000
C000
C780
D8E0
E020
C030
C030
C030
C030
C030
C030
C030
C030
C030
C030
C030
C030
C030
ENDCHAR
STARTCHAR 0069
ENCODING 105
SWIDTH 240 0
DWIDTH 8 0
BBX 2 22 3 1
BITMAP
C0
C0
00
00
00
00
C0
C0
C0
C0
C0
C0
C0
C0
C0
C0
C0
C0
C0
C0
C0
C0
ENDCHAR
STARTCHAR 006A
ENCODING 106
SWIDTH 240 0
DWIDTH 8 0
BBX 6 29 -1 -6
BITMAP
0C
0C
00
00
00
00
0C
0C
0C
0C
0C
0C
0C
0C
0C
0C
0C
0C
0C
0C
0C
0C
0C
0C
0C
0C
08
98
F0
ENDCHAR
STARTCHAR 006B
ENCODING 107
SWIDTH 450 0
DWIDTH 15 0
BBX 12 24 3 0
BITMAP
C000
C000
C000
C000
C000
C000
C000
C000
C060
C0C0
C180
C100
C200
C600
CC00
DE00
D200
E300
E180
C080
C0C0
C060
C060
C030
ENDCHAR
STARTCHAR 006C
ENCODING 108
SWIDTH 240 0
DWIDTH 8 0
BBX 3 24 3 0
BITMAP
C0
C0
C0
C0
C0
C0
C0
C0
C0
C0
C0
C0
C0
C0
C0
C0
C0
C0
C0
C0
C0
C0
C0
60
ENDCHAR
STARTCHAR 006D
ENCODING 109
SWIDTH 810 0
DWIDTH 27 0
BBX 21 16 3 0
BITMAP
8781E0
99C670
A06818
C03018
C02008
C02008
C02008
C02008
C02008
C02008
C02008
C02008
C02008
C02008
C02008
C02008
ENDCHAR
STARTCHAR 006E
ENCODING 110
SWIDTH 540 0
DWIDTH 18 0
BBX 12 16 3 0
BITMAP
8780
98E0
A020
C030
C030
C030
C030
C030
C030
C030
C030
C030
C030
C030
C030
C030
ENDCHAR
STARTCHAR 006F
ENCODING 111
SWIDTH 540 0
DWIDTH 18 0
BBX 14 16 2 0
BITMAP
0FC0
1CE0
3030
6018
C008
C00C
800C
8004
8004
800C
C00C
C008
6018
7030
1CE0
0FC0
ENDCHAR
STARTCHAR 0070
ENCODING 112
SWIDTH 540 0
DWIDTH 18 0
BBX 13 23 3 -7
BITMAP
87C0
98E0
E030
C018
C018
C008
C008
C008
C008
C008
C018
C018
C030
E030
F8E0
CF80
C000
C000
C000
C000
C000
C000
C000
ENDCHAR
STARTCHAR 0071
ENCODING 113
SWIDTH 540 0
DWIDTH 18 0
BBX 13 23 2 -7
BITMAP
0F88
1CE8
3018
6008
C008
C008
8008
8008
8008
8008
C008
C008
4018
6038
38E8
0F88
0008
0008
0008
0008
0008
0008
0008
ENDCHAR
STARTCHAR 0072
ENCODING 114
SWIDTH 330 0
DWIDTH 11 0
BBX 8 16 3 0
BITMAP
8F
9A
A0
E0
C0
C0
C0
C0
C0
C0
C0
C0
C0
C0
C0
C0
ENDCHAR
STARTCHAR 0073
ENCODING 115
SWIDTH 420 0
DWIDTH 14 0
BBX 11 16 1 0
BITMAP
1F80
31C0
6000
4000
4000
6000
3800
1E00
03C0
00E0
0060
0020
0020
C060
70C0
1F80
ENDCHAR
STARTCHAR 0074
ENCODING 116
SWIDTH 300 0
DWIDTH 10 0
BBX 9 21 1 0
BITMAP
1000
1000
1000
1000
3000
FF80
3000
3000
3000
3000
3000
3000
3000
3000
3000
3000
3000
1000
1000
1D80
0F80
ENDCHAR
STARTCHAR 0075
ENCODING 117
SWIDTH 540 0
DWIDTH 18 0
BBX 12 16 3 0
BITMAP
8030
8030
8030
8030
8030
8030
8030
8030
8030
8030
8030
8030
C070
C0F0
73B0
3E30
ENDCHAR
STARTCHAR 0076
ENCODING 118
SWIDTH 420 0
DWIDTH 14 0
BBX 13 16 1 0
BITMAP
8018
C018
C010
4030
6020
6020
2060
3040
1040
10C0
1880
0980
0900
0D00
0700
0600
ENDCHAR
STARTCHAR 0077
ENCODING 119
SWIDTH 690 0
DWIDTH 23 0
BBX 21 16 1 0
BITMAP
C06018
C07018
405010
405010
60D830
608820
208820
218860
310C60
110440
110440
1B06C0
1A0680
0A0280
0A0280
0C0380
ENDCHAR
STARTCHAR 0078
ENCODING 120
SWIDTH 420 0
DWIDTH 14 0
BBX 12 16 1 0
BITMAP
C020
4060
2040
3080
1180
1900
0E00
0600
0E00
0B00
1100
3080
20C0
6040
C060
8030
ENDCHAR
STARTCHAR 0079
ENCODING 121
SWIDTH 450 0
DWIDTH 15 0
BBX 13 23 1 -7
BITMAP
8018
C018
C010
4030
6030
2020
3060
3040
1040
18C0
0880
0C80
0D80
0500
0700
0300
0200
0200
0600
0400
0C00
B800
E000
ENDCHAR
STARTCHAR 007A
ENCODING 122
SWIDTH 390 0
DWIDTH 13 0
BBX 12 16 1 0
BITMAP
7FE0
0060
0040
0080
0180
0300
0200
0600
0C00
0800
1800
3000
2000
6000
C000
FFF0
ENDCHAR
STARTCHAR 007B
ENCODING 123
SWIDTH 270 0
DWIDTH 9 0
BBX 8 29 1 -5
BITMAP
0F
18
10
10
10
10
10
10
10
10
10
10
10
30
C0
30
10
10
10
10
10
10
10
10
10
10
10
18
0F
ENDCHAR
STARTCHAR 007C
ENCODING 124
SWIDTH 240 0
DWIDTH 8 0
BBX 1 33 3 -8
BITMAP
80
80
80
80
80
80
80
80
80
80
80
80
80
80
80
80
80
80
80
80
80
80
80
80
80
80
80
80
80
80
80
80
80
ENDCHAR
STARTCHAR 007D
ENCODING 125
SWIDTH 270 0
DWIDTH 9 0
BBX 7 29 1 -5
BITMAP
E0
30
10
18
18
18
18
10
10
10
10
10
10
08
06
08
10
10
10
10
10
10
18
18
18
18
10
10
E0
ENDCHAR
STARTCHAR 007E
ENCODING 126
SWIDTH 480 0
DWIDTH 16 0
BBX 13 4 1 9
BITMAP
3C00
6608
C398
00F0
ENDCHAR
STARTCHAR 00A0
ENCODING 160
SWIDTH 210 0
DWIDTH 7 0
BBX 0 0 0 0
BITMAP
ENDCHAR
STARTCHAR 00A1
ENCODING 161
SWIDTH 270 0
DWIDTH 9 0
BBX 3 23 3 -7
BITMAP
C0
E0
C0
00
00
00
40
40
40
40
40
40
40
40
40
40
40
40
40
40
40
40
40
ENDCHAR
STARTCHAR 00A2
ENCODING 162
SWIDTH 480 0
DWIDTH 16 0
BBX 12 23 2 -1
BITMAP
0300
0300
0300
0300
07C0
1FF0
3310
6300
4300
C300
C300
C300
C300
C300
C300
6300
6310
3B30
0FE0
0300
0300
0300
0300
ENDCHAR
STARTCHAR 00A3
ENCODING 163
SWIDTH 480 0
DWIDTH 16 0
BBX 12 22 2 0
BITMAP
07C0
1C60
1030
3000
2000
2000
2000
2000
3000
3000
1000
FFC0
1800
1800
1800
1800
1800
1000
3000
2000
4000
FFF0
ENDCHAR
STARTCHAR 00A4
ENCODING 164
SWIDTH 480 0
DWIDTH 16 0
BBX 14 14 1 5
BITMAP
C78C
7CF8
3030
2010
6018
4018
4008
6018
6018
6010
3030
3870
4FC8
8004
ENDCHAR
STARTCHAR 00A5
ENCODING 165
SWIDTH 480 0
DWIDTH 16 0
BBX 14 22 1 0
BITMAP
C00C
4008
6018
2010
3030
1020
1860
0840
0C40
0480
0480
0300
7FF8
0300
0300
7FF8
0300
0300
0300
0300
0300
0300
ENDCHAR
STARTCHAR 00A6
ENCODING 166
SWIDTH 240 0
DWIDTH 8 0
BBX 1 33 3 -8
BITMAP
80
80
80
80
80
80
80
80
80
80
80
80
80
80
80
80
00
00
80
80
80
80
80
80
80
80
80
80
80
80
80
80
80
ENDCHAR
STARTCHAR 00A7
ENCODING 167
SWIDTH 480 0
DWIDTH 16 0
BBX 12 25 2 -2
BITMAP
0F80
39C0
2040
2000
2000
3000
3800
3E00
4780
81C0
8060
8030
8010
C010
6010
3830
0E60
03C0
00C0
0040
0060
0040
4040
7180
1F00
ENDCHAR
STARTCHAR 00A8
ENCODING 168
SWIDTH 540 0
DWIDTH 18 0
BBX 8 2 5 20
BITMAP
C3
C3
ENDCHAR
STARTCHAR 00A9
ENCODING 169
SWIDTH 750 0
DWIDTH 25 0
BBX 21 22 2 0
BITMAP
01FC00
060700
180180
300040
200020
40F830
438610
820018
860008
840008
840008
840008
840008
860008
C20210
438610
60F830
200020
100040
080180
070700
01F800
ENDCHAR
STARTCHAR 00AA
ENCODING 170
SWIDTH 330 0
DWIDTH 11 0
BBX 8 11 1 13
BITMAP
1E
63
01
01
0F
31
41
C1
C1
43
3D
ENDCHAR
STARTCHAR 00AB
ENCODING 171
SWIDTH 390 0
DWIDTH 13 0
BBX 10 12 1 2
BITMAP
0440
08C0
1080
3100
6300
C600
C600
6300
3100
1080
08C0
0440
ENDCHAR
STARTCHAR 00AC
ENCODING 172
SWIDTH 480 0
DWIDTH 16 0
BBX 14 8 1 3
BITMAP
FFFC
000C
000C
000C
000C
000C
000C
000C
ENDCHAR
STARTCHAR 00AD
ENCODING 173
SWIDTH 300 0
DWIDTH 10 0
BBX 8 1 1 8
BITMAP
FF
ENDCHAR
STARTCHAR 00AE
ENCODING 174
SWIDTH 390 0
DWIDTH 13 0
BBX 12 13 1 11
BITMAP
1F00
20C0
4060
9F20
9130
9110
9E10
9210
9120
D120
4040
30C0
1F00
ENDCHAR
STARTCHAR 00AF
ENCODING 175
SWIDTH 540 0
DWIDTH 18 0
BBX 8 1 5 21
BITMAP
FF
ENDCHAR
STARTCHAR 00B0
ENCODING 176
SWIDTH 300 0
DWIDTH 10 0
BBX 8 8 1 15
BITMAP
3C
62
41
C1
C1
41
62
3C
ENDCHAR
STARTCHAR 00B1
ENCODING 177
SWIDTH 480 0
DWIDTH 16 0
BBX 14 18 1 0
BITMAP
0300
0300
0300
0300
0300
0300
0300
FFFC
0300
0300
0300
0300
0300
0300
0000
0000
0000
FFFC
ENDCHAR
STARTCHAR 00B2
ENCODING 178
SWIDTH 360 0
DWIDTH 12 0
BBX 8 13 2 14
BITMAP
3C
C6
82
03
03
02
02
04
08
18
30
40
FF
ENDCHAR
STARTCHAR 00B3
ENCODING 179
SWIDTH 360 0
DWIDTH 12 0
BBX 9 14 1 13
BITMAP
1E00
6300
4180
0180
0100
0300
1C00
0300
0080
0080
0080
C080
6100
1E00
ENDCHAR
STARTCHAR 00B4
ENCODING 180
SWIDTH 540 0
DWIDTH 18 0
BBX 5 6 7 19
BITMAP
08
18
30
20
40
80
ENDCHAR
STARTCHAR 00B5
ENCODING 181
SWIDTH 540 0
DWIDTH 18 0
BBX 14 22 3 -6
BITMAP
C030
C030
C030
C030
C030
C030
C030
C030
C030
C030
C030
C030
C070
E0F0
B1B0
9E1C
8000
8000
8000
8000
C000
C000
ENDCHAR
STARTCHAR 00B6
ENCODING 182
SWIDTH 510 0
DWIDTH 17 0
BBX 13 25 1 -3
BITMAP
07D8
1FD8
3FD8
7FD8
7FD8
7FD8
FFD8
FFD8
7FD8
7FD8
7FD8
3FD8
1FD8
07D8
0018
0018
0018
0018
0018
0018
0018
0018
0018
0018
0018
ENDCHAR
STARTCHAR 00B7
ENCODING 183
SWIDTH 210 0
DWIDTH 7 0
BBX 3 3 2 9
BITMAP
60
E0
60
ENDCHAR
STARTCHAR 00B8
ENCODING 184
SWIDTH 540 0
DWIDTH 18 0
BBX 5 7 6 -7
BITMAP
10
20
38
08
08
18
E0
ENDCHAR
STARTCHAR 00B9
ENCODING 185
SWIDTH 360 0
DWIDTH 12 0
BBX 4 13 3 13
BITMAP
30
F0
10
10
10
10
10
10
10
10
10
10
10
ENDCHAR
STARTCHAR 00BA
ENCODING 186
SWIDTH 360 0
DWIDTH 12 0
BBX 10 11 1 13
BITMAP
1E00
6180
4080
C0C0
80C0
8040
C0C0
C0C0
4080
6100
1E00
ENDCHAR
STARTCHAR 00BB
ENCODING 187
SWIDTH 390 0
DWIDTH 13 0
BBX 10 12 2 2
BITMAP
8400
C600
6200
3100
1180
18C0
18C0
1180
3100
6200
C600
8400
ENDCHAR
STARTCHAR 00BC
ENCODING 188
SWIDTH 750 0
DWIDTH 25 0
BBX 22 22 2 0
BITMAP
100080
F00100
100100
100200
100600
100400
100C00
100800
101800
101030
102030
102050
1040D0
004090
008110
018310
010210
0307FC
020010
060010
040010
080010
ENDCHAR
STARTCHAR 00BD
ENCODING 189
SWIDTH 780 0
DWIDTH 26 0
BBX 22 22 2 0
BITMAP
100100
F00300
100200
100600
100400
100800
100800
101000
101000
1020F0
106318
10420C
10C00C
00800C
018008
010008
020010
020020
040060
0C00C0
080100
1803FC
ENDCHAR
STARTCHAR 00BE
ENCODING 190
SWIDTH 780 0
DWIDTH 26 0
BBX 23 22 2 0
BITMAP
3C0060
C60040
8300C0
030080
020100
060100
3C0200
060200
010400
010C18
810838
C31828
7C1048
002098
002098
004118
004218
0083FE
018018
010018
030018
020018
ENDCHAR
STARTCHAR 00BF
ENCODING 191
SWIDTH 390 0
DWIDTH 13 0
BBX 10 23 2 -7
BITMAP
0C00
0E00
0C00
0000
0000
0000
0400
0400
0400
0C00
0800
1800
3000
2000
4000
C000
8000
8000
8000
C000
C0C0
7380
3E00
ENDCHAR
STARTCHAR 00C0
ENCODING 192
SWIDTH 540 0
DWIDTH 18 0
BBX 17 28 0 0
BITMAP
060000
030000
018000
00C000
000000
000000
00C000
01C000
014000
016000
032000
022000
023000
061000
041800
041800
0C0800
080C00
080C00
1FFC00
100600
100600
300200
200300
600300
600100
400180
C00180
ENDCHAR
STARTCHAR 00C1
ENCODING 193
SWIDTH 540 0
DWIDTH 18 0
BBX 17 28 0 0
BITMAP
001000
003000
004000
008000
000000
000000
00C000
01C000
014000
016000
032000
022000
023000
061000
041800
041800
0C0800
080C00
080C00
1FFC00
100600
100600
300200
200300
600300
600100
400180
C00180
ENDCHAR
STARTCHAR 00C2
ENCODING 194
SWIDTH 540 0
DWIDTH 18 0
BBX 17 28 0 0
BITMAP
00C000
016000
023000
040800
000000
000000
00C000
01C000
014000
016000
032000
022000
023000
061000
041800
041800
0C0800
080C00
080C00
1FFC00
100600
100600
300200
200300
600300
600100
400180
C00180
ENDCHAR
STARTCHAR 00C3
ENCODING 195
SWIDTH 540 0
DWIDTH 18 0
BBX 17 28 0 0
BITMAP
070400
098400
18EC00
103800
000000
000000
00C000
01C000
014000
016000
032000
022000
023000
061000
041800
041800
0C0800
080C00
080C00
1FFC00
100600
100600
300200
200300
600300
600100
400180
C00180
ENDCHAR
STARTCHAR 00C4
ENCODING 196
SWIDTH 540 0
DWIDTH 18 0
BBX 17 26 0 0
BITMAP
0E1800
0C1800
000000
000000
00C000
01C000
014000
016000
032000
022000
023000
061000
041800
041800
0C0800
080C00
080C00
1FFC00
100600
100600
300200
200300
600300
600100
400180
C00180
ENDCHAR
STARTCHAR 00C5
ENCODING 197
SWIDTH 540 0
DWIDTH 18 0
BBX 17 29 0 0
BITMAP
01C000
022000
021000
021000
022000
01C000
000000
00C000
01C000
014000
016000
032000
022000
023000
061000
041800
041800
0C0800
080C00
080C00
1FFC00
100600
100600
300200
200300
600300
600100
400180
C00180
ENDCHAR
STARTCHAR 00C6
ENCODING 198
SWIDTH 810 0
DWIDTH 27 0
BBX 24 22 1 0
BITMAP
000FFF
001400
003400
002400
006400
004400
00C400
008400
018400
010400
0307FC
060400
060400
0C0400
0FFC00
180400
100400
300400
200400
600400
400400
C007FF
ENDCHAR
STARTCHAR 00C7
ENCODING 199
SWIDTH 570 0
DWIDTH 19 0
BBX 15 29 2 -7
BITMAP
03F0
0F3C
1806
3000
6000
6000
4000
C000
C000
C000
8000
8000
C000
C000
C000
C000
6000
6000
3002
1806
0F3C
03F0
0040
0080
00E0
0030
0030
0060
01C0
ENDCHAR
STARTCHAR 00C8
ENCODING 200
SWIDTH 510 0
DWIDTH 17 0
BBX 13 28 3 0
BITMAP
1800
0C00
0600
0300
0000
0000
FFF0
C000
C000
C000
C000
C000
C000
C000
C000
C000
FFE0
C000
C000
C000
C000
C000
C000
C000
C000
C000
C000
FFF8
ENDCHAR
STARTCHAR 00C9
ENCODING 201
SWIDTH 510 0
DWIDTH 17 0
BBX 13 28 3 0
BITMAP
00C0
0180
0300
0600
0000
0000
FFF0
C000
C000
C000
C000
C000
C000
C000
C000
C000
FFE0
C000
C000
C000
C000
C000
C000
C000
C000
C000
C000
FFF8
ENDCHAR
STARTCHAR 00CA
ENCODING 202
SWIDTH 510 0
DWIDTH 17 0
BBX 13 28 3 0
BITMAP
0700
0D80
18C0
3060
0000
0000
FFF0
C000
C000
C000
C000
C000
C000
C000
C000
C000
FFE0
C000
C000
C000
C000
C000
C000
C000
C000
C000
C000
FFF8
ENDCHAR
STARTCHAR 00CB
ENCODING 203
SWIDTH 510 0
DWIDTH 17 0
BBX 13 26 3 0
BITMAP
30E0
3060
0000
0000
FFF0
C000
C000
C000
C000
C000
C000
C000
C000
C000
FFE0
C000
C000
C000
C000
C000
C000
C000
C000
C000
C000
FFF8
ENDCHAR
STARTCHAR 00CC
ENCODING 204
SWIDTH 240 0
DWIDTH 8 0
BBX 5 28 0 0
BITMAP
C0
60
30
08
00
00
18
18
18
18
18
18
18
18
18
18
18
18
18
18
18
18
18
18
18
18
18
18
ENDCHAR
STARTCHAR 00CD
ENCODING 205
SWIDTH 240 0
DWIDTH 8 0
BBX 5 28 3 0
BITMAP
18
30
60
80
00
00
C0
C0
C0
C0
C0
C0
C0
C0
C0
C0
C0
C0
C0
C0
C0
C0
C0
C0
C0
C0
C0
C0
ENDCHAR
STARTCHAR 00CE
ENCODING 206
SWIDTH 240 0
DWIDTH 8 0
BBX 8 28 0 0
BITMAP
18
3C
42
81
00
00
18
18
18
18
18
18
18
18
18
18
18
18
18
18
18
18
18
18
18
18
18
18
ENDCHAR
STARTCHAR 00CF
ENCODING 207
SWIDTH 240 0
DWIDTH 8 0
BBX 8 26 0 0
BITMAP
C3
C3
00
00
18
18
18
18
18
18
18
18
18
18
18
18
18
18
18
18
18
18
18
18
18
18
ENDCHAR
STARTCHAR 00D0
ENCODING 208
SWIDTH 630 0
DWIDTH 21 0
BBX 18 22 1 0
BITMAP
1FF000
103C00
100600
100300
100180
100180
100080
1000C0
1000C0
1000C0
FFC0C0
1000C0
1000C0
1000C0
1000C0
100080
100180
100180
100300
100600
103C00
1FF000
ENDCHAR
STARTCHAR 00D1
ENCODING 209
SWIDTH 630 0
DWIDTH 21 0
BBX 15 28 3 0
BITMAP
0E08
1308
31D8
2070
0000
0000
C006
E006
E006
F006
D806
C806
CC06
C406
C606
C306
C306
C186
C086
C0C6
C042
C062
C032
C012
C01A
C00A
C00E
C006
ENDCHAR
STARTCHAR 00D2
ENCODING 210
SWIDTH 660 0
DWIDTH 22 0
BBX 18 28 2 0
BITMAP
020000
030000
018000
00C000
004000
000000
03F000
0F3C00
180600
300300
600100
600180
400080
C000C0
C000C0
C000C0
8000C0
8000C0
C000C0
C000C0
C000C0
400080
600180
600100
300300
180600
0F3C00
03F000
ENDCHAR
STARTCHAR 00D3
ENCODING 211
SWIDTH 660 0
DWIDTH 22 0
BBX 18 28 2 0
BITMAP
001000
003000
006000
00C000
008000
000000
03F000
0F3C00
180600
300300
600100
600180
400080
C000C0
C000C0
C000C0
8000C0
8000C0
C000C0
C000C0
C000C0
400080
600180
600100
300300
180600
0F3C00
03F000
ENDCHAR
STARTCHAR 00D4
ENCODING 212
SWIDTH 660 0
DWIDTH 22 0
BBX 18 28 2 0
BITMAP
00C000
016000
023000
041800
000800
000000
03F000
0F3C00
180600
300300
600100
600180
400080
C000C0
C000C0
C000C0
8000C0
8000C0
C000C0
C000C0
C000C0
400080
600180
600100
300300
180600
0F3C00
03F000
ENDCHAR
STARTCHAR 00D5
ENCODING 213
SWIDTH 660 0
DWIDTH 22 0
BBX 18 27 2 0
BITMAP
0F8400
08C400
187800
000000
000000
03F000
0F3C00
180600
300300
600100
600180
400080
C000C0
C000C0
C000C0
8000C0
8000C0
C000C0
C000C0
C000C0
400080
600180
600100
300300
180600
0F3C00
03F000
ENDCHAR
STARTCHAR 00D6
ENCODING 214
SWIDTH 660 0
DWIDTH 22 0
BBX 18 26 2 0
BITMAP
0E1800
061800
000000
000000
03F000
0F3C00
180600
300300
600100
600180
400080
C000C0
C000C0
C000C0
8000C0
8000C0
C000C0
C000C0
C000C0
400080
600180
600100
300300
180600
0F3C00
03F000
ENDCHAR
STARTCHAR 00D7
ENCODING 215
SWIDTH 480 0
DWIDTH 16 0
BBX 12 13 2 4
BITMAP
8010
C030
6060
30C0
1980
0F00
0600
0F00
1980
30C0
6060
C030
8010
ENDCHAR
STARTCHAR 00D8
ENCODING 216
SWIDTH 660 0
DWIDTH 22 0
BBX 18 22 2 0
BITMAP
03F080
0F3D80
180700
300300
200780
600D80
4008C0
C010C0
C030C0
C060C0
C0C0C0
C080C0
C100C0
C300C0
C600C0
440080
680180
780180
300300
380600
4F3C00
83F000
ENDCHAR
STARTCHAR 00D9
ENCODING 217
SWIDTH 630 0
DWIDTH 21 0
BBX 15 28 3 0
BITMAP
0C00
0600
0300
0180
0000
0000
C002
C002
C002
C002
C002
C002
C002
C002
C002
C002
C002
C002
C002
C002
C006
C006
C006
6004
600C
3018
1EF0
0FC0
ENDCHAR
STARTCHAR 00DA
ENCODING 218
SWIDTH 630 0
DWIDTH 21 0
BBX 15 28 3 0
BITMAP
0060
00C0
0180
0300
0000
0000
C002
C002
C002
C002
C002
C002
C002
C002
C002
C002
C002
C002
C002
C002
C006
C006
C006
6004
600C
3018
1EF0
0FC0
ENDCHAR
STARTCHAR 00DB
ENCODING 219
SWIDTH 630 0
DWIDTH 21 0
BBX 15 28 3 0
BITMAP
0380
06C0
0C60
1830
0000
0000
C002
C002
C002
C002
C002
C002
C002
C002
C002
C002
C002
C002
C002
C002
C006
C006
C006
6004
600C
3018
1EF0
0FC0
ENDCHAR
STARTCHAR 00DC
ENCODING 220
SWIDTH 630 0
DWIDTH 21 0
BBX 15 26 3 0
BITMAP
1C30
1830
0000
0000
C002
C002
C002
C002
C002
C002
C002
C002
C002
C002
C002
C002
C002
C002
C006
C006
C006
6004
600C
3018
1EF0
0FC0
ENDCHAR
STARTCHAR 00DD
ENCODING 221
SWIDTH 450 0
DWIDTH 15 0
BBX 15 28 0 0
BITMAP
0060
00C0
0180
0300
0000
0000
C006
4004
600C
2008
3018
1010
1830
0820
0C40
0440
0680
0280
0300
0100
0100
0100
0100
0100
0100
0100
0100
0100
ENDCHAR
STARTCHAR 00DE
ENCODING 222
SWIDTH 570 0
DWIDTH 19 0
BBX 14 22 3 0
BITMAP
C000
C000
C000
C000
FFC0
C0F0
C018
C00C
C00C
C00C
C00C
C00C
C00C
C018
C030
FFE0
C000
C000
C000
C000
C000
C000
ENDCHAR
STARTCHAR 00DF
ENCODING 223
SWIDTH 540 0
DWIDTH 18 0
BBX 14 24 3 0
BITMAP
1F00
3980
60C0
4040
C040
C040
C0C0
C080
C100
C300
C200
C200
C200
C300
C1C0
C070
C018
C00C
C00C
C004
C00C
C40C
C718
C1E0
ENDCHAR
STARTCHAR 00E0
ENCODING 224
SWIDTH 480 0
DWIDTH 16 0
BBX 12 25 2 0
BITMAP
1000
1800
0C00
0600
0300
0100
0000
0000
0000
0F80
39C0
4060
0020
0030
0030
00F0
0F30
3030
4030
C030
8030
C030
C070
63B0
3E30
ENDCHAR
STARTCHAR 00E1
ENCODING 225
SWIDTH 480 0
DWIDTH 16 0
BBX 12 25 2 0
BITMAP
0040
00C0
0180
0300
0600
0400
0000
0000
0000
0F80
39C0
4060
0020
0030
0030
00F0
0F30
3030
4030
C030
8030
C030
C070
63B0
3E30
ENDCHAR
STARTCHAR 00E2
ENCODING 226
SWIDTH 480 0
DWIDTH 16 0
BBX 12 24 2 0
BITMAP
0700
0D80
0880
1040
2020
0000
0000
0000
0F80
39C0
4060
0020
0030
0030
00F0
0F30
3030
4030
C030
8030
C030
C070
63B0
3E30
ENDCHAR
STARTCHAR 00E3
ENCODING 227
SWIDTH 480 0
DWIDTH 16 0
BBX 12 23 2 0
BITMAP
3C10
2610
4320
41E0
0000
0000
0000
0F80
39C0
4060
0020
0030
0030
00F0
0F30
3030
4030
C030
8030
C030
C070
63B0
3E30
ENDCHAR
STARTCHAR 00E4
ENCODING 228
SWIDTH 480 0
DWIDTH 16 0
BBX 12 22 2 0
BITMAP
18C0
38E0
0000
0000
0000
0000
0F80
39C0
4060
0020
0030
0030
00F0
0F30
3030
4030
C030
8030
C030
C070
63B0
3E30
ENDCHAR
STARTCHAR 00E5
ENCODING 229
SWIDTH 480 0
DWIDTH 16 0
BBX 12 25 2 0
BITMAP
0700
0880
18C0
1040
1840
0880
0700
0000
0000
0F80
39C0
4060
0020
0030
0030
00F0
0F30
3030
4030
C030
8030
C030
C070
63B0
3E30
ENDCHAR
STARTCHAR 00E6
ENCODING 230
SWIDTH 780 0
DWIDTH 26 0
BBX 23 16 2 0
BITMAP
0F81F0
39C738
406C0C
002804
003006
003006
01F006
0E3FFE
303000
603000
C01000
C01800
C03800
C06C04
71871C
3E01F0
ENDCHAR
STARTCHAR 00E7
ENCODING 231
SWIDTH 450 0
DWIDTH 15 0
BBX 12 23 2 -7
BITMAP
0FC0
1CE0
3020
6000
C000
C000
8000
8000
8000
8000
C000
C000
6000
7010
3C60
0FC0
0200
0200
0700
0080
0080
0180
0E00
ENDCHAR
STARTCHAR 00E8
ENCODING 232
SWIDTH 480 0
DWIDTH 16 0
BBX 13 25 2 0
BITMAP
1000
1800
0C00
0600
0300
0100
0000
0000
0000
0F80
1CE0
2030
4010
C018
C018
8018
FFF8
8000
8000
C000
C000
6000
3010
1C70
0FC0
ENDCHAR
STARTCHAR 00E9
ENCODING 233
SWIDTH 480 0
DWIDTH 16 0
BBX 13 25 2 0
BITMAP
0040
00C0
0180
0100
0200
0400
0000
0000
0000
0F80
1CE0
2030
4010
C018
C018
8018
FFF8
8000
8000
C000
C000
6000
3010
1C70
0FC0
ENDCHAR
STARTCHAR 00EA
ENCODING 234
SWIDTH 480 0
DWIDTH 16 0
BBX 13 24 2 0
BITMAP
0700
0580
08C0
1040
3020
0000
0000
0000
0F80
1CE0
2030
4010
C018
C018
8018
FFF8
8000
8000
C000
C000
6000
3010
1C70
0FC0
ENDCHAR
STARTCHAR 00EB
ENCODING 235
SWIDTH 480 0
DWIDTH 16 0
BBX 13 22 2 0
BITMAP
1860
18E0
0000
0000
0000
0000
0F80
1CE0
2030
4010
C018
C018
8018
FFF8
8000
8000
C000
C000
6000
3010
1C70
0FC0
ENDCHAR
STARTCHAR 00EC
ENCODING 236
SWIDTH 240 0
DWIDTH 8 0
BBX 5 25 0 0
BITMAP
40
C0
60
30
18
08
00
00
00
18
18
18
18
18
18
18
18
18
18
18
18
18
18
18
18
ENDCHAR
STARTCHAR 00ED
ENCODING 237
SWIDTH 240 0
DWIDTH 8 0
BBX 5 25 2 0
BITMAP
08
18
30
60
40
80
00
00
00
60
60
60
60
60
60
60
60
60
60
60
60
60
60
60
60
ENDCHAR
STARTCHAR 00EE
ENCODING 238
SWIDTH 240 0
DWIDTH 8 0
BBX 9 24 -1 0
BITMAP
1C00
1600
2300
4180
8080
0000
0000
0000
0C00
0C00
0C00
0C00
0C00
0C00
0C00
0C00
0C00
0C00
0C00
0C00
0C00
0C00
0C00
0C00
ENDCHAR
STARTCHAR 00EF
ENCODING 239
SWIDTH 240 0
DWIDTH 8 0
BBX 8 22 0 0
BITMAP
C3
C3
00
00
00
00
18
18
18
18
18
18
18
18
18
18
18
18
18
18
18
18
ENDCHAR
STARTCHAR 00F0
ENCODING 240
SWIDTH 540 0
DWIDTH 18 0
BBX 14 24 2 0
BITMAP
1800
0C1C
0370
01C0
07C0
1C60
1020
0030
0010
0F98
1CE8
2038
601C
C00C
C00C
C00C
800C
C008
C008
4018
6010
3030
1CE0
0F80
ENDCHAR
STARTCHAR 00F1
ENCODING 241
SWIDTH 540 0
DWIDTH 18 0
BBX 12 23 3 0
BITMAP
3C10
2610
4320
41E0
0000
0000
0000
8780
98E0
A020
C030
C030
C030
C030
C030
C030
C030
C030
C030
C030
C030
C030
C030
ENDCHAR
STARTCHAR 00F2
ENCODING 242
SWIDTH 540 0
DWIDTH 18 0
BBX 14 25 2 0
BITMAP
0800
0800
0C00
0600
0300
0180
0000
0000
0000
0FC0
1CE0
3030
6018
C008
C00C
800C
8004
8004
800C
C00C
C008
6018
7030
1CE0
0FC0
ENDCHAR
STARTCHAR 00F3
ENCODING 243
SWIDTH 540 0
DWIDTH 18 0
BBX 14 25 2 0
BITMAP
0040
00C0
0080
0100
0200
0600
0000
0000
0000
0FC0
1CE0
3030
6018
C008
C00C
800C
8004
8004
800C
C00C
C008
6018
7030
1CE0
0FC0
ENDCHAR
STARTCHAR 00F4
ENCODING 244
SWIDTH 540 0
DWIDTH 18 0
BBX 14 24 2 0
BITMAP
0300
0580
0CC0
1860
3020
0000
0000
0000
0FC0
1CE0
3030
6018
C008
C00C
800C
8004
8004
800C
C00C
C008
6018
7030
1CE0
0FC0
ENDCHAR
STARTCHAR 00F5
ENCODING 245
SWIDTH 540 0
DWIDTH 18 0
BBX 14 23 2 0
BITMAP
1C10
2210
2110
60E0
0000
0000
0000
0FC0
1CE0
3030
6018
C008
C00C
800C
8004
8004
800C
C00C
C008
6018
7030
1CE0
0FC0
ENDCHAR
STARTCHAR 00F6
ENCODING 246
SWIDTH 540 0
DWIDTH 18 0
BBX 14 22 2 0
BITMAP
1860
1860
0000
0000
0000
0000
0FC0
1CE0
3030
6018
C008
C00C
800C
8004
8004
800C
C00C
C008
6018
7030
1CE0
0FC0
ENDCHAR
STARTCHAR 00F7
ENCODING 247
SWIDTH 480 0
DWIDTH 16 0
BBX 14 14 1 3
BITMAP
0300
0300
0000
0000
0000
0000
0000
FFFC
0000
0000
0000
0000
0300
0300
ENDCHAR
STARTCHAR 00F8
ENCODING 248
SWIDTH 540 0
DWIDTH 18 0
BBX 14 16 2 0
BITMAP
0FC4
1CE8
3038
6038
C06C
C0CC
808C
8104
8204
8404
C80C
D808
7018
6030
5CE0
8FC0
ENDCHAR
STARTCHAR 00F9
ENCODING 249
SWIDTH 540 0
DWIDTH 18 0
BBX 12 25 3 0
BITMAP
1000
3000
1800
0C00
0600
0200
0000
0000
0000
8030
8030
8030
8030
8030
8030
8030
8030
8030
8030
8030
8030
C070
C0F0
73B0
3E30
ENDCHAR
STARTCHAR 00FA
ENCODING 250
SWIDTH 540 0
DWIDTH 18 0
BBX 12 25 3 0
BITMAP
0080
0180
0300
0200
0400
0800
0000
0000
0000
8030
8030
8030
8030
8030
8030
8030
8030
8030
8030
8030
8030
C070
C0F0
73B0
3E30
ENDCHAR
STARTCHAR 00FB
ENCODING 251
SWIDTH 540 0
DWIDTH 18 0
BBX 12 24 3 0
BITMAP
0E00
0B00
1180
20C0
4040
0000
0000
0000
8030
8030
8030
8030
8030
8030
8030
8030
8030
8030
8030
8030
C070
C0F0
73B0
3E30
ENDCHAR
STARTCHAR 00FC
ENCODING 252
SWIDTH 540 0
DWIDTH 18 0
BBX 12 22 3 0
BITMAP
30C0
30C0
0000
0000
0000
0000
8030
8030
8030
8030
8030
8030
8030
8030
8030
8030
8030
8030
C070
C0F0
73B0
3E30
ENDCHAR
STARTCHAR 00FD
ENCODING 253
SWIDTH 450 0
DWIDTH 15 0
BBX 13 32 1 -7
BITMAP
0040
00C0
0180
0300
0600
0400
0000
0000
0000
8018
C018
C010
4030
6030
2020
3060
3040
1040
18C0
0880
0C80
0D80
0500
0700
0300
0200
0200
0600
0400
0C00
B800
E000
ENDCHAR
STARTCHAR 00FE
ENCODING 254
SWIDTH 540 0
DWIDTH 18 0
BBX 13 31 3 -7
BITMAP
C000
C000
C000
C000
C000
C000
C000
C000
C7C0
D8E0
E030
C018
C018
C008
C008
C008
C008
C008
C018
C018
C030
E030
F8E0
CF80
C000
C000
C000
C000
C000
C000
C000
ENDCHAR
STARTCHAR 00FF
ENCODING 255
SWIDTH 450 0
DWIDTH 15 0
BBX 13 29 1 -7
BITMAP
38E0
1860
0000
0000
0000
0000
8018
C018
C010
4030
6030
2020
3060
3040
1040
18C0
0880
0C80
0D80
0500
0700
0300
0200
0200
0600
0400
0C00
B800
E000
ENDCHAR
STARTCHAR 0100
ENCODING 256
SWIDTH 540 0
DWIDTH 18 0
BBX 17 26 0 0
BITMAP
07F800
000000
000000
000000
00C000
01C000
014000
016000
032000
022000
023000
061000
041800
041800
0C0800
080C00
080C00
1FFC00
100600
100600
300200
200300
600300
600100
400180
C00180
ENDCHAR
STARTCHAR 0101
ENCODING 257
SWIDTH 480 0
DWIDTH 16 0
BBX 12 22 2 0
BITMAP
3FE0
0000
0000
0000
0000
0000
0F80
39C0
4060
0020
0030
0030
00F0
0F30
3030
4030
C030
8030
C030
C070
63B0
3E30
ENDCHAR
STARTCHAR 0102
ENCODING 258
SWIDTH 540 0
DWIDTH 18 0
BBX 17 28 0 0
BITMAP
0C0800
040800
061000
03E000
000000
000000
00C000
01C000
014000
016000
032000
022000
023000
061000
041800
041800
0C0800
080C00
080C00
1FFC00
100600
100600
300200
200300
600300
600100
400180
C00180
ENDCHAR
STARTCHAR 0103
ENCODING 259
SWIDTH 480 0
DWIDTH 16 0
BBX 12 24 2 0
BITMAP
2020
2020
3060
18C0
0F80
0000
0000
0000
0F80
39C0
4060
0020
0030
0030
00F0
0F30
3030
4030
C030
8030
C030
C070
63B0
3E30
ENDCHAR
STARTCHAR 0104
ENCODING 260
SWIDTH 540 0
DWIDTH 18 0
BBX 18 29 0 -7
BITMAP
00C000
01C000
014000
016000
032000
022000
023000
061000
041800
041800
0C0800
080C00
080C00
1FFC00
100600
100600
300200
200300
600300
600100
400180
C00180
000180
000300
000200
000200
000600
000340
0001C0
ENDCHAR
STARTCHAR 0105
ENCODING 261
SWIDTH 480 0
DWIDTH 16 0
BBX 12 22 2 -6
BITMAP
0F80
39C0
4060
0020
0030
0030
00F0
0F30
3030
4030
C030
8030
C030
C070
63B0
3E30
0060
00C0
0080
0080
0080
00F0
ENDCHAR
STARTCHAR 0106
ENCODING 262
SWIDTH 570 0
DWIDTH 19 0
BBX 15 28 2 0
BITMAP
0010
0030
0060
00C0
0000
0000
03F0
0F3C
1806
3000
6000
6000
4000
C000
C000
C000
8000
8000
C000
C000
C000
C000
6000
6000
3002
1806
0F3C
03F0
ENDCHAR
STARTCHAR 0107
ENCODING 263
SWIDTH 450 0
DWIDTH 15 0
BBX 12 25 2 0
BITMAP
0040
0040
00C0
0180
0300
0600
0000
0000
0000
0FC0
1CE0
3020
6000
C000
C000
8000
8000
8000
8000
C000
C000
6000
7010
3C60
0F80
ENDCHAR
STARTCHAR 0108
ENCODING 264
SWIDTH 570 0
DWIDTH 19 0
BBX 15 28 2 0
BITMAP
00C0
0160
0230
0418
0008
0000
03F0
0F3C
1806
3000
6000
6000
4000
C000
C000
C000
8000
8000
C000
C000
C000
C000
6000
6000
3002
1806
0F3C
03F0
ENDCHAR
STARTCHAR 0109
ENCODING 265
SWIDTH 450 0
DWIDTH 15 0
BBX 12 24 2 0
BITMAP
0300
0680
0CC0
1860
1030
0000
0000
0000
0FC0
1CE0
3020
6000
C000
C000
8000
8000
8000
8000
C000
C000
6000
7010
3C60
0F80
ENDCHAR
STARTCHAR 010A
ENCODING 266
SWIDTH 570 0
DWIDTH 19 0
BBX 15 26 2 0
BITMAP
00C0
01C0
0080
0000
03F0
0F3C
1806
3000
6000
6000
4000
C000
C000
C000
8000
8000
C000
C000
C000
C000
6000
6000
3002
1806
0F3C
03F0
ENDCHAR
STARTCHAR 010B
ENCODING 267
SWIDTH 450 0
DWIDTH 15 0
BBX 12 22 2 0
BITMAP
0300
0300
0000
0000
0000
0000
0FC0
1CE0
3020
6000
C000
C000
8000
8000
8000
8000
C000
C000
6000
7010
3C60
0F80
ENDCHAR
STARTCHAR 010C
ENCODING 268
SWIDTH 570 0
DWIDTH 19 0
BBX 15 27 2 0
BITMAP
0408
0230
0160
00C0
0000
03F0
0F3C
1806
3000
6000
6000
4000
C000
C000
C000
8000
8000
C000
C000
C000
C000
6000
6000
3002
1806
0F3C
03F0
ENDCHAR
STARTCHAR 010D
ENCODING 269
SWIDTH 450 0
DWIDTH 15 0
BBX 12 24 2 0
BITMAP
3030
1860
0C40
0680
0300
0000
0000
0000
0FC0
1CE0
3020
6000
C000
C000
8000
8000
8000
8000
C000
C000
6000
7010
3C60
0F80
ENDCHAR
STARTCHAR 010E
ENCODING 270
SWIDTH 600 0
DWIDTH 20 0
BBX 15 28 3 0
BITMAP
1020
0840
0480
0300
0000
0000
FF80
C1E0
C030
C018
C00C
C004
C006
C006
C002
C002
C002
C002
C002
C002
C006
C006
C004
C00C
C018
C030
C1E0
FF80
ENDCHAR
STARTCHAR 010F
ENCODING 271
SWIDTH 540 0
DWIDTH 18 0
BBX 16 25 2 0
BITMAP
0001
0009
0009
0009
0009
0009
0009
0008
0008
0F88
1CE8
3018
6008
C008
C008
8008
8008
8008
8008
C008
C008
4018
6038
38C8
0F88
ENDCHAR
STARTCHAR 0110
ENCODING 272
SWIDTH 630 0
DWIDTH 21 0
BBX 18 22 1 0
BITMAP
1FF000
103C00
100600
100300
100180
100180
100080
1000C0
1000C0
1000C0
FFC0C0
1000C0
1000C0
1000C0
1000C0
100080
100180
100180
100300
100600
103C00
1FF000
ENDCHAR
STARTCHAR 0111
ENCODING 273
SWIDTH 540 0
DWIDTH 18 0
BBX 16 24 2 0
BITMAP
0008
0008
0008
0008
03FF
0008
0008
0008
0008
0FC8
3868
6018
4008
C008
C008
8008
8008
8008
C008
C008
4018
6038
3CC8
0F88
ENDCHAR
STARTCHAR 0112
ENCODING 274
SWIDTH 510 0
DWIDTH 17 0
BBX 13 26 3 0
BITMAP
3FE0
0000
0000
0000
FFF0
C000
C000
C000
C000
C000
C000
C000
C000
C000
FFE0
C000
C000
C000
C000
C000
C000
C000
C000
C000
C000
FFF8
ENDCHAR
STARTCHAR 0113
ENCODING 275
SWIDTH 480 0
DWIDTH 16 0
BBX 13 22 2 0
BITMAP
1FE0
0000
0000
0000
0000
0000
0F80
1CE0
2030
4010
C018
C018
8018
FFF8
8000
8000
C000
C000
6000
3010
1C70
0FC0
ENDCHAR
STARTCHAR 0114
ENCODING 276
SWIDTH 510 0
DWIDTH 17 0
BBX 13 28 3 0
BITMAP
2020
3060
18C0
0F80
0000
0000
FFF0
C000
C000
C000
C000
C000
C000
C000
C000
C000
FFE0
C000
C000
C000
C000
C000
C000
C000
C000
C000
C000
FFF8
ENDCHAR
STARTCHAR 0115
ENCODING 277
SWIDTH 480 0
DWIDTH 16 0
BBX 13 24 2 0
BITMAP
2030
2020
3020
1840
0F80
0000
0000
0000
0F80
1CE0
2030
4010
C018
C018
8018
FFF8
8000
8000
C000
C000
6000
3010
1C70
0FC0
ENDCHAR
STARTCHAR 0116
ENCODING 278
SWIDTH 510 0
DWIDTH 17 0
BBX 13 27 3 0
BITMAP
0200
0700
0600
0000
0000
FFF0
C000
C000
C000
C000
C000
C000
C000
C000
C000
FFE0
C000
C000
C000
C000
C000
C000
C000
C000
C000
C000
FFF8
ENDCHAR
STARTCHAR 0117
ENCODING 279
SWIDTH 480 0
DWIDTH 16 0
BBX 13 22 2 0
BITMAP
0300
0700
0200
0000
0000
0000
0F80
1CE0
2030
4010
C018
C018
8018
FFF8
8000
8000
C000
C000
6000
3010
1C70
0FC0
ENDCHAR
STARTCHAR 0118
ENCODING 280
SWIDTH 510 0
DWIDTH 17 0
BBX 13 29 3 -7
BITMAP
FFF0
C000
C000
C000
C000
C000
C000
C000
C000
C000
FFE0
C000
C000
C000
C000
C000
C000
C000
C000
C000
C000
FFF8
0020
0040
00C0
0080
0080
00C8
0078
ENDCHAR
STARTCHAR 0119
ENCODING 281
SWIDTH 480 0
DWIDTH 16 0
BBX 13 22 2 -6
BITMAP
0F80
1CE0
2030
4010
C018
C018
8018
FFF8
8000
8000
C000
C000
6000
3010
1C70
0FE0
00C0
0080
0180
0100
0180
00F0
ENDCHAR
STARTCHAR 011A
ENCODING 282
SWIDTH 510 0
DWIDTH 17 0
BBX 13 28 3 0
BITMAP
2060
18C0
0D80
0700
0000
0000
FFF0
C000
C000
C000
C000
C000
C000
C000
C000
C000
FFE0
C000
C000
C000
C000
C000
C000
C000
C000
C000
C000
FFF8
ENDCHAR
STARTCHAR 011B
ENCODING 283
SWIDTH 480 0
DWIDTH 16 0
BBX 13 24 2 0
BITMAP
2020
1040
08C0
0D80
0700
0000
0000
0000
0F80
1CE0
2030
4010
C018
C018
8018
FFF8
8000
8000
C000
C000
6000
3010
1C70
0FC0
ENDCHAR
STARTCHAR 011C
ENCODING 284
SWIDTH 600 0
DWIDTH 20 0
BBX 16 28 2 0
BITMAP
00E0
01B0
0318
020C
0404
0000
03F8
0F3C
1806
3000
6000
6000
4000
C000
C000
C000
8000
807F
C003
C003
C003
4003
6003
6003
3003
1803
0F3E
03F0
ENDCHAR
STARTCHAR 011D
ENCODING 285
SWIDTH 480 0
DWIDTH 16 0
BBX 14 32 2 -8
BITMAP
0700
0D80
08C0
1060
2020
0000
0000
0000
0FFC
30C0
6060
4020
4030
C030
4030
4020
6060
30C0
2F00
4000
4000
4000
7000
3FF8
4018
C00C
800C
800C
8008
C018
7060
1F80
ENDCHAR
STARTCHAR 011E
ENCODING 286
SWIDTH 600 0
DWIDTH 20 0
BBX 16 27 2 0
BITMAP
0404
060C
0318
01F0
0000
03F8
0F3C
1806
3000
6000
6000
4000
C000
C000
C000
8000
807F
C003
C003
C003
4003
6003
6003
3003
1803
0F3E
03F0
ENDCHAR
STARTCHAR 011F
ENCODING 287
SWIDTH 480 0
DWIDTH 16 0
BBX 14 32 2 -8
BITMAP
2030
2020
3020
18C0
0F80
0000
0000
0000
0FFC
30C0
6060
4020
4030
C030
4030
4020
6060
30C0
2F00
4000
4000
4000
7000
3FF8
4018
C00C
800C
800C
8008
C018
7060
1F80
ENDCHAR
STARTCHAR 0120
ENCODING 288
SWIDTH 600 0
DWIDTH 20 0
BBX 16 26 2 0
BITMAP
0060
00E0
0040
0000
03F8
0F3C
1806
3000
6000
6000
4000
C000
C000
C000
8000
807F
C003
C003
C003
4003
6003
6003
3003
1803
0F3E
03F0
ENDCHAR
STARTCHAR 0121
ENCODING 289
SWIDTH 480 0
DWIDTH 16 0
BBX 14 31 2 -8
BITMAP
0200
0700
0300
0000
0000
0000
0000
0FFC
30C0
6060
4020
4030
C030
4030
4020
6060
30C0
2F00
4000
4000
4000
7000
3FF8
4018
C00C
800C
800C
8008
C018
7060
1F80
ENDCHAR
STARTCHAR 0122
ENCODING 290
SWIDTH 600 0
DWIDTH 20 0
BBX 16 29 2 -7
BITMAP
03F8
0F3C
1806
3000
6000
6000
4000
C000
C000
C000
8000
807F
C003
C003
C003
4003
6003
6003
3003
1803
0F3E
03F0
0000
0000
00E0
0030
0030
0060
01C0
ENDCHAR
STARTCHAR 0123
ENCODING 291
SWIDTH 480 0
DWIDTH 16 0
BBX 14 33 2 -8
BITMAP
0180
0600
0C00
0C00
0700
0000
0000
0000
0000
0FFC
30C0
6060
4020
4030
C030
4030
4020
6060
30C0
2F00
4000
4000
4000
7000
3FF8
4018
C00C
800C
800C
8008
C018
7060
1F80
ENDCHAR
STARTCHAR 0124
ENCODING 292
SWIDTH 630 0
DWIDTH 21 0
BBX 15 28 3 0
BITMAP
0380
06C0
0C60
1830
0000
0000
C002
C002
C002
C002
C002
C002
C002
C002
C002
C002
FFFE
C002
C002
C002
C002
C002
C002
C002
C002
C002
C002
C002
ENDCHAR
STARTCHAR 0125
ENCODING 293
SWIDTH 540 0
DWIDTH 18 0
BBX 16 29 -1 0
BITMAP
1C00
3200
6100
C080
0000
0C00
0C00
0C00
0C00
0C00
0C00
0C00
0C00
0C78
0D8E
0E02
0C03
0C03
0C03
0C03
0C03
0C03
0C03
0C03
0C03
0C03
0C03
0C03
0C03
ENDCHAR
STARTCHAR 0126
ENCODING 294
SWIDTH 660 0
DWIDTH 22 0
BBX 20 22 1 0
BITMAP
1000C0
1000C0
1000C0
1000C0
FFFFF0
1000C0
1000C0
1000C0
1000C0
1000C0
1FFFC0
1000C0
1000C0
1000C0
1000C0
1000C0
1000C0
1000C0
1000C0
1000C0
1000C0
1000C0
ENDCHAR
STARTCHAR 0127
ENCODING 295
SWIDTH 540 0
DWIDTH 18 0
BBX 15 24 0 0
BITMAP
1800
1800
1800
1800
FFE0
1800
1800
1800
1800
19F8
1B0C
1C04
1806
1806
1806
1806
1806
1806
1806
1806
1806
1806
1806
1806
ENDCHAR
STARTCHAR 0128
ENCODING 296
SWIDTH 240 0
DWIDTH 8 0
BBX 10 28 -1 0
BITMAP
7040
D840
86C0
8380
0000
0000
0C00
0C00
0C00
0C00
0C00
0C00
0C00
0C00
0C00
0C00
0C00
0C00
0C00
0C00
0C00
0C00
0C00
0C00
0C00
0C00
0C00
0C00
ENDCHAR
STARTCHAR 0129
ENCODING 297
SWIDTH 240 0
DWIDTH 8 0
BBX 11 24 -2 0
BITMAP
3820
4C20
4620
4360
C1C0
0000
0000
0000
0600
0600
0600
0600
0600
0600
0600
0600
0600
0600
0600
0600
0600
0600
0600
0600
ENDCHAR
STARTCHAR 012A
ENCODING 298
SWIDTH 240 0
DWIDTH 8 0
BBX 8 26 0 0
BITMAP
FF
00
00
00
18
18
18
18
18
18
18
18
18
18
18
18
18
18
18
18
18
18
18
18
18
18
ENDCHAR
STARTCHAR 012B
ENCODING 299
SWIDTH 240 0
DWIDTH 8 0
BBX 8 22 0 0
BITMAP
FF
00
00
00
00
00
18
18
18
18
18
18
18
18
18
18
18
18
18
18
18
18
ENDCHAR
STARTCHAR 012C
ENCODING 300
SWIDTH 240 0
DWIDTH 8 0
BBX 8 28 0 0
BITMAP
81
81
C3
3C
00
00
18
18
18
18
18
18
18
18
18
18
18
18
18
18
18
18
18
18
18
18
18
18
ENDCHAR
STARTCHAR 012D
ENCODING 301
SWIDTH 240 0
DWIDTH 8 0
BBX 10 24 -1 0
BITMAP
8040
80C0
4080
6300
1E00
0000
0000
0000
0C00
0C00
0C00
0C00
0C00
0C00
0C00
0C00
0C00
0C00
0C00
0C00
0C00
0C00
0C00
0C00
ENDCHAR
STARTCHAR 012E
ENCODING 302
SWIDTH 240 0
DWIDTH 8 0
BBX 5 29 1 -7
BITMAP
30
30
30
30
30
30
30
30
30
30
30
30
30
30
30
30
30
30
30
30
30
30
20
60
40
40
C0
68
38
ENDCHAR
STARTCHAR 012F
ENCODING 303
SWIDTH 240 0
DWIDTH 8 0
BBX 5 30 1 -7
BITMAP
20
70
30
00
00
00
00
30
30
30
30
30
30
30
30
30
30
30
30
30
30
30
30
20
40
40
C0
C0
C8
78
ENDCHAR
STARTCHAR 0130
ENCODING 304
SWIDTH 240 0
DWIDTH 8 0
BBX 2 26 3 1
BITMAP
C0
C0
00
00
C0
C0
C0
C0
C0
C0
C0
C0
C0
C0
C0
C0
C0
C0
C0
C0
C0
C0
C0
C0
C0
C0
ENDCHAR
STARTCHAR 0131
ENCODING 305
SWIDTH 240 0
DWIDTH 8 0
BBX 2 16 3 0
BITMAP
C0
C0
C0
C0
C0
C0
C0
C0
C0
C0
C0
C0
C0
C0
C0
C0
ENDCHAR
STARTCHAR 0132
ENCODING 306
SWIDTH 480 0
DWIDTH 16 0
BBX 10 27 3 -5
BITMAP
C0C0
C0C0
C0C0
C0C0
C0C0
C0C0
C0C0
C0C0
C0C0
C0C0
C0C0
C0C0
C0C0
C0C0
C0C0
C0C0
C0C0
C0C0
C0C0
C0C0
C0C0
C0C0
00C0
00C0
00C0
0F80
0F00
ENDCHAR
STARTCHAR 0133
ENCODING 307
SWIDTH 450 0
DWIDTH 15 0
BBX 10 30 3 -7
BITMAP
0080
C1C0
C1C0
0000
0000
0000
0000
C080
C080
C080
C080
C080
C080
C080
C080
C080
C080
C080
C080
C080
C080
C080
C080
0080
0080
0080
0080
0180
0180
0F00
ENDCHAR
STARTCHAR 0134
ENCODING 308
SWIDTH 450 0
DWIDTH 15 0
BBX 14 28 2 0
BITMAP
00E0
01B0
0318
060C
0000
0000
0040
0040
0040
0040
0040
0040
0040
0040
0040
0040
0040
0040
0040
0040
0040
0040
0040
0040
80C0
C080
7780
3E00
ENDCHAR
STARTCHAR 0135
ENCODING 309
SWIDTH 240 0
DWIDTH 8 0
BBX 9 31 -1 -7
BITMAP
1C00
1600
2300
4180
8080
0000
0000
0000
0C00
0C00
0C00
0C00
0C00
0C00
0C00
0C00
0C00
0C00
0C00
0C00
0C00
0C00
0C00
0C00
0C00
0C00
0C00
0C00
0800
9800
F000
ENDCHAR
STARTCHAR 0136
ENCODING 310
SWIDTH 570 0
DWIDTH 19 0
BBX 15 29 3 -7
BITMAP
C00C
C018
C030
C060
C040
C0C0
C180
C300
C700
CF00
D980
F180
E0C0
E040
C060
C030
C030
C018
C018
C00C
C004
C006
0000
0000
0380
00C0
0040
00C0
0700
ENDCHAR
STARTCHAR 0137
ENCODING 311
SWIDTH 450 0
DWIDTH 15 0
BBX 12 31 3 -7
BITMAP
C000
C000
C000
C000
C000
C000
C000
C000
C060
C0C0
C180
C100
C200
C600
CC00
DE00
D200
E300
E180
C080
C0C0
C060
C060
C030
0000
0000
0E00
0300
0100
0200
1C00
ENDCHAR
STARTCHAR 0138
ENCODING 312
SWIDTH 450 0
DWIDTH 15 0
BBX 12 16 3 0
BITMAP
C060
C0C0
C180
C100
C200
C600
CC00
DE00
D200
E300
E180
C080
C0C0
C060
C060
C030
ENDCHAR
STARTCHAR 0139
ENCODING 313
SWIDTH 480 0
DWIDTH 16 0
BBX 12 28 3 0
BITMAP
1800
3000
6000
8000
0000
0000
C000
C000
C000
C000
C000
C000
C000
C000
C000
C000
C000
C000
C000
C000
C000
C000
C000
C000
C000
C000
C000
FFF0
ENDCHAR
STARTCHAR 013A
ENCODING 314
SWIDTH 240 0
DWIDTH 8 0
BBX 4 30 3 0
BITMAP
10
30
40
80
00
00
C0
C0
C0
C0
C0
C0
C0
C0
C0
C0
C0
C0
C0
C0
C0
C0
C0
C0
C0
C0
C0
C0
C0
60
ENDCHAR
STARTCHAR 013B
ENCODING 315
SWIDTH 480 0
DWIDTH 16 0
BBX 12 29 3 -7
BITMAP
C000
C000
C000
C000
C000
C000
C000
C000
C000
C000
C000
C000
C000
C000
C000
C000
C000
C000
C000
C000
C000
FFF0
0000
0000
0700
0180
0080
0100
0E00
ENDCHAR
STARTCHAR 013C
ENCODING 316
SWIDTH 240 0
DWIDTH 8 0
BBX 5 31 2 -7
BITMAP
60
60
60
60
60
60
60
60
60
60
60
60
60
60
60
60
60
60
60
60
60
60
60
30
00
00
70
18
08
10
E0
ENDCHAR
STARTCHAR 013D
ENCODING 317
SWIDTH 480 0
DWIDTH 16 0
BBX 12 24 3 0
BITMAP
0080
0080
C080
C080
C080
C080
C080
C000
C000
C000
C000
C000
C000
C000
C000
C000
C000
C000
C000
C000
C000
C000
C000
FFF0
ENDCHAR
STARTCHAR 013E
ENCODING 318
SWIDTH 240 0
DWIDTH 8 0
BBX 5 25 3 0
BITMAP
08
C8
C8
C8
C8
C8
C8
C0
C0
C0
C0
C0
C0
C0
C0
C0
C0
C0
C0
C0
C0
C0
C0
C0
60
ENDCHAR
STARTCHAR 013F
ENCODING 319
SWIDTH 480 0
DWIDTH 16 0
BBX 12 22 3 0
BITMAP
C000
C000
C000
C000
C000
C000
C000
C000
C000
C000
C0C0
C1C0
C0C0
C000
C000
C000
C000
C000
C000
C000
C000
FFF0
ENDCHAR
STARTCHAR 0140
ENCODING 320
SWIDTH 300 0
DWIDTH 10 0
BBX 7 24 3 0
BITMAP
C0
C0
C0
C0
C0
C0
C0
C0
C0
C0
C0
C6
CE
C6
C0
C0
C0
C0
C0
C0
C0
C0
C0
60
ENDCHAR
STARTCHAR 0141
ENCODING 321
SWIDTH 480 0
DWIDTH 16 0
BBX 14 22 1 0
BITMAP
3000
3000
3000
3000
3000
3000
3000
3000
3040
31C0
3300
3C00
3000
F000
3000
3000
3000
3000
3000
3000
3000
3FFC
ENDCHAR
STARTCHAR 0142
ENCODING 322
SWIDTH 240 0
DWIDTH 8 0
BBX 6 24 1 0
BITMAP
30
30
30
30
30
30
30
30
34
3C
30
F0
B0
30
30
30
30
30
30
30
30
30
30
18
ENDCHAR
STARTCHAR 0143
ENCODING 323
SWIDTH 630 0
DWIDTH 21 0
BBX 15 28 3 0
BITMAP
0020
0060
0080
0100
0000
0000
C006
E006
E006
F006
D806
C806
CC06
C406
C606
C306
C306
C186
C086
C0C6
C042
C062
C032
C012
C01A
C00A
C00E
C006
ENDCHAR
STARTCHAR 0144
ENCODING 324
SWIDTH 540 0
DWIDTH 18 0
BBX 12 25 3 0
BITMAP
0040
00C0
0180
0300
0600
0400
0000
0000
0000
8780
98E0
A020
C030
C030
C030
C030
C030
C030
C030
C030
C030
C030
C030
C030
C030
ENDCHAR
STARTCHAR 0145
ENCODING 325
SWIDTH 630 0
DWIDTH 21 0
BBX 15 29 3 -7
BITMAP
C006
E006
E006
F006
D806
C806
CC06
C406
C606
C306
C306
C186
C086
C0C6
C042
C062
C032
C012
C01A
C00A
C00E
C006
0000
0000
0380
00C0
0040
0080
0700
ENDCHAR
STARTCHAR 0146
ENCODING 326
SWIDTH 540 0
DWIDTH 18 0
BBX 12 23 3 -7
BITMAP
8780
98E0
A020
C030
C030
C030
C030
C030
C030
C030
C030
C030
C030
C030
C030
C030
0000
0000
0600
0100
0100
0300
1C00
ENDCHAR
STARTCHAR 0147
ENCODING 327
SWIDTH 630 0
DWIDTH 21 0
BBX 15 28 3 0
BITMAP
1810
0C20
06C0
0380
0000
0000
C006
E006
E006
F006
D806
C806
CC06
C406
C606
C306
C306
C186
C086
C0C6
C042
C062
C032
C012
C01A
C00A
C00E
C006
ENDCHAR
STARTCHAR 0148
ENCODING 328
SWIDTH 540 0
DWIDTH 18 0
BBX 12 24 3 0
BITMAP
2020
1040
1880
0D80
0700
0000
0000
0000
8780
98E0
A020
C030
C030
C030
C030
C030
C030
C030
C030
C030
C030
C030
C030
C030
ENDCHAR
STARTCHAR 0149
ENCODING 329
SWIDTH 720 0
DWIDTH 24 0
BBX 19 23 2 0
BITMAP
600000
600000
200000
200000
200000
400000
800000
018F80
01B9C0
01E060
01C060
018020
018020
018020
018020
018020
018020
018020
018020
018020
018020
018020
018020
ENDCHAR
STARTCHAR 014A
ENCODING 330
SWIDTH 630 0
DWIDTH 21 0
BBX 16 22 3 0
BITMAP
C3E0
CEF8
D00C
E00C
C006
C006
C002
C003
C003
C003
C003
C003
C003
C003
C003
C002
C002
C006
C006
C00C
C0FC
C0F0
ENDCHAR
STARTCHAR 014B
ENCODING 331
SWIDTH 540 0
DWIDTH 18 0
BBX 12 22 3 -6
BITMAP
8780
98E0
A020
C030
C030
C030
C030
C030
C030
C030
C030
C030
C030
C030
C030
C030
0030
0030
0030
0030
0060
03C0
ENDCHAR
STARTCHAR 014C
ENCODING 332
SWIDTH 660 0
DWIDTH 22 0
BBX 18 25 2 0
BITMAP
07F800
000000
000000
03F000
0F3C00
180600
300300
600100
600180
400080
C000C0
C000C0
C000C0
8000C0
8000C0
C000C0
C000C0
C000C0
400080
600180
600100
300300
180600
0F3C00
03F000
ENDCHAR
STARTCHAR 014D
ENCODING 333
SWIDTH 540 0
DWIDTH 18 0
BBX 14 22 2 0
BITMAP
1FE0
0000
0000
0000
0000
0000
0FC0
1CE0
3030
6018
C008
C00C
800C
8004
8004
800C
C00C
C008
6018
7030
1CE0
0FC0
ENDCHAR
STARTCHAR 014E
ENCODING 334
SWIDTH 660 0
DWIDTH 22 0
BBX 18 27 2 0
BITMAP
0C0800
040800
061000
01E000
000000
03F000
0F3C00
180600
300300
600100
600180
400080
C000C0
C000C0
C000C0
8000C0
8000C0
C000C0
C000C0
C000C0
400080
600180
600100
300300
180600
0F3C00
03F000
ENDCHAR
STARTCHAR 014F
ENCODING 335
SWIDTH 540 0
DWIDTH 18 0
BBX 14 24 2 0
BITMAP
2010
2030
1020
1860
0F80
0000
0000
0000
0FC0
1CE0
3030
6018
C008
C00C
800C
8004
8004
800C
C00C
C008
6018
7030
1CE0
0FC0
ENDCHAR
STARTCHAR 0150
ENCODING 336
SWIDTH 660 0
DWIDTH 22 0
BBX 18 28 2 1
BITMAP
00C600
008400
018800
011800
021000
000000
03F000
0F3C00
180600
300300
600100
600180
400080
C000C0
C000C0
C000C0
8000C0
8000C0
C000C0
C000C0
C000C0
400080
600180
600100
300300
180600
0F3C00
03F000
ENDCHAR
STARTCHAR 0151
ENCODING 337
SWIDTH 540 0
DWIDTH 18 0
BBX 14 24 2 1
BITMAP
0118
0210
0220
0420
0440
0000
0000
0000
0FC0
1CE0
3030
6018
C008
C00C
800C
8004
8004
800C
C00C
C008
6018
7030
1CE0
0FC0
ENDCHAR
STARTCHAR 0152
ENCODING 338
SWIDTH 840 0
DWIDTH 28 0
BBX 24 22 2 0
BITMAP
01FFFF
0F0C00
180C00
300C00
600C00
600C00
C00C00
C00C00
C00C00
C00C00
800FFC
800C00
C00C00
C00C00
C00C00
C00C00
600C00
600C00
300C00
1C0C00
0F0C00
03FFFF
ENDCHAR
STARTCHAR 0153
ENCODING 339
SWIDTH 840 0
DWIDTH 28 0
BBX 25 16 2 0
BITMAP
0F807C00
1CE1CE00
20330300
601A0100
C00C0180
C00C0080
800C0080
800FFF80
800C0000
800C0000
C00C0000
C00E0000
601A0000
30330100
18E1C700
0F807C00
ENDCHAR
STARTCHAR 0154
ENCODING 340
SWIDTH 540 0
DWIDTH 18 0
BBX 14 28 3 0
BITMAP
00C0
0180
0300
0600
0000
0000
FFC0
C0F0
C018
C008
C00C
C00C
C00C
C00C
C008
C018
C0F0
FFC0
C100
C180
C0C0
C0C0
C060
C020
C030
C018
C018
C00C
ENDCHAR
STARTCHAR 0155
ENCODING 341
SWIDTH 330 0
DWIDTH 11 0
BBX 8 25 3 0
BITMAP
02
06
0C
18
30
20
00
00
00
8F
9A
A0
E0
C0
C0
C0
C0
C0
C0
C0
C0
C0
C0
C0
C0
ENDCHAR
STARTCHAR 0156
ENCODING 342
SWIDTH 540 0
DWIDTH 18 0
BBX 14 29 3 -7
BITMAP
FFC0
C0F0
C018
C008
C00C
C00C
C00C
C00C
C008
C018
C0F0
FFC0
C100
C180
C0C0
C0C0
C060
C020
C030
C018
C018
C00C
0000
0000
0700
0180
0080
0180
0E00
ENDCHAR
STARTCHAR 0157
ENCODING 343
SWIDTH 330 0
DWIDTH 11 0
BBX 10 23 1 -7
BITMAP
23C0
2680
2800
3800
3000
3000
3000
3000
3000
3000
3000
3000
3000
3000
3000
3000
0000
0000
7000
1800
0800
1800
E000
ENDCHAR
STARTCHAR 0158
ENCODING 344
SWIDTH 540 0
DWIDTH 18 0
BBX 14 28 3 0
BITMAP
2060
10C0
0D80
0700
0000
0000
FFC0
C0F0
C018
C008
C00C
C00C
C00C
C00C
C008
C018
C0F0
FFC0
C100
C180
C0C0
C0C0
C060
C020
C030
C018
C018
C00C
ENDCHAR
STARTCHAR 0159
ENCODING 345
SWIDTH 330 0
DWIDTH 11 0
BBX 9 24 2 0
BITMAP
8080
4100
2300
3600
1C00
0000
0000
0000
4780
4D00
5000
7000
6000
6000
6000
6000
6000
6000
6000
6000
6000
6000
6000
6000
ENDCHAR
STARTCHAR 015A
ENCODING 346
SWIDTH 510 0
DWIDTH 17 0
BBX 14 28 2 0
BITMAP
0040
00C0
0180
0300
0200
0000
0FC0
1CF0
2018
6000
4000
4000
6000
6000
3800
1E00
0780
01E0
0030
0018
000C
000C
000C
000C
800C
E018
3CF0
0FC0
ENDCHAR
STARTCHAR 015B
ENCODING 347
SWIDTH 420 0
DWIDTH 14 0
BBX 11 25 1 0
BITMAP
0080
0080
0100
0300
0600
0C00
0000
0000
0000
1F80
31C0
6000
4000
4000
6000
3800
1E00
03C0
00E0
0060
0020
0020
C060
70C0
1F80
ENDCHAR
STARTCHAR 015C
ENCODING 348
SWIDTH 510 0
DWIDTH 17 0
BBX 14 28 2 0
BITMAP
0300
0780
0C40
1020
0000
0000
0FC0
1CF0
2018
6000
4000
4000
6000
6000
3800
1E00
0780
01E0
0030
0018
000C
000C
000C
000C
800C
E018
3CF0
0FC0
ENDCHAR
STARTCHAR 015D
ENCODING 349
SWIDTH 420 0
DWIDTH 14 0
BBX 11 24 1 0
BITMAP
0600
0D00
1980
30C0
6060
0000
0000
0000
1F80
31C0
6000
4000
4000
6000
3800
1E00
03C0
00E0
0060
0020
0020
C060
70C0
1F80
ENDCHAR
STARTCHAR 015E
ENCODING 350
SWIDTH 510 0
DWIDTH 17 0
BBX 14 29 2 -7
BITMAP
0FC0
1CF0
2018
6000
4000
4000
6000
6000
3800
1E00
0780
01E0
0030
0018
000C
000C
000C
000C
800C
E018
3CF0
0FC0
0200
0200
0700
0080
0080
0180
0E00
ENDCHAR
STARTCHAR 015F
ENCODING 351
SWIDTH 420 0
DWIDTH 14 0
BBX 11 23 1 -7
BITMAP
1F80
31C0
6000
4000
4000
6000
3800
1E00
03C0
00E0
0060
0020
0020
C060
70C0
1F00
0600
0400
0700
0100
0100
0300
1C00
ENDCHAR
STARTCHAR 0160
ENCODING 352
SWIDTH 510 0
DWIDTH 17 0
BBX 14 27 2 0
BITMAP
1020
0840
0680
0300
0000
0FC0
1CF0
2018
6000
4000
4000
6000
6000
3800
1E00
0780
01E0
0030
0018
000C
000C
000C
000C
800C
E018
3CF0
0FC0
ENDCHAR
STARTCHAR 0161
ENCODING 353
SWIDTH 420 0
DWIDTH 14 0
BBX 11 24 1 0
BITMAP
6060
30C0
1980
0D00
0600
0000
0000
0000
1F80
31C0
6000
4000
4000
6000
3800
1E00
03C0
00E0
0060
0020
0020
C060
70C0
1F80
ENDCHAR
STARTCHAR 0162
ENCODING 354
SWIDTH 510 0
DWIDTH 17 0
BBX 15 29 1 -7
BITMAP
FFFE
0100
0100
0100
0100
0100
0100
0100
0100
0100
0100
0100
0100
0100
0100
0100
0100
0100
0100
0100
0100
0100
0100
0300
0380
00C0
00C0
0080
0700
ENDCHAR
STARTCHAR 0163
ENCODING 355
SWIDTH 300 0
DWIDTH 10 0
BBX 9 28 1 -7
BITMAP
1000
1000
1000
1000
3000
FF80
3000
3000
3000
3000
3000
3000
3000
3000
3000
3000
3000
3000
1000
1D80
0F80
0400
0400
0E00
0300
0100
0300
1C00
ENDCHAR
STARTCHAR 0164
ENCODING 356
SWIDTH 510 0
DWIDTH 17 0
BBX 15 28 1 0
BITMAP
1810
0C60
06C0
0380
0000
0000
FFFE
0100
0100
0100
0100
0100
0100
0100
0100
0100
0100
0100
0100
0100
0100
0100
0100
0100
0100
0100
0100
0100
ENDCHAR
STARTCHAR 0165
ENCODING 357
SWIDTH 300 0
DWIDTH 10 0
BBX 9 25 1 0
BITMAP
0100
0100
0100
0100
0100
1100
1100
1000
3000
FF80
3000
3000
3000
3000
3000
3000
3000
3000
3000
3000
3000
1000
1000
1D80
0F80
ENDCHAR
STARTCHAR 0166
ENCODING 358
SWIDTH 510 0
DWIDTH 17 0
BBX 15 22 1 0
BITMAP
FFFE
0100
0100
0100
0100
0100
0100
0100
0100
0100
1FF8
0100
0100
0100
0100
0100
0100
0100
0100
0100
0100
0100
ENDCHAR
STARTCHAR 0167
ENCODING 359
SWIDTH 300 0
DWIDTH 10 0
BBX 9 21 1 0
BITMAP
1000
1000
1000
1000
3000
FF80
3000
3000
3000
3000
3000
3000
FF80
3000
3000
3000
3000
3000
1000
1D80
0F80
ENDCHAR
STARTCHAR 0168
ENCODING 360
SWIDTH 630 0
DWIDTH 21 0
BBX 15 28 3 0
BITMAP
0E08
1308
3190
20F0
0000
0000
C002
C002
C002
C002
C002
C002
C002
C002
C002
C002
C002
C002
C002
C002
C006
C006
C006
6004
600C
3018
1EF0
0FC0
ENDCHAR
STARTCHAR 0169
ENCODING 361
SWIDTH 540 0
DWIDTH 18 0
BBX 12 24 3 0
BITMAP
3820
6C20
4620
4360
C1C0
0000
0000
0000
8030
8030
8030
8030
8030
8030
8030
8030
8030
8030
8030
8030
C070
C0F0
73B0
3E30
ENDCHAR
STARTCHAR 016A
ENCODING 362
SWIDTH 630 0
DWIDTH 21 0
BBX 15 26 3 0
BITMAP
1FF0
0000
0000
0000
C002
C002
C002
C002
C002
C002
C002
C002
C002
C002
C002
C002
C002
C002
C006
C006
C006
6004
600C
3018
1EF0
0FC0
ENDCHAR
STARTCHAR 016B
ENCODING 363
SWIDTH 540 0
DWIDTH 18 0
BBX 12 22 3 0
BITMAP
3FC0
0000
0000
0000
0000
0000
8030
8030
8030
8030
8030
8030
8030
8030
8030
8030
8030
8030
C070
C0F0
73B0
3E30
ENDCHAR
STARTCHAR 016C
ENCODING 364
SWIDTH 630 0
DWIDTH 21 0
BBX 15 28 3 0
BITMAP
1010
1830
0C60
07C0
0000
0000
C002
C002
C002
C002
C002
C002
C002
C002
C002
C002
C002
C002
C002
C002
C006
C006
C006
6004
600C
3018
1EF0
0FC0
ENDCHAR
STARTCHAR 016D
ENCODING 365
SWIDTH 540 0
DWIDTH 18 0
BBX 12 24 3 0
BITMAP
4020
4060
2040
3180
0F00
0000
0000
0000
8030
8030
8030
8030
8030
8030
8030
8030
8030
8030
8030
8030
C070
C0F0
73B0
3E30
ENDCHAR
STARTCHAR 016E
ENCODING 366
SWIDTH 630 0
DWIDTH 21 0
BBX 15 29 3 0
BITMAP
0380
0440
0440
0440
0440
0380
0000
C002
C002
C002
C002
C002
C002
C002
C002
C002
C002
C002
C002
C002
C002
C006
C006
C006
6004
600C
3018
1EF0
0FC0
ENDCHAR
STARTCHAR 016F
ENCODING 367
SWIDTH 540 0
DWIDTH 18 0
BBX 12 25 3 0
BITMAP
0E00
1180
1080
1080
1080
1980
0E00
0000
0000
8030
8030
8030
8030
8030
8030
8030
8030
8030
8030
8030
8030
C070
C0F0
73B0
3E30
ENDCHAR
STARTCHAR 0170
ENCODING 368
SWIDTH 630 0
DWIDTH 21 0
BBX 15 29 3 0
BITMAP
0188
0108
0310
0230
0420
0000
0000
C002
C002
C002
C002
C002
C002
C002
C002
C002
C002
C002
C002
C002
C002
C006
C006
C006
6004
600C
3018
1EF0
0FC0
ENDCHAR
STARTCHAR 0171
ENCODING 369
SWIDTH 540 0
DWIDTH 18 0
BBX 12 24 3 1
BITMAP
0220
0460
0C40
08C0
1880
0000
0000
0000
8030
8030
8030
8030
8030
8030
8030
8030
8030
8030
8030
8030
C070
C0F0
73B0
3E30
ENDCHAR
STARTCHAR 0172
ENCODING 370
SWIDTH 630 0
DWIDTH 21 0
BBX 15 28 3 -6
BITMAP
C002
C002
C002
C002
C002
C002
C002
C002
C002
C002
C002
C002
C002
C002
C006
C006
C006
6004
600C
3018
1EF0
07E0
0180
0300
0200
0200
0300
03E0
ENDCHAR
STARTCHAR 0173
ENCODING 371
SWIDTH 540 0
DWIDTH 18 0
BBX 12 22 3 -6
BITMAP
8030
8030
8030
8030
8030
8030
8030
8030
8030
8030
8030
8030
C070
C0F0
73B0
3E30
0060
00C0
0080
0180
0080
00F0
ENDCHAR
STARTCHAR 0174
ENCODING 372
SWIDTH 780 0
DWIDTH 26 0
BBX 24 28 1 0
BITMAP
001800
002C00
004600
008100
000000
000000
C01803
C01802
C03802
402C06
602C06
602404
606404
204604
20460C
30420C
30C208
108308
108118
108118
198110
190190
090090
090090
0A00B0
0E00E0
060060
060060
ENDCHAR
STARTCHAR 0175
ENCODING 373
SWIDTH 690 0
DWIDTH 23 0
BBX 21 24 1 0
BITMAP
007000
00D800
018800
010400
020200
000000
000000
000000
C06018
C07018
405010
405010
60D830
608820
208820
218860
310C60
110440
110440
1B06C0
1A0680
0A0280
0A0280
0C0380
ENDCHAR
STARTCHAR 0176
ENCODING 374
SWIDTH 450 0
DWIDTH 15 0
BBX 15 28 0 0
BITMAP
0380
06C0
0C60
1830
0000
0000
C006
4004
600C
2008
3018
1010
1830
0820
0C40
0440
0680
0280
0300
0100
0100
0100
0100
0100
0100
0100
0100
0100
ENDCHAR
STARTCHAR 0177
ENCODING 375
SWIDTH 450 0
DWIDTH 15 0
BBX 13 31 1 -7
BITMAP
0700
0D80
08C0
1040
2020
0000
0000
0000
8018
C018
C010
4030
6030
2020
3060
3040
1040
18C0
0880
0C80
0D80
0500
0700
0300
0200
0200
0600
0400
0C00
B800
E000
ENDCHAR
STARTCHAR 0178
ENCODING 376
SWIDTH 450 0
DWIDTH 15 0
BBX 15 26 0 0
BITMAP
1830
1830
0000
0000
C006
4004
600C
2008
3018
1010
1830
0820
0C40
0440
0680
0280
0300
0100
0100
0100
0100
0100
0100
0100
0100
0100
ENDCHAR
STARTCHAR 0179
ENCODING 377
SWIDTH 540 0
DWIDTH 18 0
BBX 14 28 2 0
BITMAP
0060
00C0
0180
0300
0000
0000
7FFC
000C
0008
0018
0030
0020
0060
00C0
0080
0180
0300
0200
0600
0400
0C00
1800
1000
3000
6000
4000
C000
FFFC
ENDCHAR
STARTCHAR 017A
ENCODING 378
SWIDTH 390 0
DWIDTH 13 0
BBX 12 25 1 0
BITMAP
0040
00C0
0180
0300
0600
0400
0000
0000
0000
7FE0
0060
0040
0080
0180
0300
0200
0600
0C00
0800
1800
3000
2000
6000
C000
FFF0
ENDCHAR
STARTCHAR 017B
ENCODING 379
SWIDTH 540 0
DWIDTH 18 0
BBX 14 27 2 0
BITMAP
0100
0380
0300
0000
0000
7FFC
000C
0008
0018
0030
0020
0060
00C0
0080
0180
0300
0200
0600
0400
0C00
1800
1000
3000
6000
4000
C000
FFFC
ENDCHAR
STARTCHAR 017C
ENCODING 380
SWIDTH 390 0
DWIDTH 13 0
BBX 12 23 1 0
BITMAP
0200
0700
0600
0000
0000
0000
0000
7FE0
0060
0040
0080
0180
0300
0200
0600
0C00
0800
1800
3000
2000
6000
C000
FFF0
ENDCHAR
STARTCHAR 017D
ENCODING 381
SWIDTH 540 0
DWIDTH 18 0
BBX 14 28 2 0
BITMAP
1030
0C60
06C0
0380
0000
0000
7FFC
000C
0008
0018
0030
0020
0060
00C0
0080
0180
0300
0200
0600
0400
0C00
1800
1000
3000
6000
4000
C000
FFFC
ENDCHAR
STARTCHAR 017E
ENCODING 382
SWIDTH 390 0
DWIDTH 13 0
BBX 12 24 1 0
BITMAP
2060
10C0
0980
0D00
0600
0000
0000
0000
7FE0
0060
0040
0080
0180
0300
0200
0600
0C00
0800
1800
3000
2000
6000
C000
FFF0
ENDCHAR
STARTCHAR 0180
ENCODING 384
SWIDTH 540 0
DWIDTH 18 0
BBX 16 24 0 0
BITMAP
1800
1800
1800
1800
FFE0
1800
1800
1800
1800
11F8
170E
1C06
1803
1801
1801
1801
1801
1801
1801
1803
1802
1C06
173C
11F0
ENDCHAR
STARTCHAR 018F
ENCODING 399
SWIDTH 660 0
DWIDTH 22 0
BBX 18 22 2 0
BITMAP
03F000
0E1C00
300600
000300
000180
000180
000080
000080
0000C0
0000C0
0000C0
FFFFC0
C000C0
C000C0
C00080
400080
600180
600100
300300
180600
0E1C00
03F000
ENDCHAR
STARTCHAR 0192
ENCODING 402
SWIDTH 480 0
DWIDTH 16 0
BBX 15 25 0 -3
BITMAP
003E
0074
0040
00C0
0080
0080
0180
0180
0180
0FF8
0100
0100
0100
0100
0100
0300
0300
0300
0300
0200
0200
0200
0600
0C00
F800
ENDCHAR
STARTCHAR 0193
ENCODING 403
SWIDTH 600 0
DWIDTH 20 0
BBX 18 26 2 0
BITMAP
0003C0
000640
000400
000400
03FE00
0F3E00
180200
300000
600000
600000
400000
C00000
C00000
C00000
800000
807F00
C00300
C00300
C00300
400300
600300
600300
300300
180300
0F3E00
03F000
ENDCHAR
STARTCHAR 01A0
ENCODING 416
SWIDTH 660 0
DWIDTH 22 0
BBX 18 26 2 0
BITMAP
0000C0
0000C0
0000C0
0000C0
03F180
0F3E00
180600
300300
200180
600180
400080
C000C0
C000C0
C000C0
C000C0
C000C0
C000C0
C000C0
C000C0
400080
600180
200180
300300
180600
0F3C00
03F000
ENDCHAR
STARTCHAR 01A1
ENCODING 417
SWIDTH 540 0
DWIDTH 18 0
BBX 15 21 2 0
BITMAP
0004
0006
0006
0006
0004
0FD8
1CE0
3030
6018
C00C
C00C
800C
8004
8004
800C
C00C
C008
6018
7030
1CE0
0FC0
ENDCHAR
STARTCHAR 01AF
ENCODING 431
SWIDTH 660 0
DWIDTH 22 0
BBX 18 27 3 0
BITMAP
000040
000040
000040
000040
0000C0
C00300
C00200
C00200
C00200
C00200
C00200
C00200
C00200
C00200
C00200
C00200
C00200
C00200
C00200
C00600
C00600
C00600
600400
600C00
301800
1EF000
0FC000
ENDCHAR
STARTCHAR 01B0
ENCODING 432
SWIDTH 540 0
DWIDTH 18 0
BBX 15 21 3 1
BITMAP
0006
0006
0006
0004
000C
8030
8030
8030
8030
8030
8030
8030
8030
8030
8030
8030
8030
C070
C0F0
73B0
3E30
ENDCHAR
STARTCHAR 01C2
ENCODING 450
SWIDTH 270 0
DWIDTH 9 0
BBX 9 33 0 -8
BITMAP
0800
0800
0800
0800
0800
0800
0800
0800
0800
0800
0800
0800
0800
FF80
0800
0800
0800
0800
FF80
0800
0800
0800
0800
0800
0800
0800
0800
0800
0800
0800
0800
0800
0800
ENDCHAR
STARTCHAR 01CD
ENCODING 461
SWIDTH 540 0
DWIDTH 18 0
BBX 17 28 0 0
BITMAP
0C0800
061000
036000
01C000
000000
000000
00C000
01C000
014000
016000
032000
022000
023000
061000
041800
041800
0C0800
080C00
080C00
1FFC00
100600
100600
300200
200300
600300
600100
400180
C00180
ENDCHAR
STARTCHAR 01CE
ENCODING 462
SWIDTH 480 0
DWIDTH 16 0
BBX 12 24 2 0
BITMAP
2020
1040
1880
0D80
0700
0000
0000
0000
0F80
39C0
4060
0020
0030
0030
00F0
0F30
3030
4030
C030
8030
C030
C070
63B0
3E30
ENDCHAR
STARTCHAR 01CF
ENCODING 463
SWIDTH 240 0
DWIDTH 8 0
BBX 8 28 0 0
BITMAP
81
42
24
18
00
00
18
18
18
18
18
18
18
18
18
18
18
18
18
18
18
18
18
18
18
18
18
18
ENDCHAR
STARTCHAR 01D0
ENCODING 464
SWIDTH 240 0
DWIDTH 8 0
BBX 9 24 -1 0
BITMAP
C080
6100
3300
1E00
0C00
0000
0000
0000
0C00
0C00
0C00
0C00
0C00
0C00
0C00
0C00
0C00
0C00
0C00
0C00
0C00
0C00
0C00
0C00
ENDCHAR
STARTCHAR 01D1
ENCODING 465
SWIDTH 660 0
DWIDTH 22 0
BBX 18 27 2 0
BITMAP
040800
021000
016000
00C000
000000
03F000
0F3C00
180600
300300
600100
600180
400080
C000C0
C000C0
C000C0
8000C0
8000C0
C000C0
C000C0
C000C0
400080
600180
600100
300300
180600
0F3C00
03F000
ENDCHAR
STARTCHAR 01D2
ENCODING 466
SWIDTH 540 0
DWIDTH 18 0
BBX 14 24 2 0
BITMAP
3020
1860
08C0
0580
0300
0000
0000
0000
0FC0
1CE0
3030
6018
C008
C00C
800C
8004
8004
800C
C00C
C008
6018
7030
1CE0
0FC0
ENDCHAR
STARTCHAR 01D3
ENCODING 467
SWIDTH 630 0
DWIDTH 21 0
BBX 15 28 3 0
BITMAP
1830
0C60
06C0
0380
0000
0000
C002
C002
C002
C002
C002
C002
C002
C002
C002
C002
C002
C002
C002
C002
C006
C006
C006
6004
600C
3018
1EF0
0FC0
ENDCHAR
STARTCHAR 01D4
ENCODING 468
SWIDTH 540 0
DWIDTH 18 0
BBX 12 24 3 0
BITMAP
6040
3080
1980
0F00
0600
0000
0000
0000
8030
8030
8030
8030
8030
8030
8030
8030
8030
8030
8030
8030
C070
C0F0
73B0
3E30
ENDCHAR
STARTCHAR 01D5
ENCODING 469
SWIDTH 630 0
DWIDTH 21 0
BBX 15 30 3 0
BITMAP
1FF0
0000
0000
0000
1830
1830
0000
0000
C002
C002
C002
C002
C002
C002
C002
C002
C002
C002
C002
C002
C002
C002
C006
C006
C006
6004
600C
3018
1EF0
0FC0
ENDCHAR
STARTCHAR 01D6
ENCODING 470
SWIDTH 540 0
DWIDTH 18 0
BBX 12 26 3 0
BITMAP
3FC0
0000
0000
0000
30C0
30C0
0000
0000
0000
0000
8030
8030
8030
8030
8030
8030
8030
8030
8030
8030
8030
8030
C070
C0F0
73B0
3E30
ENDCHAR
STARTCHAR 01D7
ENCODING 471
SWIDTH 630 0
DWIDTH 21 0
BBX 15 31 3 0
BITMAP
0060
00C0
0180
0100
0000
1830
1830
0000
0000
C002
C002
C002
C002
C002
C002
C002
C002
C002
C002
C002
C002
C002
C002
C006
C006
C006
6004
600C
3018
1EF0
0FC0
ENDCHAR
STARTCHAR 01D8
ENCODING 472
SWIDTH 540 0
DWIDTH 18 0
BBX 12 27 3 0
BITMAP
0100
0300
0600
0400
0000
30C0
30C0
0000
0000
0000
0000
8030
8030
8030
8030
8030
8030
8030
8030
8030
8030
8030
8030
C070
C0F0
73B0
3E30
ENDCHAR
STARTCHAR 01D9
ENCODING 473
SWIDTH 630 0
DWIDTH 21 0
BBX 15 31 3 1
BITMAP
0820
06C0
0380
0000
0000
1830
1830
0000
0000
C002
C002
C002
C002
C002
C002
C002
C002
C002
C002
C002
C002
C002
C002
C006
C006
C006
6004
600C
3018
1EF0
0FC0
ENDCHAR
STARTCHAR 01DA
ENCODING 474
SWIDTH 540 0
DWIDTH 18 0
BBX 12 27 3 0
BITMAP
2000
1080
0B00
0600
0000
30C0
30C0
0000
0000
0000
0000
8030
8030
8030
8030
8030
8030
8030
8030
8030
8030
8030
8030
C070
C0F0
73B0
3E30
ENDCHAR
STARTCHAR 01DB
ENCODING 475
SWIDTH 630 0
DWIDTH 21 0
BBX 15 31 3 0
BITMAP
0C00
0600
0300
0100
0000
1830
1830
0000
0000
C002
C002
C002
C002
C002
C002
C002
C002
C002
C002
C002
C002
C002
C002
C006
C006
C006
6004
600C
3018
1EF0
0FC0
ENDCHAR
STARTCHAR 01DC
ENCODING 476
SWIDTH 540 0
DWIDTH 18 0
BBX 12 27 3 0
BITMAP
1800
0C00
0400
0200
0000
30C0
30C0
0000
0000
0000
0000
8030
8030
8030
8030
8030
8030
8030
8030
8030
8030
8030
8030
C070
C0F0
73B0
3E30
ENDCHAR
STARTCHAR 01E2
ENCODING 482
SWIDTH 810 0
DWIDTH 27 0
BBX 24 26 1 0
BITMAP
0003FC
000000
000000
000000
000FFF
001400
003400
002400
006400
004400
00C400
008400
018400
010400
0307FC
060400
060400
0C0400
0FFC00
180400
100400
300400
200400
600400
400400
C007FF
ENDCHAR
STARTCHAR 01E3
ENCODING 483
SWIDTH 780 0
DWIDTH 26 0
BBX 23 22 2 0
BITMAP
00FF00
000000
000000
000000
000000
000000
0F81F0
39C738
406C0C
002804
003006
003006
01F006
0E3FFE
303000
603000
C01000
C01800
C03800
C06C04
71871C
3E01F0
ENDCHAR
STARTCHAR 01E6
ENCODING 486
SWIDTH 600 0
DWIDTH 20 0
BBX 16 27 2 0
BITMAP
060C
0318
01B0
00E0
0000
03F8
0F3C
1806
3000
6000
6000
4000
C000
C000
C000
8000
807F
C003
C003
C003
4003
6003
6003
3003
1803
0F3E
03F0
ENDCHAR
STARTCHAR 01E7
ENCODING 487
SWIDTH 480 0
DWIDTH 16 0
BBX 14 32 2 -8
BITMAP
3020
1840
0C80
0580
0300
0000
0000
0000
0FFC
30C0
6060
4020
4030
C030
4030
4020
6060
30C0
2F00
4000
4000
4000
7000
3FF8
4018
C00C
800C
800C
8008
C018
7060
1F80
ENDCHAR
STARTCHAR 01EA
ENCODING 490
SWIDTH 660 0
DWIDTH 22 0
BBX 18 28 2 -6
BITMAP
03F000
0F3C00
180600
300300
600100
600180
400080
C000C0
C000C0
C000C0
8000C0
8000C0
C000C0
C000C0
C000C0
C00080
600180
600100
300300
180600
0F3C00
03F000
004000
008000
018000
010000
018000
00F000
ENDCHAR
STARTCHAR 01EB
ENCODING 491
SWIDTH 540 0
DWIDTH 18 0
BBX 14 22 2 -6
BITMAP
0FC0
1CE0
3030
6018
C008
C00C
800C
8004
8004
800C
C00C
C00C
6018
3030
1CE0
0FC0
0300
0200
0600
0400
0600
03C0
ENDCHAR
STARTCHAR 01F4
ENCODING 500
SWIDTH 600 0
DWIDTH 20 0
BBX 16 28 2 0
BITMAP
0008
0018
0030
0040
0080
0000
03F8
0F3C
1806
3000
6000
6000
4000
C000
C000
C000
8000
807F
C003
C003
C003
4003
6003
6003
3003
1803
0F3E
03F0
ENDCHAR
STARTCHAR 01F5
ENCODING 501
SWIDTH 480 0
DWIDTH 16 0
BBX 14 33 2 -8
BITMAP
0040
00C0
0180
0300
0200
0400
0000
0000
0000
0FFC
30C0
6060
4020
4030
C030
4030
4020
6060
30C0
2F00
4000
4000
4000
7000
3FF8
4018
C00C
800C
800C
8008
C018
7060
1F80
ENDCHAR
STARTCHAR 01F8
ENCODING 504
SWIDTH 630 0
DWIDTH 21 0
BBX 15 28 3 0
BITMAP
0C00
0600
0300
0180
0000
0000
C006
E006
E006
F006
D806
C806
CC06
C406
C606
C306
C306
C186
C086
C0C6
C042
C062
C032
C012
C01A
C00A
C00E
C006
ENDCHAR
STARTCHAR 01F9
ENCODING 505
SWIDTH 540 0
DWIDTH 18 0
BBX 12 25 3 0
BITMAP
1000
1800
0C00
0600
0300
0100
0000
0000
0000
8780
98E0
A020
C030
C030
C030
C030
C030
C030
C030
C030
C030
C030
C030
C030
C030
ENDCHAR
STARTCHAR 01FC
ENCODING 508
SWIDTH 810 0
DWIDTH 27 0
BBX 24 28 1 0
BITMAP
00000C
000018
000030
000060
000000
000000
000FFF
001400
003400
002400
006400
004400
00C400
008400
018400
010400
0307FC
060400
060400
0C0400
0FFC00
180400
100400
300400
200400
600400
400400
C007FF
ENDCHAR
STARTCHAR 01FD
ENCODING 509
SWIDTH 780 0
DWIDTH 26 0
BBX 23 25 2 0
BITMAP
000200
000600
000400
000800
001800
003000
000000
000000
000000
0F81F0
39C738
406C0C
002804
003006
003006
01F006
0E3FFE
303000
603000
C01000
C01800
C03800
C06C04
71871C
3E01F0
ENDCHAR
STARTCHAR 0218
ENCODING 536
SWIDTH 510 0
DWIDTH 17 0
BBX 14 29 2 -7
BITMAP
0FC0
1CF0
2018
6000
4000
4000
6000
6000
3800
1E00
0780
01E0
0030
0018
000C
000C
000C
000C
800C
E018
3CF0
0FC0
0000
0000
0780
0080
0080
0180
0E00
ENDCHAR
STARTCHAR 0219
ENCODING 537
SWIDTH 420 0
DWIDTH 14 0
BBX 11 23 1 -7
BITMAP
1F80
31C0
6000
4000
4000
6000
3800
1E00
03C0
00E0
0060
0020
0020
C060
70C0
1F80
0000
0000
0700
0100
0100
0300
0C00
ENDCHAR
STARTCHAR 021A
ENCODING 538
SWIDTH 510 0
DWIDTH 17 0
BBX 15 29 1 -7
BITMAP
FFFE
0100
0100
0100
0100
0100
0100
0100
0100
0100
0100
0100
0100
0100
0100
0100
0100
0100
0100
0100
0100
0100
0000
0000
0380
00C0
0040
00C0
0700
ENDCHAR
STARTCHAR 021B
ENCODING 539
SWIDTH 300 0
DWIDTH 10 0
BBX 9 28 1 -7
BITMAP
1000
1000
1000
1000
3000
FF80
3000
3000
3000
3000
3000
3000
3000
3000
3000
3000
3000
1000
1000
1D80
0F80
0000
0000
0E00
0300
0100
0200
1C00
ENDCHAR
STARTCHAR 0237
ENCODING 567
SWIDTH 240 0
DWIDTH 8 0
BBX 6 23 -1 -7
BITMAP
0C
0C
0C
0C
0C
0C
0C
0C
0C
0C
0C
0C
0C
0C
0C
0C
0C
0C
0C
0C
08
98
F0
ENDCHAR
STARTCHAR 0243
ENCODING 579
SWIDTH 600 0
DWIDTH 20 0
BBX 17 22 1 0
BITMAP
1FF000
101C00
100600
100300
100300
100300
100300
100200
100600
101C00
1FF800
100E00
100300
100180
100080
FFC080
100080
100180
100180
100300
101E00
1FF800
ENDCHAR
STARTCHAR 0250
ENCODING 592
SWIDTH 510 0
DWIDTH 17 0
BBX 12 16 3 0
BITMAP
87C0
98E0
A020
C030
8030
8020
8060
81C0
8F00
F000
8000
8000
C000
6020
78E0
1F80
ENDCHAR
STARTCHAR 0251
ENCODING 593
SWIDTH 540 0
DWIDTH 18 0
BBX 13 16 2 0
BITMAP
0F88
1CE8
3018
6008
C008
C008
8008
8008
8008
8008
C008
C008
4018
6038
38C8
0F88
ENDCHAR
STARTCHAR 0252
ENCODING 594
SWIDTH 540 0
DWIDTH 18 0
BBX 13 16 3 0
BITMAP
87C0
98E0
E030
C018
C018
C008
C008
C008
C008
C008
C018
C018
C030
E030
B8E0
8F80
ENDCHAR
STARTCHAR 0253
ENCODING 595
SWIDTH 540 0
DWIDTH 18 0
BBX 13 24 3 0
BITMAP
1E00
7200
4000
C000
C000
C000
C000
C000
87C0
98E0
E030
C018
C018
C008
C008
C008
C008
C008
C018
C018
C030
E030
B8E0
8F80
ENDCHAR
STARTCHAR 0254
ENCODING 596
SWIDTH 450 0
DWIDTH 15 0
BBX 12 16 1 0
BITMAP
1F00
73C0
40E0
0060
0030
0030
0010
0010
0010
0010
0030
0030
0060
80C0
7380
3F00
ENDCHAR
STARTCHAR 0255
ENCODING 597
SWIDTH 450 0
DWIDTH 15 0
BBX 12 18 2 -2
BITMAP
0FC0
1CE0
3020
6000
C000
C000
8000
8000
8000
8000
C3E0
C630
6810
3030
3C60
67C0
4000
4000
ENDCHAR
STARTCHAR 0256
ENCODING 598
SWIDTH 540 0
DWIDTH 18 0
BBX 16 29 2 -5
BITMAP
0008
0008
0008
0008
0008
0008
0008
0008
0F88
1CE8
3018
6008
C008
C008
8008
8008
8008
8008
C008
C008
4018
6038
38E8
0F88
0008
0008
0008
000C
0007
ENDCHAR
STARTCHAR 0257
ENCODING 599
SWIDTH 540 0
DWIDTH 18 0
BBX 17 24 2 0
BITMAP
000780
000C00
000800
000800
000800
000800
000800
000800
0F8800
1CE800
301800
600800
C00800
C00800
800800
800800
800800
800800
C00800
C00800
401800
603800
38C800
0F8800
ENDCHAR
STARTCHAR 0258
ENCODING 600
SWIDTH 480 0
DWIDTH 16 0
BBX 13 16 1 0
BITMAP
0F80
38E0
2030
4010
4018
C008
C008
FFF8
0008
0008
0008
0018
0010
4030
71E0
1F80
ENDCHAR
STARTCHAR 0259
ENCODING 601
SWIDTH 480 0
DWIDTH 16 0
BBX 13 16 1 0
BITMAP
0F80
78E0
0030
0010
0018
0008
0008
0008
FFF8
C008
C008
4018
4010
2030
38E0
0F80
ENDCHAR
STARTCHAR 025A
ENCODING 602
SWIDTH 600 0
DWIDTH 20 0
BBX 20 16 1 0
BITMAP
0F8000
38E000
003000
001000
001B80
001F80
007890
0388F0
1C0800
700800
C00800
401800
601000
303000
1CE000
0F8000
ENDCHAR
STARTCHAR 025B
ENCODING 603
SWIDTH 420 0
DWIDTH 14 0
BBX 11 16 2 0
BITMAP
1F80
31E0
6000
4000
4000
6000
3000
1F00
7000
C000
8000
8000
C000
C020
70E0
1F80
ENDCHAR
STARTCHAR 025C
ENCODING 604
SWIDTH 450 0
DWIDTH 15 0
BBX 11 16 2 0
BITMAP
3F00
F380
00C0
0040
0040
00C0
0180
3E00
0180
0040
0060
0020
0060
8040
E1C0
3F00
ENDCHAR
STARTCHAR 025E
ENCODING 606
SWIDTH 540 0
DWIDTH 18 0
BBX 14 16 2 0
BITMAP
1F80
31E0
6030
4018
4008
600C
300C
1F0C
7004
C00C
800C
800C
C018
C030
70E0
1F80
ENDCHAR
STARTCHAR 025F
ENCODING 607
SWIDTH 240 0
DWIDTH 8 0
BBX 9 23 -1 -7
BITMAP
0C00
0C00
0C00
0C00
0C00
0C00
0C00
7F80
0C00
0C00
0C00
0C00
0C00
0C00
0C00
0C00
0C00
0C00
0C00
0C00
0C00
9800
F000
ENDCHAR
STARTCHAR 0260
ENCODING 608
SWIDTH 540 0
DWIDTH 18 0
BBX 17 27 2 -7
BITMAP
000780
000C00
000800
000800
0F8800
1CE800
301800
600800
C00800
C00800
800800
800800
800800
800800
C00800
C00800
401800
603800
38E800
0F8800
000800
000800
001800
001800
003000
786000
1FC000
ENDCHAR
STARTCHAR 0261
ENCODING 609
SWIDTH 540 0
DWIDTH 18 0
BBX 13 23 2 -7
BITMAP
0F88
1CE8
3018
6008
C008
C008
8008
8008
8008
8008
C008
C008
4018
6038
38E8
0F88
0008
0008
0018
0018
0030
7860
1FC0
ENDCHAR
STARTCHAR 0262
ENCODING 610
SWIDTH 480 0
DWIDTH 16 0
BBX 12 16 2 0
BITMAP
07C0
1C70
3010
6000
C000
C000
8000
8000
81F0
8010
C010
C010
6010
7010
1C70
0FC0
ENDCHAR
STARTCHAR 0263
ENCODING 611
SWIDTH 420 0
DWIDTH 14 0
BBX 14 24 0 -8
BITMAP
C00C
400C
6008
2018
3010
3010
1030
1820
0860
0840
0C40
04C0
0680
0280
0380
0300
0380
0680
04C0
0440
0C40
0C40
04C0
0380
ENDCHAR
STARTCHAR 0264
ENCODING 612
SWIDTH 480 0
DWIDTH 16 0
BBX 14 16 1 0
BITMAP
F03C
9864
0F80
0300
0780
0CC0
1860
1020
3030
2010
2010
2010
2030
3030
1CE0
0FC0
ENDCHAR
STARTCHAR 0265
ENCODING 613
SWIDTH 540 0
DWIDTH 18 0
BBX 12 23 3 -7
BITMAP
8030
8030
8030
8030
8030
8030
8030
8030
8030
8030
8030
8030
C070
C0F0
73B0
3E30
0030
0030
0030
0030
0030
0030
0030
ENDCHAR
STARTCHAR 0266
ENCODING 614
SWIDTH 540 0
DWIDTH 18 0
BBX 12 24 3 0
BITMAP
1E00
7200
4000
C000
C000
C000
C000
C000
C780
D8E0
F020
C030
C030
C030
C030
C030
C030
C030
C030
C030
C030
C030
C030
C030
ENDCHAR
STARTCHAR 0267
ENCODING 615
SWIDTH 540 0
DWIDTH 18 0
BBX 12 30 3 -6
BITMAP
1E00
7200
4000
C000
C000
C000
C000
C000
C780
D8E0
F020
C030
C030
C030
C030
C030
C030
C030
C030
C030
C030
C030
C030
C030
0030
0030
0030
0030
0060
03C0
ENDCHAR
STARTCHAR 0268
ENCODING 616
SWIDTH 240 0
DWIDTH 8 0
BBX 8 22 0 1
BITMAP
18
18
00
00
00
00
18
18
18
18
18
18
18
FF
18
18
18
18
18
18
18
18
ENDCHAR
STARTCHAR 026A
ENCODING 618
SWIDTH 300 0
DWIDTH 10 0
BBX 8 16 1 0
BITMAP
FF
18
18
18
18
18
18
18
18
18
18
18
18
18
18
FF
ENDCHAR
STARTCHAR 026C
ENCODING 620
SWIDTH 270 0
DWIDTH 9 0
BBX 9 24 0 0
BITMAP
0C00
0C00
0C00
0C00
0C00
0C00
0C00
0C00
7C00
9C00
8C00
CC00
7F80
0C00
0C00
0C00
0C00
0C00
0C00
0C00
0C00
0C00
0C00
0600
ENDCHAR
STARTCHAR 026D
ENCODING 621
SWIDTH 240 0
DWIDTH 8 0
BBX 5 30 3 -6
BITMAP
C0
C0
C0
C0
C0
C0
C0
C0
C0
C0
C0
C0
C0
C0
C0
C0
C0
C0
C0
C0
C0
C0
C0
C0
C0
C0
C0
C0
68
78
ENDCHAR
STARTCHAR 026E
ENCODING 622
SWIDTH 540 0
DWIDTH 18 0
BBX 14 31 3 -7
BITMAP
C000
C000
C000
C000
C000
C000
C000
C000
FFFC
C008
C010
C030
C060
C040
C080
C180
C300
C200
C7E0
C438
C018
C00C
C004
C004
0004
0004
000C
000C
3018
1C70
07C0
ENDCHAR
STARTCHAR 026F
ENCODING 623
SWIDTH 810 0
DWIDTH 27 0
BBX 21 16 3 0
BITMAP
802008
802008
802008
802008
802008
802008
802008
802008
802008
802008
802008
802008
C07018
C0B028
731CC8
3E0F08
ENDCHAR
STARTCHAR 0270
ENCODING 624
SWIDTH 810 0
DWIDTH 27 0
BBX 21 23 3 -7
BITMAP
802008
802008
802008
802008
802008
802008
802008
802008
802008
802008
802008
802008
C07018
C0B028
731CC8
3E0F08
000008
000008
000008
000008
000008
000008
000008
ENDCHAR
STARTCHAR 0271
ENCODING 625
SWIDTH 810 0
DWIDTH 27 0
BBX 21 22 3 -6
BITMAP
8781E0
99C670
A06818
C03018
C02008
C02008
C02008
C02008
C02008
C02008
C02008
C02008
C02008
C02008
C02008
C02008
000008
000008
000008
000018
000098
0000F0
ENDCHAR
STARTCHAR 0272
ENCODING 626
SWIDTH 540 0
DWIDTH 18 0
BBX 15 22 0 -6
BITMAP
10F0
131C
1604
1806
1806
1806
1806
1806
1806
1806
1806
1806
1806
1806
1806
1806
1800
1800
1800
1000
3000
E000
ENDCHAR
STARTCHAR 0273
ENCODING 627
SWIDTH 540 0
DWIDTH 18 0
BBX 15 22 3 -6
BITMAP
8780
98E0
B020
C030
C030
C030
C030
C030
C030
C030
C030
C030
C030
C030
C030
C030
0030
0030
0030
0010
0018
000E
ENDCHAR
STARTCHAR 0274
ENCODING 628
SWIDTH 540 0
DWIDTH 18 0
BBX 12 16 3 0
BITMAP
C030
E030
A030
B030
9030
9830
8C30
8430
8630
8330
8130
81B0
80B0
8070
8070
8030
ENDCHAR
STARTCHAR 0275
ENCODING 629
SWIDTH 540 0
DWIDTH 18 0
BBX 14 16 2 0
BITMAP
0FC0
1CE0
2030
4018
C00C
800C
8004
FFFC
8004
8004
C00C
C00C
4018
6010
3CE0
0FC0
ENDCHAR
STARTCHAR 0276
ENCODING 630
SWIDTH 690 0
DWIDTH 23 0
BBX 20 16 2 0
BITMAP
07FFF0
1C7000
303000
603000
C03000
C03000
803000
803FE0
803000
C03000
C03000
C03000
603000
303000
1E7000
07FFF0
ENDCHAR
STARTCHAR 0278
ENCODING 632
SWIDTH 660 0
DWIDTH 22 0
BBX 18 31 2 -7
BITMAP
008000
008000
008000
008000
008000
008000
008000
008000
07F000
1C9E00
308300
608180
408180
C080C0
8080C0
8080C0
8080C0
8080C0
C08080
408180
608100
308300
1C9C00
07F000
008000
008000
008000
008000
008000
008000
008000
ENDCHAR
STARTCHAR 0279
ENCODING 633
SWIDTH 330 0
DWIDTH 11 0
BBX 7 16 0 0
BITMAP
02
02
02
02
02
02
02
02
02
02
02
02
06
0A
BA
E2
ENDCHAR
STARTCHAR 027A
ENCODING 634
SWIDTH 330 0
DWIDTH 11 0
BBX 7 24 0 0
BITMAP
02
02
02
02
02
02
02
02
02
02
02
02
02
02
02
02
02
02
02
02
06
0A
BA
E2
ENDCHAR
STARTCHAR 027B
ENCODING 635
SWIDTH 330 0
DWIDTH 11 0
BBX 11 21 0 -5
BITMAP
0200
0200
0200
0200
0200
0200
0200
0200
0200
0200
0200
0200
0600
0A00
BA00
E200
0200
0300
0300
0300
01E0
ENDCHAR
STARTCHAR 027D
ENCODING 637
SWIDTH 330 0
DWIDTH 11 0
BBX 8 22 3 -6
BITMAP
8F
9A
A0
E0
C0
C0
C0
C0
C0
C0
C0
C0
C0
C0
C0
C0
C0
C0
C0
C0
68
78
ENDCHAR
STARTCHAR 027E
ENCODING 638
SWIDTH 300 0
DWIDTH 10 0
BBX 7 16 3 0
BITMAP
1E
72
60
C0
C0
C0
C0
C0
C0
C0
C0
C0
C0
C0
C0
C0
ENDCHAR
STARTCHAR 0280
ENCODING 640
SWIDTH 480 0
DWIDTH 16 0
BBX 11 16 3 0
BITMAP
FF00
C1C0
C060
C060
C060
C060
C040
C1C0
FF00
C200
C300
C100
C180
C0C0
C040
C060
ENDCHAR
STARTCHAR 0281
ENCODING 641
SWIDTH 480 0
DWIDTH 16 0
BBX 11 16 2 0
BITMAP
8060
C060
6060
2060
3060
1860
0860
3FE0
6060
C060
C060
8060
C060
C060
7060
3FE0
ENDCHAR
STARTCHAR 0282
ENCODING 642
SWIDTH 420 0
DWIDTH 14 0
BBX 11 21 1 -5
BITMAP
1F80
31C0
6000
4000
4000
6000
3800
1E00
03C0
00E0
0060
0020
0020
4060
F8C0
9F80
8000
C000
C000
4000
7C00
ENDCHAR
STARTCHAR 0283
ENCODING 643
SWIDTH 240 0
DWIDTH 8 0
BBX 10 31 -1 -7
BITMAP
07C0
0400
0C00
0C00
0C00
0C00
0C00
0C00
0C00
0C00
0C00
0C00
0C00
0C00
0C00
0C00
0C00
0C00
0C00
0C00
0C00
0C00
0C00
0C00
0C00
0C00
0C00
0C00
0800
9800
F000
ENDCHAR
STARTCHAR 0284
ENCODING 644
SWIDTH 240 0
DWIDTH 8 0
BBX 10 31 -1 -7
BITMAP
03C0
0600
0C00
0C00
0C00
0C00
0C00
0C00
0C00
0C00
0C00
0C00
0C00
0C00
0C00
7F80
0C00
0C00
0C00
0C00
0C00
0C00
0C00
0C00
0C00
0C00
0C00
0C00
0C00
9800
F000
ENDCHAR
STARTCHAR 0288
ENCODING 648
SWIDTH 300 0
DWIDTH 10 0
BBX 9 27 1 -6
BITMAP
1000
1000
1000
1000
3000
FF80
3000
3000
3000
3000
3000
3000
3000
3000
3000
3000
3000
3000
3000
3000
3000
3000
3000
1000
1000
1C80
0F80
ENDCHAR
STARTCHAR 0289
ENCODING 649
SWIDTH 540 0
DWIDTH 18 0
BBX 18 16 0 0
BITMAP
180200
180200
180200
180200
180200
180200
FFFFC0
180200
180200
180200
180200
180200
080600
0C0A00
0F3200
03C200
ENDCHAR
STARTCHAR 028A
ENCODING 650
SWIDTH 540 0
DWIDTH 18 0
BBX 15 16 1 0
BITMAP
FC3E
0830
1018
300C
2004
6004
6006
4006
4006
4006
6006
6004
300C
3018
1C70
07C0
ENDCHAR
STARTCHAR 028B
ENCODING 651
SWIDTH 510 0
DWIDTH 17 0
BBX 12 16 3 0
BITMAP
83C0
82E0
8030
8030
8010
8010
8010
8010
8010
8010
8030
C030
C060
6040
39C0
1F00
ENDCHAR
STARTCHAR 028C
ENCODING 652
SWIDTH 420 0
DWIDTH 14 0
BBX 13 16 1 0
BITMAP
0600
0700
0D00
0900
0980
1880
10C0
10C0
3040
2060
6060
4020
4030
C010
8018
8018
ENDCHAR
STARTCHAR 028D
ENCODING 653
SWIDTH 690 0
DWIDTH 23 0
BBX 21 16 1 0
BITMAP
0C0300
0E0380
0A0280
1A0280
1304C0
1104C0
110440
310C60
218860
208820
608820
60D030
40D030
405010
C07018
806018
ENDCHAR
STARTCHAR 028E
ENCODING 654
SWIDTH 450 0
DWIDTH 15 0
BBX 13 24 1 0
BITMAP
0038
00E8
0180
0100
0300
0200
0200
0600
0600
0600
0F00
0900
0900
1980
1080
10C0
30C0
2040
6060
6020
4030
C030
C010
8018
ENDCHAR
STARTCHAR 028F
ENCODING 655
SWIDTH 390 0
DWIDTH 13 0
BBX 12 16 0 0
BITMAP
C010
4030
6020
3060
1040
18C0
0880
0D80
0500
0700
0200
0200
0200
0200
0200
0200
ENDCHAR
STARTCHAR 0290
ENCODING 656
SWIDTH 390 0
DWIDTH 13 0
BBX 15 22 1 -6
BITMAP
7FE0
0060
0040
0080
0180
0300
0200
0600
0C00
0800
1800
3000
2000
6000
C000
FFE0
0020
0020
0020
0030
0030
001E
ENDCHAR
STARTCHAR 0291
ENCODING 657
SWIDTH 420 0
DWIDTH 14 0
BBX 13 19 1 -3
BITMAP
7FE0
0060
0040
0080
0180
0300
0200
0600
0C00
0800
1878
3088
2108
6308
C218
FFE0
0400
0400
0400
ENDCHAR
STARTCHAR 0292
ENCODING 658
SWIDTH 390 0
DWIDTH 13 0
BBX 13 23 0 -7
BITMAP
3FF0
0030
0060
0040
0080
0180
0300
0200
0400
0C00
1F80
08E0
0030
0010
0018
0018
0018
0018
0018
0030
C030
79E0
1F80
ENDCHAR
STARTCHAR 0294
ENCODING 660
SWIDTH 390 0
DWIDTH 13 0
BBX 13 24 0 0
BITMAP
1F80
39E0
C030
0030
0010
0018
0018
0010
0010
0030
0060
00C0
0180
0700
0600
0600
0600
0600
0600
0600
0600
0600
0600
0600
ENDCHAR
STARTCHAR 0295
ENCODING 661
SWIDTH 420 0
DWIDTH 14 0
BBX 12 24 1 0
BITMAP
0F80
38E0
6030
C010
C000
8000
8000
C000
C000
4000
6000
3000
1C00
0E00
0200
0200
0200
0200
0200
0200
0200
0200
0200
0200
ENDCHAR
STARTCHAR 0298
ENCODING 664
SWIDTH 510 0
DWIDTH 17 0
BBX 13 24 2 0
BITMAP
0F80
19C0
3060
2020
6030
4030
4010
4010
C018
C018
C018
C718
C618
C018
C018
C018
C010
4010
4010
6030
2020
3060
18C0
0F80
ENDCHAR
STARTCHAR 0299
ENCODING 665
SWIDTH 510 0
DWIDTH 17 0
BBX 12 16 3 0
BITMAP
FF80
C0E0
C060
C020
C020
C020
C0C0
FF80
C0E0
C030
C030
C010
C030
C030
C0E0
FF80
ENDCHAR
STARTCHAR 029C
ENCODING 668
SWIDTH 540 0
DWIDTH 18 0
BBX 12 16 3 0
BITMAP
C010
C010
C010
C010
C010
C010
C010
FFF0
C010
C010
C010
C010
C010
C010
C010
C010
ENDCHAR
STARTCHAR 029D
ENCODING 669
SWIDTH 240 0
DWIDTH 8 0
BBX 11 32 -3 -9
BITMAP
0100
0380
0300
0000
0000
0000
0000
0300
0300
0300
0300
0300
0300
0300
0300
0300
0300
0300
0300
0300
0300
0300
0300
0300
0300
7F00
8700
8300
CF80
78C0
0060
0020
ENDCHAR
STARTCHAR 029F
ENCODING 671
SWIDTH 390 0
DWIDTH 13 0
BBX 9 16 3 0
BITMAP
C000
C000
C000
C000
C000
C000
C000
C000
C000
C000
C000
C000
C000
C000
C000
FF80
ENDCHAR
STARTCHAR 02A1
ENCODING 673
SWIDTH 420 0
DWIDTH 14 0
BBX 13 24 0 0
BITMAP
0FC0
38E0
6030
4018
0018
0008
0008
0018
0018
0030
0060
00C0
0180
FFF8
0200
0200
0200
0200
0200
0200
0200
0200
0200
0200
ENDCHAR
STARTCHAR 02A2
ENCODING 674
SWIDTH 420 0
DWIDTH 14 0
BBX 13 24 1 0
BITMAP
0F80
38E0
6030
C010
C000
8000
C000
C000
C000
6000
3000
1800
0C00
FFF8
0200
0200
0200
0200
0200
0200
0200
0200
0200
0200
ENDCHAR
STARTCHAR 02B0
ENCODING 688
SWIDTH 360 0
DWIDTH 12 0
BBX 8 16 2 13
BITMAP
80
80
80
80
80
9E
A3
C1
81
81
81
81
81
81
81
81
ENDCHAR
STARTCHAR 02B2
ENCODING 690
SWIDTH 150 0
DWIDTH 5 0
BBX 5 20 -1 9
BITMAP
18
18
00
00
00
10
10
10
10
10
10
10
10
10
10
10
10
10
10
E0
ENDCHAR
STARTCHAR 02B3
ENCODING 691
SWIDTH 210 0
DWIDTH 7 0
BBX 5 11 2 13
BITMAP
98
A0
C0
80
80
80
80
80
80
80
80
ENDCHAR
STARTCHAR 02B7
ENCODING 695
SWIDTH 480 0
DWIDTH 16 0
BBX 14 10 1 14
BITMAP
8304
830C
C508
4508
4498
4490
2890
2850
2860
3060
ENDCHAR
STARTCHAR 02B8
ENCODING 696
SWIDTH 300 0
DWIDTH 10 0
BBX 8 15 1 9
BITMAP
81
81
C1
42
42
22
24
34
14
18
08
18
10
30
E0
ENDCHAR
STARTCHAR 02B9
ENCODING 697
SWIDTH 210 0
DWIDTH 7 0
BBX 2 7 3 16
BITMAP
C0
C0
C0
80
80
80
80
ENDCHAR
STARTCHAR 02BB
ENCODING 699
SWIDTH 210 0
DWIDTH 7 0
BBX 3 7 2 16
BITMAP
20
40
C0
80
C0
E0
C0
ENDCHAR
STARTCHAR 02BC
ENCODING 700
SWIDTH 210 0
DWIDTH 7 0
BBX 3 7 2 17
BITMAP
60
60
20
20
60
40
80
ENDCHAR
STARTCHAR 02BE
ENCODING 702
SWIDTH 150 0
DWIDTH 5 0
BBX 4 6 1 18
BITMAP
C0
20
10
10
20
C0
ENDCHAR
STARTCHAR 02BF
ENCODING 703
SWIDTH 150 0
DWIDTH 5 0
BBX 3 6 1 18
BITMAP
60
80
80
80
80
60
ENDCHAR
STARTCHAR 02C1
ENCODING 705
SWIDTH 270 0
DWIDTH 9 0
BBX 8 16 1 14
BITMAP
3C
43
81
80
80
80
C0
60
30
18
18
18
18
18
18
18
ENDCHAR
STARTCHAR 02C6
ENCODING 710
SWIDTH 540 0
DWIDTH 18 0
BBX 9 5 4 19
BITMAP
0C00
1600
2300
6180
C080
ENDCHAR
STARTCHAR 02C7
ENCODING 711
SWIDTH 540 0
DWIDTH 18 0
BBX 8 5 5 19
BITMAP
81
C2
66
3C
18
ENDCHAR
STARTCHAR 02C8
ENCODING 712
SWIDTH 90 0
DWIDTH 3 0
BBX 1 6 1 18
BITMAP
80
80
80
80
80
80
ENDCHAR
STARTCHAR 02C9
ENCODING 713
SWIDTH 270 0
DWIDTH 9 0
BBX 8 1 0 21
BITMAP
FF
ENDCHAR
STARTCHAR 02CA
ENCODING 714
SWIDTH 210 0
DWIDTH 7 0
BBX 5 6 2 19
BITMAP
08
18
30
60
C0
80
ENDCHAR
STARTCHAR 02CB
ENCODING 715
SWIDTH 210 0
DWIDTH 7 0
BBX 5 6 0 19
BITMAP
80
C0
60
30
18
08
ENDCHAR
STARTCHAR 02CC
ENCODING 716
SWIDTH 90 0
DWIDTH 3 0
BBX 1 6 1 -9
BITMAP
80
80
80
80
80
80
ENDCHAR
STARTCHAR 02D0
ENCODING 720
SWIDTH 210 0
DWIDTH 7 0
BBX 3 15 2 0
BITMAP
E0
E0
40
40
00
00
00
00
00
00
00
40
40
60
E0
ENDCHAR
STARTCHAR 02D1
ENCODING 721
SWIDTH 210 0
DWIDTH 7 0
BBX 3 4 2 8
BITMAP
E0
E0
40
40
ENDCHAR
STARTCHAR 02D8
ENCODING 728
SWIDTH 540 0
DWIDTH 18 0
BBX 10 5 4 19
BITMAP
8040
C0C0
4080
6100
1E00
ENDCHAR
STARTCHAR 02D9
ENCODING 729
SWIDTH 540 0
DWIDTH 18 0
BBX 2 2 8 21
BITMAP
C0
C0
ENDCHAR
STARTCHAR 02DA
ENCODING 730
SWIDTH 540 0
DWIDTH 18 0
BBX 6 7 6 18
BITMAP
70
CC
84
84
84
CC
70
ENDCHAR
STARTCHAR 02DB
ENCODING 731
SWIDTH 540 0
DWIDTH 18 0
BBX 5 7 7 -7
BITMAP
20
40
40
80
80
C8
78
ENDCHAR
STARTCHAR 02DC
ENCODING 732
SWIDTH 540 0
DWIDTH 18 0
BBX 11 5 3 19
BITMAP
3820
6C20
4620
4360
C1C0
ENDCHAR
STARTCHAR 02DD
ENCODING 733
SWIDTH 540 0
DWIDTH 18 0
BBX 9 6 6 19
BITMAP
1180
3100
2300
6200
4600
C400
ENDCHAR
STARTCHAR 02DE
ENCODING 734
SWIDTH 120 0
DWIDTH 4 0
BBX 8 4 -3 9
BITMAP
70
D8
08
0F
ENDCHAR
STARTCHAR 02E0
ENCODING 736
SWIDTH 300 0
DWIDTH 10 0
BBX 10 16 0 8
BITMAP
C0C0
4080
4080
2100
2100
3300
1200
1200
0C00
0C00
0C00
0E00
1200
1200
1200
0C00
ENDCHAR
STARTCHAR 02E1
ENCODING 737
SWIDTH 150 0
DWIDTH 5 0
BBX 2 16 2 13
BITMAP
80
80
80
80
80
80
80
80
80
80
80
80
80
80
80
C0
ENDCHAR
STARTCHAR 02E2
ENCODING 738
SWIDTH 270 0
DWIDTH 9 0
BBX 7 11 1 13
BITMAP
3C
46
C0
C0
60
1C
06
02
02
C6
7C
ENDCHAR
STARTCHAR 02E3
ENCODING 739
SWIDTH 270 0
DWIDTH 9 0
BBX 9 11 0 13
BITMAP
4180
2100
3200
1600
0C00
0C00
1400
3200
2300
4100
C080
ENDCHAR
STARTCHAR 0300
ENCODING 768
SWIDTH 0 0
DWIDTH 0 0
BBX 4 6 -3 19
BITMAP
80
C0
40
20
10
10
ENDCHAR
STARTCHAR 0301
ENCODING 769
SWIDTH 0 0
DWIDTH 0 0
BBX 5 6 -2 19
BITMAP
08
18
10
20
40
80
ENDCHAR
STARTCHAR 0302
ENCODING 770
SWIDTH 0 0
DWIDTH 0 0
BBX 10 5 -5 19
BITMAP
0C00
1200
3300
6180
C0C0
ENDCHAR
STARTCHAR 0303
ENCODING 771
SWIDTH 0 0
DWIDTH 0 0
BBX 10 5 -5 19
BITMAP
7040
D840
8C40
86C0
8380
ENDCHAR
STARTCHAR 0304
ENCODING 772
SWIDTH 0 0
DWIDTH 0 0
BBX 8 1 -4 21
BITMAP
FF
ENDCHAR
STARTCHAR 0305
ENCODING 773
SWIDTH 0 0
DWIDTH 0 0
BBX 8 1 -4 21
BITMAP
FF
ENDCHAR
STARTCHAR 0306
ENCODING 774
SWIDTH 0 0
DWIDTH 0 0
BBX 10 5 -5 19
BITMAP
8040
C0C0
4080
6180
1E00
ENDCHAR
STARTCHAR 0307
ENCODING 775
SWIDTH 0 0
DWIDTH 0 0
BBX 2 2 -1 21
BITMAP
C0
C0
ENDCHAR
STARTCHAR 0308
ENCODING 776
SWIDTH 0 0
DWIDTH 0 0
BBX 8 2 -4 20
BITMAP
C3
C3
ENDCHAR
STARTCHAR 0309
ENCODING 777
SWIDTH 0 0
DWIDTH 0 0
BBX 4 5 -2 19
BITMAP
E0
30
10
10
60
ENDCHAR
STARTCHAR 030A
ENCODING 778
SWIDTH 0 0
DWIDTH 0 0
BBX 6 7 -3 18
BITMAP
38
CC
84
84
84
CC
78
ENDCHAR
STARTCHAR 030B
ENCODING 779
SWIDTH 0 0
DWIDTH 0 0
BBX 9 6 -3 19
BITMAP
1180
1100
2300
2200
4600
C400
ENDCHAR
STARTCHAR 030C
ENCODING 780
SWIDTH 0 0
DWIDTH 0 0
BBX 8 5 -4 19
BITMAP
81
C3
66
3C
18
ENDCHAR
STARTCHAR 030F
ENCODING 783
SWIDTH 0 0
DWIDTH 0 0
BBX 9 6 -6 19
BITMAP
8400
4400
6200
2200
3100
1180
ENDCHAR
STARTCHAR 0311
ENCODING 785
SWIDTH 0 0
DWIDTH 0 0
BBX 10 5 -5 19
BITMAP
1E00
6180
4080
C0C0
8040
ENDCHAR
STARTCHAR 0312
ENCODING 786
SWIDTH 0 0
DWIDTH 0 0
BBX 2 5 -1 19
BITMAP
40
80
80
C0
C0
ENDCHAR
STARTCHAR 0313
ENCODING 787
SWIDTH 0 0
DWIDTH 0 0
BBX 2 5 -1 18
BITMAP
C0
C0
40
40
C0
ENDCHAR
STARTCHAR 0318
ENCODING 792
SWIDTH 0 0
DWIDTH 0 0
BBX 5 6 -2 -8
BITMAP
18
18
18
F8
18
18
ENDCHAR
STARTCHAR 0319
ENCODING 793
SWIDTH 0 0
DWIDTH 0 0
BBX 5 6 -3 -8
BITMAP
C0
C0
C0
F8
C0
C0
ENDCHAR
STARTCHAR 031A
ENCODING 794
SWIDTH 0 0
DWIDTH 0 0
BBX 5 5 -2 19
BITMAP
F8
18
18
18
18
ENDCHAR
STARTCHAR 031B
ENCODING 795
SWIDTH 0 0
DWIDTH 0 0
BBX 4 6 0 15
BITMAP
10
10
10
10
30
E0
ENDCHAR
STARTCHAR 031C
ENCODING 796
SWIDTH 0 0
DWIDTH 0 0
BBX 4 7 -2 -9
BITMAP
30
40
80
80
80
40
30
ENDCHAR
STARTCHAR 031D
ENCODING 797
SWIDTH 0 0
DWIDTH 0 0
BBX 6 5 -3 -7
BITMAP
30
30
30
30
FC
ENDCHAR
STARTCHAR 031E
ENCODING 798
SWIDTH 0 0
DWIDTH 0 0
BBX 6 5 -3 -9
BITMAP
FC
30
30
30
30
ENDCHAR
STARTCHAR 031F
ENCODING 799
SWIDTH 0 0
DWIDTH 0 0
BBX 6 6 -3 -8
BITMAP
30
30
30
FC
30
30
ENDCHAR
STARTCHAR 0320
ENCODING 800
SWIDTH 0 0
DWIDTH 0 0
BBX 6 1 -3 -6
BITMAP
FC
ENDCHAR
STARTCHAR 0323
ENCODING 803
SWIDTH 0 0
DWIDTH 0 0
BBX 2 2 -1 -7
BITMAP
C0
C0
ENDCHAR
STARTCHAR 0324
ENCODING 804
SWIDTH 0 0
DWIDTH 0 0
BBX 8 2 -4 -6
BITMAP
C3
C3
ENDCHAR
STARTCHAR 0325
ENCODING 805
SWIDTH 0 0
DWIDTH 0 0
BBX 6 7 -3 -9
BITMAP
38
CC
84
84
84
CC
78
ENDCHAR
STARTCHAR 0326
ENCODING 806
SWIDTH 0 0
DWIDTH 0 0
BBX 5 5 -3 -7
BITMAP
70
08
08
18
E0
ENDCHAR
STARTCHAR 0327
ENCODING 807
SWIDTH 0 0
DWIDTH 0 0
BBX 5 7 -3 -7
BITMAP
30
20
70
08
08
18
E0
ENDCHAR
STARTCHAR 0328
ENCODING 808
SWIDTH 0 0
DWIDTH 0 0
BBX 5 7 -2 -7
BITMAP
30
60
40
C0
C0
C8
78
ENDCHAR
STARTCHAR 0329
ENCODING 809
SWIDTH 0 0
DWIDTH 0 0
BBX 2 6 -1 -9
BITMAP
C0
C0
C0
C0
C0
C0
ENDCHAR
STARTCHAR 032A
ENCODING 810
SWIDTH 0 0
DWIDTH 0 0
BBX 8 5 -4 -8
BITMAP
FF
81
81
81
81
ENDCHAR
STARTCHAR 032C
ENCODING 812
SWIDTH 0 0
DWIDTH 0 0
BBX 8 5 -4 -7
BITMAP
81
C3
66
3C
18
ENDCHAR
STARTCHAR 032E
ENCODING 814
SWIDTH 0 0
DWIDTH 0 0
BBX 10 5 -5 -8
BITMAP
8040
C0C0
4080
6180
1E00
ENDCHAR
STARTCHAR 032F
ENCODING 815
SWIDTH 0 0
DWIDTH 0 0
BBX 10 5 -5 -8
BITMAP
1F00
6180
4080
C0C0
8040
ENDCHAR
STARTCHAR 0330
ENCODING 816
SWIDTH 0 0
DWIDTH 0 0
BBX 10 4 -5 -7
BITMAP
7040
8840
86C0
8380
ENDCHAR
STARTCHAR 0331
ENCODING 817
SWIDTH 0 0
DWIDTH 0 0
BBX 8 1 -4 -5
BITMAP
FF
ENDCHAR
STARTCHAR 0334
ENCODING 820
SWIDTH 0 0
DWIDTH 0 0
BBX 10 4 -5 7
BITMAP
7040
D840
8440
8380
ENDCHAR
STARTCHAR 0339
ENCODING 825
SWIDTH 0 0
DWIDTH 0 0
BBX 4 7 -2 -9
BITMAP
C0
20
10
10
10
20
C0
ENDCHAR
STARTCHAR 033A
ENCODING 826
SWIDTH 0 0
DWIDTH 0 0
BBX 8 5 -4 -8
BITMAP
81
81
81
81
FF
ENDCHAR
STARTCHAR 033B
ENCODING 827
SWIDTH 0 0
DWIDTH 0 0
BBX 8 5 -4 -8
BITMAP
FF
81
81
81
FF
ENDCHAR
STARTCHAR 033C
ENCODING 828
SWIDTH 0 0
DWIDTH 0 0
BBX 10 5 -5 -7
BITMAP
7380
CCC0
8C40
8C40
8C40
ENDCHAR
STARTCHAR 033D
ENCODING 829
SWIDTH 0 0
DWIDTH 0 0
BBX 4 5 -2 19
BITMAP
90
F0
60
F0
90
ENDCHAR
STARTCHAR 0342
ENCODING 834
SWIDTH 0 0
DWIDTH 0 0
BBX 10 5 -5 19
BITMAP
7040
D840
8C40
86C0
8380
ENDCHAR
STARTCHAR 0345
ENCODING 837
SWIDTH 0 0
DWIDTH 0 0
BBX 3 4 -1 -6
BITMAP
C0
C0
C0
60
ENDCHAR
STARTCHAR 0361
ENCODING 865
SWIDTH 0 0
DWIDTH 0 0
BBX 30 5 -15 19
BITMAP
003FF000
03E01F00
1C0000E0
70000038
C000000C
ENDCHAR
STARTCHAR 0374
ENCODING 884
SWIDTH 210 0
DWIDTH 7 0
BBX 2 7 3 16
BITMAP
C0
C0
C0
80
80
80
80
ENDCHAR
STARTCHAR 0375
ENCODING 885
SWIDTH 210 0
DWIDTH 7 0
BBX 3 7 2 0
BITMAP
20
40
40
40
40
40
C0
ENDCHAR
STARTCHAR 037A
ENCODING 890
SWIDTH 540 0
DWIDTH 18 0
BBX 3 4 9 -6
BITMAP
80
80
80
E0
ENDCHAR
STARTCHAR 037E
ENCODING 894
SWIDTH 210 0
DWIDTH 7 0
BBX 3 21 2 -5
BITMAP
60
E0
60
00
00
00
00
00
00
00
00
00
00
60
E0
60
20
20
60
C0
80
ENDCHAR
STARTCHAR 0384
ENCODING 900
SWIDTH 540 0
DWIDTH 18 0
BBX 3 6 8 18
BITMAP
20
60
60
40
40
C0
ENDCHAR
STARTCHAR 0385
ENCODING 901
SWIDTH 540 0
DWIDTH 18 0
BBX 9 6 5 18
BITMAP
0400
0C00
0800
C980
C980
1000
ENDCHAR
STARTCHAR 0386
ENCODING 902
SWIDTH 540 0
DWIDTH 18 0
BBX 17 22 0 0
BITMAP
60C000
60C000
41E000
412000
412000
C33000
021000
021000
061800
040800
0C0800
0C0C00
080400
1FFC00
180600
100200
300300
300300
200100
600180
400180
400080
ENDCHAR
STARTCHAR 0387
ENCODING 903
SWIDTH 210 0
DWIDTH 7 0
BBX 3 3 2 12
BITMAP
60
E0
60
ENDCHAR
STARTCHAR 0388
ENCODING 904
SWIDTH 540 0
DWIDTH 18 0
BBX 18 22 -1 0
BITMAP
67FF80
460000
460000
460000
C60000
860000
060000
060000
060000
060000
07FF00
060000
060000
060000
060000
060000
060000
060000
060000
060000
060000
07FFC0
ENDCHAR
STARTCHAR 0389
ENCODING 905
SWIDTH 660 0
DWIDTH 22 0
BBX 20 22 -1 0
BITMAP
660010
460010
460010
460010
C60010
860010
060010
060010
060010
060010
07FFF0
060010
060010
060010
060010
060010
060010
060010
060010
060010
060010
060010
ENDCHAR
STARTCHAR 038A
ENCODING 906
SWIDTH 270 0
DWIDTH 9 0
BBX 7 22 -1 0
BITMAP
66
46
46
46
C6
86
06
06
06
06
06
06
06
06
06
06
06
06
06
06
06
06
ENDCHAR
STARTCHAR 038C
ENCODING 908
SWIDTH 660 0
DWIDTH 22 0
BBX 22 22 -1 0
BITMAP
603F00
40F7C0
4180E0
430070
C60030
C40018
0C0018
0C0008
080008
08000C
08000C
08000C
08000C
080008
0C0008
0C0018
040018
060030
030020
0380E0
00F380
003E00
ENDCHAR
STARTCHAR 038E
ENCODING 910
SWIDTH 540 0
DWIDTH 18 0
BBX 19 22 -1 0
BITMAP
6C0060
460040
4600C0
430080
C30180
810100
018300
008200
00C600
004400
006C00
002800
003800
001000
001000
001000
001000
001000
001000
001000
001000
001000
ENDCHAR
STARTCHAR 038F
ENCODING 911
SWIDTH 690 0
DWIDTH 23 0
BBX 22 22 -1 0
BITMAP
603F00
40F7C0
4180E0
430030
C60030
C40018
0C0018
0C0008
08000C
08000C
08000C
08000C
08000C
0C0008
0C0008
0C0018
060010
060030
030020
018040
00C080
1FC1FC
ENDCHAR
STARTCHAR 0390
ENCODING 912
SWIDTH 240 0
DWIDTH 8 0
BBX 9 25 -1 0
BITMAP
0600
0400
0400
4D80
C980
0800
0000
0000
0000
0C00
0C00
0C00
0C00
0C00
0C00
0C00
0800
0800
0800
0800
0800
0800
0800
0C00
0700
ENDCHAR
STARTCHAR 0391
ENCODING 913
SWIDTH 540 0
DWIDTH 18 0
BBX 17 22 0 0
BITMAP
00C000
01C000
014000
016000
032000
022000
023000
061000
041800
041800
0C0800
080C00
080C00
1FFC00
100600
100600
300200
200300
600300
600100
400180
C00180
ENDCHAR
STARTCHAR 0392
ENCODING 914
SWIDTH 570 0
DWIDTH 19 0
BBX 15 22 3 0
BITMAP
FFC0
C0F0
C018
C018
C008
C008
C008
C018
C010
C0E0
FFE0
C038
C00C
C004
C006
C006
C006
C006
C00C
C018
C070
FFC0
ENDCHAR
STARTCHAR 0393
ENCODING 915
SWIDTH 480 0
DWIDTH 16 0
BBX 12 22 3 0
BITMAP
FFF0
C000
C000
C000
C000
C000
C000
C000
C000
C000
C000
C000
C000
C000
C000
C000
C000
C000
C000
C000
C000
C000
ENDCHAR
STARTCHAR 0394
ENCODING 916
SWIDTH 570 0
DWIDTH 19 0
BBX 17 22 1 0
BITMAP
018000
01C000
014000
034000
026000
062000
062000
043000
0C1000
0C1800
081800
180800
100C00
100C00
300400
200600
200600
600200
400300
C00100
C00100
FFFF80
ENDCHAR
STARTCHAR 0395
ENCODING 917
SWIDTH 510 0
DWIDTH 17 0
BBX 13 22 3 0
BITMAP
FFF0
C000
C000
C000
C000
C000
C000
C000
C000
C000
FFE0
C000
C000
C000
C000
C000
C000
C000
C000
C000
C000
FFF8
ENDCHAR
STARTCHAR 0396
ENCODING 918
SWIDTH 540 0
DWIDTH 18 0
BBX 14 22 2 0
BITMAP
7FFC
000C
0008
0018
0030
0020
0060
00C0
0080
0180
0300
0200
0600
0400
0C00
1800
1000
3000
6000
4000
C000
FFFC
ENDCHAR
STARTCHAR 0397
ENCODING 919
SWIDTH 630 0
DWIDTH 21 0
BBX 15 22 3 0
BITMAP
C002
C002
C002
C002
C002
C002
C002
C002
C002
C002
FFFE
C002
C002
C002
C002
C002
C002
C002
C002
C002
C002
C002
ENDCHAR
STARTCHAR 0398
ENCODING 920
SWIDTH 660 0
DWIDTH 22 0
BBX 18 22 2 0
BITMAP
03F000
0F3C00
180600
300300
600100
600180
400080
C000C0
C000C0
C000C0
87F8C0
8000C0
C000C0
C000C0
C000C0
400080
600180
600100
300300
180600
0F3C00
03F000
ENDCHAR
STARTCHAR 0399
ENCODING 921
SWIDTH 240 0
DWIDTH 8 0
BBX 2 22 3 0
BITMAP
C0
C0
C0
C0
C0
C0
C0
C0
C0
C0
C0
C0
C0
C0
C0
C0
C0
C0
C0
C0
C0
C0
ENDCHAR
STARTCHAR 039A
ENCODING 922
SWIDTH 570 0
DWIDTH 19 0
BBX 15 22 3 0
BITMAP
C00C
C018
C030
C060
C040
C0C0
C180
C300
C700
CF00
D980
F180
E0C0
E040
C060
C030
C030
C018
C018
C00C
C004
C006
ENDCHAR
STARTCHAR 039B
ENCODING 923
SWIDTH 480 0
DWIDTH 16 0
BBX 16 22 0 0
BITMAP
0180
0180
01C0
0340
0240
0260
0620
0420
0430
0C10
0810
0818
1808
1008
100C
3004
2004
2006
6006
4002
4003
C003
ENDCHAR
STARTCHAR 039C
ENCODING 924
SWIDTH 720 0
DWIDTH 24 0
BBX 17 22 3 0
BITMAP
E00180
E00180
E00380
F00280
D00280
D00680
D80480
C80C80
C80880
CC0880
C41880
C41080
C61080
C23080
C32080
C12080
C16080
C1C080
C0C080
C0C080
C00080
C00080
ENDCHAR
STARTCHAR 039D
ENCODING 925
SWIDTH 630 0
DWIDTH 21 0
BBX 15 22 3 0
BITMAP
C006
E006
E006
F006
D806
C806
CC06
C406
C606
C306
C306
C186
C086
C0C6
C042
C062
C032
C012
C01A
C00A
C00E
C006
ENDCHAR
STARTCHAR 039E
ENCODING 926
SWIDTH 510 0
DWIDTH 17 0
BBX 13 22 2 0
BITMAP
FFF8
0000
0000
0000
0000
0000
0000
0000
0000
0000
3FE0
0000
0000
0000
0000
0000
0000
0000
0000
0000
0000
FFF8
ENDCHAR
STARTCHAR 039F
ENCODING 927
SWIDTH 660 0
DWIDTH 22 0
BBX 18 22 2 0
BITMAP
03F000
0F3C00
180600
300300
600100
600180
400080
C000C0
C000C0
C000C0
8000C0
8000C0
C000C0
C000C0
C000C0
400080
600180
600100
300300
180600
0F3C00
03F000
ENDCHAR
STARTCHAR 03A0
ENCODING 928
SWIDTH 630 0
DWIDTH 21 0
BBX 15 22 3 0
BITMAP
FFFE
C006
C006
C006
C006
C006
C006
C006
C006
C006
C006
C006
C006
C006
C006
C006
C006
C006
C006
C006
C006
C006
ENDCHAR
STARTCHAR 03A1
ENCODING 929
SWIDTH 540 0
DWIDTH 18 0
BBX 14 22 3 0
BITMAP
FFC0
C0F0
C018
C008
C00C
C00C
C00C
C00C
C008
C018
C070
FFC0
C000
C000
C000
C000
C000
C000
C000
C000
C000
C000
ENDCHAR
STARTCHAR 03A3
ENCODING 931
SWIDTH 540 0
DWIDTH 18 0
BBX 14 22 2 0
BITMAP
FFF8
C000
6000
2000
1000
1800
0C00
0600
0200
0300
0180
0180
0300
0600
0400
0C00
1800
3000
2000
4000
C000
FFFC
ENDCHAR
STARTCHAR 03A4
ENCODING 932
SWIDTH 510 0
DWIDTH 17 0
BBX 15 22 1 0
BITMAP
FFFE
0100
0100
0100
0100
0100
0100
0100
0100
0100
0100
0100
0100
0100
0100
0100
0100
0100
0100
0100
0100
0100
ENDCHAR
STARTCHAR 03A5
ENCODING 933
SWIDTH 450 0
DWIDTH 15 0
BBX 15 22 0 0
BITMAP
C006
4004
600C
2008
3018
1010
1830
0820
0C40
0440
0680
0280
0300
0100
0100
0100
0100
0100
0100
0100
0100
0100
ENDCHAR
STARTCHAR 03A6
ENCODING 934
SWIDTH 690 0
DWIDTH 23 0
BBX 20 23 2 -1
BITMAP
004000
004000
004000
03FC00
1E4F00
304180
6040C0
C04060
C04020
804020
804030
804030
804020
C04020
C04060
604040
304180
1C4700
07FC00
004000
004000
004000
004000
ENDCHAR
STARTCHAR 03A7
ENCODING 935
SWIDTH 480 0
DWIDTH 16 0
BBX 14 22 1 0
BITMAP
C00C
6008
6018
3010
1020
1860
0840
0CC0
0680
0780
0300
0300
0580
0CC0
0840
1860
1020
3030
2010
6018
C00C
8004
ENDCHAR
STARTCHAR 03A8
ENCODING 936
SWIDTH 660 0
DWIDTH 22 0
BBX 18 22 2 0
BITMAP
C0C0C0
C0C0C0
C0C0C0
C0C0C0
C0C0C0
C0C0C0
C0C0C0
C0C0C0
40C0C0
60C180
30C180
1CC700
0FFC00
00C000
00C000
00C000
00C000
00C000
00C000
00C000
00C000
00C000
ENDCHAR
STARTCHAR 03A9
ENCODING 937
SWIDTH 660 0
DWIDTH 22 0
BBX 18 22 2 0
BITMAP
03F000
0F3C00
180600
300300
600180
600180
400080
C000C0
C000C0
C000C0
C000C0
C000C0
C000C0
C000C0
C00080
400080
600180
200100
300300
180600
0C0C00
FE1FC0
ENDCHAR
STARTCHAR 03AA
ENCODING 938
SWIDTH 240 0
DWIDTH 8 0
BBX 8 26 0 0
BITMAP
C3
C3
00
00
18
18
18
18
18
18
18
18
18
18
18
18
18
18
18
18
18
18
18
18
18
18
ENDCHAR
STARTCHAR 03AB
ENCODING 939
SWIDTH 450 0
DWIDTH 15 0
BBX 15 26 0 0
BITMAP
1830
1830
0000
0000
C006
4004
600C
2008
3018
1010
1830
0820
0C40
0440
0680
0280
0300
0100
0100
0100
0100
0100
0100
0100
0100
0100
ENDCHAR
STARTCHAR 03AC
ENCODING 940
SWIDTH 540 0
DWIDTH 18 0
BBX 15 25 2 0
BITMAP
00C0
00C0
0080
0180
0100
0100
0100
0000
0000
0F84
1CC4
302C
603C
C018
C018
8018
8018
8018
8018
C010
C010
C030
6050
3998
1F0E
ENDCHAR
STARTCHAR 03AD
ENCODING 941
SWIDTH 450 0
DWIDTH 15 0
BBX 11 25 2 0
BITMAP
0180
0100
0300
0300
0200
0200
0400
0000
0000
1F80
31E0
6020
4000
4000
6000
3000
1F00
7000
C000
8000
8000
8000
C020
70E0
1F80
ENDCHAR
STARTCHAR 03AE
ENCODING 942
SWIDTH 540 0
DWIDTH 18 0
BBX 12 31 3 -6
BITMAP
0180
0180
0100
0300
0300
0200
0200
0000
0000
87C0
8CE0
9020
A030
C030
C030
C030
C030
C030
C030
C030
C030
C030
C030
C030
C030
0030
0030
0030
0030
0030
0030
ENDCHAR
STARTCHAR 03AF
ENCODING 943
SWIDTH 240 0
DWIDTH 8 0
BBX 4 25 3 0
BITMAP
20
60
60
40
40
C0
00
00
00
C0
C0
C0
C0
C0
C0
C0
80
80
80
80
80
80
80
C0
70
ENDCHAR
STARTCHAR 03B0
ENCODING 944
SWIDTH 510 0
DWIDTH 17 0
BBX 12 25 2 0
BITMAP
0300
0200
0200
66C0
64C0
0400
0400
0000
0000
C020
4030
4030
4030
4010
4010
4010
C010
C010
C010
C010
4030
4030
6060
39C0
1F80
ENDCHAR
STARTCHAR 03B1
ENCODING 945
SWIDTH 540 0
DWIDTH 18 0
BBX 15 16 2 0
BITMAP
0F84
1CC4
302C
603C
C018
C018
8018
8018
8018
8018
C010
C010
C030
6050
3998
1F0E
ENDCHAR
STARTCHAR 03B2
ENCODING 946
SWIDTH 540 0
DWIDTH 18 0
BBX 14 30 3 -6
BITMAP
0F00
39C0
6060
4020
C020
C020
8020
8060
8060
80C0
8300
87C0
8070
8010
8018
8008
800C
800C
8008
8008
C018
E030
BCE0
8FC0
8000
8000
8000
8000
8000
8000
ENDCHAR
STARTCHAR 03B3
ENCODING 947
SWIDTH 450 0
DWIDTH 15 0
BBX 14 22 0 -6
BITMAP
C004
6004
2004
300C
1808
1808
0818
0C10
0410
0630
0620
0260
0240
0380
0180
0100
0100
0100
0100
0100
0100
0100
ENDCHAR
STARTCHAR 03B4
ENCODING 948
SWIDTH 510 0
DWIDTH 17 0
BBX 14 24 2 0
BITMAP
0FE0
1878
3000
2000
3000
1000
1800
0E00
0300
03C0
0E60
1830
2018
4018
C008
C00C
800C
C00C
C008
C008
6018
3030
1CE0
0FC0
ENDCHAR
STARTCHAR 03B5
ENCODING 949
SWIDTH 450 0
DWIDTH 15 0
BBX 11 16 2 0
BITMAP
1F80
31E0
6020
4000
4000
6000
3000
1F00
7000
C000
8000
8000
8000
C020
70E0
1F80
ENDCHAR
STARTCHAR 03B6
ENCODING 950
SWIDTH 390 0
DWIDTH 13 0
BBX 11 30 2 -6
BITMAP
7FE0
0060
0080
0100
0200
0600
0C00
1800
1000
3000
2000
6000
4000
C000
C000
8000
8000
8000
C000
C000
C000
6000
3800
1F80
01E0
0060
0020
0020
0040
00C0
ENDCHAR
STARTCHAR 03B7
ENCODING 951
SWIDTH 540 0
DWIDTH 18 0
BBX 12 22 3 -6
BITMAP
87C0
8CE0
9020
A030
C030
C030
C030
C030
C030
C030
C030
C030
C030
C030
C030
C030
0030
0030
0030
0030
0030
0030
ENDCHAR
STARTCHAR 03B8
ENCODING 952
SWIDTH 510 0
DWIDTH 17 0
BBX 13 24 2 0
BITMAP
0F80
19C0
3060
2020
6030
4030
4010
4010
C018
C018
C018
FFF8
C018
C018
C018
C018
4010
4010
6010
6030
2020
3060
18C0
0F80
ENDCHAR
STARTCHAR 03B9
ENCODING 953
SWIDTH 240 0
DWIDTH 8 0
BBX 4 16 3 0
BITMAP
C0
C0
C0
C0
C0
C0
C0
80
80
80
80
80
80
80
C0
70
ENDCHAR
STARTCHAR 03BA
ENCODING 954
SWIDTH 450 0
DWIDTH 15 0
BBX 12 16 3 0
BITMAP
8030
8060
C0C0
C100
C200
C400
CC00
D400
D200
E300
C100
C180
C0C0
C040
C020
8030
ENDCHAR
STARTCHAR 03BB
ENCODING 955
SWIDTH 450 0
DWIDTH 15 0
BBX 14 24 1 0
BITMAP
F000
9800
0C00
0400
0600
0200
0300
0100
0300
0380
0680
0480
04C0
0840
0860
1860
1020
3030
2010
2010
6018
4008
C008
800C
ENDCHAR
STARTCHAR 03BC
ENCODING 956
SWIDTH 540 0
DWIDTH 18 0
BBX 14 22 3 -6
BITMAP
C030
C030
C030
C030
C030
C030
C030
C030
C030
C030
C030
C030
C070
C0F0
B1B0
9E1C
8000
8000
8000
8000
C000
C000
ENDCHAR
STARTCHAR 03BD
ENCODING 957
SWIDTH 450 0
DWIDTH 15 0
BBX 14 16 0 0
BITMAP
C004
600C
200C
3008
1008
1818
0818
0C10
0C30
0420
0620
0660
0240
02C0
0380
0100
ENDCHAR
STARTCHAR 03BE
ENCODING 958
SWIDTH 420 0
DWIDTH 14 0
BBX 13 30 1 -6
BITMAP
FFF0
0600
0800
1800
1000
3000
3000
1000
1800
0C00
0600
07E0
0C00
1000
2000
6000
4000
4000
4000
6000
6000
3000
1800
0F80
01F0
0030
0018
0010
0030
0020
ENDCHAR
STARTCHAR 03BF
ENCODING 959
SWIDTH 510 0
DWIDTH 17 0
BBX 14 16 2 0
BITMAP
0F80
3CE0
6030
6018
C008
C008
800C
800C
800C
800C
C008
C008
6018
6030
38E0
0F80
ENDCHAR
STARTCHAR 03C0
ENCODING 960
SWIDTH 570 0
DWIDTH 19 0
BBX 17 16 1 0
BITMAP
FFFF80
080800
080800
080800
080800
080800
080800
180800
180800
180800
180800
180800
100800
100800
100C00
100700
ENDCHAR
STARTCHAR 03C1
ENCODING 961
SWIDTH 540 0
DWIDTH 18 0
BBX 13 22 3 -6
BITMAP
0F80
3CE0
6030
4010
C018
C018
8008
8008
8008
8008
8018
8018
C030
E020
B8C0
8F80
8000
8000
8000
8000
8000
8000
ENDCHAR
STARTCHAR 03C2
ENCODING 962
SWIDTH 420 0
DWIDTH 14 0
BBX 10 22 2 -6
BITMAP
0F80
3CC0
6040
4000
C000
C000
8000
8000
8000
8000
C000
C000
6000
3000
1E00
0780
01C0
00C0
00C0
00C0
0080
0100
ENDCHAR
STARTCHAR 03C3
ENCODING 963
SWIDTH 540 0
DWIDTH 18 0
BBX 15 16 2 0
BITMAP
0FFE
3CC0
6030
4010
C018
C008
8008
8008
8008
8008
C008
C018
6010
7030
38E0
0F80
ENDCHAR
STARTCHAR 03C4
ENCODING 964
SWIDTH 450 0
DWIDTH 15 0
BBX 13 16 1 0
BITMAP
FFF8
0200
0200
0200
0200
0200
0200
0200
0200
0200
0200
0200
0200
0200
0300
03C0
ENDCHAR
STARTCHAR 03C5
ENCODING 965
SWIDTH 510 0
DWIDTH 17 0
BBX 12 16 2 0
BITMAP
C020
4030
4030
4030
4010
4010
4010
C010
C010
C010
C010
4030
4030
6060
39C0
1F80
ENDCHAR
STARTCHAR 03C6
ENCODING 966
SWIDTH 660 0
DWIDTH 22 0
BBX 18 26 2 -6
BITMAP
008000
008000
008000
008000
07F000
1C9E00
308300
608180
408180
C080C0
8080C0
8080C0
8080C0
8080C0
C08080
408180
608100
308300
1C9C00
07F000
008000
008000
008000
008000
008000
008000
ENDCHAR
STARTCHAR 03C7
ENCODING 967
SWIDTH 450 0
DWIDTH 15 0
BBX 15 23 0 -7
BITMAP
C00C
6008
2018
3010
1830
1820
0C60
0640
06C0
0380
0180
0180
0280
06C0
0460
0C20
0830
1810
1018
300C
600C
4006
4002
ENDCHAR
STARTCHAR 03C8
ENCODING 968
SWIDTH 660 0
DWIDTH 22 0
BBX 18 26 2 -6
BITMAP
008000
008000
008000
008000
C08100
C08180
C08180
C08080
C08080
C080C0
C080C0
C080C0
C080C0
408080
408080
408180
608100
308300
1E9C00
07F000
008000
008000
008000
008000
008000
008000
ENDCHAR
STARTCHAR 03C9
ENCODING 969
SWIDTH 660 0
DWIDTH 22 0
BBX 19 16 2 0
BITMAP
100300
300180
200180
6000C0
4000C0
C00040
C0C040
80C060
80C060
80C060
C0C040
C0C040
40C0C0
60E0C0
333380
1E1F00
ENDCHAR
STARTCHAR 03CA
ENCODING 970
SWIDTH 240 0
DWIDTH 8 0
BBX 8 22 0 0
BITMAP
C3
C3
00
00
00
00
18
18
18
18
18
18
18
10
10
10
10
10
10
10
18
0E
ENDCHAR
STARTCHAR 03CB
ENCODING 971
SWIDTH 510 0
DWIDTH 17 0
BBX 12 22 2 0
BITMAP
30C0
30C0
0000
0000
0000
0000
C020
4030
4030
4030
4010
4010
4010
C010
C010
C010
C010
4030
4030
6060
39C0
1F80
ENDCHAR
STARTCHAR 03CC
ENCODING 972
SWIDTH 510 0
DWIDTH 17 0
BBX 14 25 2 0
BITMAP
0080
0180
0180
0100
0100
0300
0200
0000
0000
0F80
3CE0
6030
6018
C008
C008
800C
800C
800C
800C
C008
C008
6018
6030
38E0
0F80
ENDCHAR
STARTCHAR 03CD
ENCODING 973
SWIDTH 510 0
DWIDTH 17 0
BBX 12 25 2 0
BITMAP
0100
0300
0300
0200
0200
0600
0400
0000
0000
C020
4030
4030
4030
4010
4010
4010
C010
C010
C010
C010
4030
4030
6060
39C0
1F80
ENDCHAR
STARTCHAR 03CE
ENCODING 974
SWIDTH 660 0
DWIDTH 22 0
BBX 19 25 2 0
BITMAP
003000
002000
002000
006000
004000
004000
004000
000000
000000
100300
300180
200180
6000C0
4000C0
C00040
C0C040
80C060
80C060
80C060
C0C040
C0C040
40C0C0
60E0C0
333380
1E1F00
ENDCHAR
STARTCHAR 03D0
ENCODING 976
SWIDTH 540 0
DWIDTH 18 0
BBX 13 24 3 0
BITMAP
1F00
39C0
6060
4060
C020
C020
8020
8060
8040
8080
8300
BFC0
E060
8030
8018
8008
8008
8008
C008
C008
6018
7030
3CE0
0FC0
ENDCHAR
STARTCHAR 03D1
ENCODING 977
SWIDTH 510 0
DWIDTH 17 0
BBX 12 24 3 0
BITMAP
1E00
7380
C0C0
8040
8060
8020
8020
8020
C030
6030
3030
0FF0
0030
0030
C030
C020
C020
C020
C020
C060
C040
60C0
7380
1F00
ENDCHAR
STARTCHAR 03D5
ENCODING 981
SWIDTH 660 0
DWIDTH 22 0
BBX 18 22 2 -6
BITMAP
103C00
306700
604180
60C180
C0C080
C080C0
8080C0
8080C0
8080C0
8080C0
C08080
C08180
608100
308300
1C9C00
07F000
008000
008000
008000
00C000
00C000
00C000
ENDCHAR
STARTCHAR 03D7
ENCODING 983
SWIDTH 450 0
DWIDTH 15 0
BBX 12 23 3 -7
BITMAP
8030
8070
C0C0
C100
C200
C400
CC00
DC00
D600
E200
E100
C180
C080
C0C0
C060
8030
0010
0030
0020
0040
00C0
0180
0100
ENDCHAR
STARTCHAR 03D9
ENCODING 985
SWIDTH 510 0
DWIDTH 17 0
BBX 14 22 2 -6
BITMAP
0F80
3CE0
6030
6018
C008
C008
800C
800C
800C
800C
C008
C008
4018
6030
38E0
0F80
0300
0300
0300
0300
0300
0300
ENDCHAR
STARTCHAR 03DB
ENCODING 987
SWIDTH 450 0
DWIDTH 15 0
BBX 12 22 2 -6
BITMAP
0FF0
1C00
7000
6000
C000
C000
8000
8000
8000
8000
C000
C000
6000
7000
1C00
0F80
00C0
0060
0020
0060
0040
00C0
ENDCHAR
STARTCHAR 03DD
ENCODING 989
SWIDTH 390 0
DWIDTH 13 0
BBX 10 22 3 -6
BITMAP
FFC0
8000
8000
8000
8000
8000
8000
8000
8000
8000
FF80
C000
C000
C000
C000
C000
C000
C000
C000
C000
C000
C000
ENDCHAR
STARTCHAR 03E1
ENCODING 993
SWIDTH 480 0
DWIDTH 16 0
BBX 14 29 1 -6
BITMAP
4000
7000
1800
0C00
0600
0300
0180
0080
00C0
0060
0060
01F0
0730
3C10
E018
8008
0038
00E8
038C
0E0C
380C
000C
000C
000C
000C
000C
000C
000C
0008
ENDCHAR
STARTCHAR 0400
ENCODING 1024
SWIDTH 510 0
DWIDTH 17 0
BBX 13 28 3 0
BITMAP
1800
0C00
0600
0300
0000
0000
FFF0
C000
C000
C000
C000
C000
C000
C000
C000
C000
FFE0
C000
C000
C000
C000
C000
C000
C000
C000
C000
C000
FFF8
ENDCHAR
STARTCHAR 0401
ENCODING 1025
SWIDTH 510 0
DWIDTH 17 0
BBX 13 26 3 0
BITMAP
30E0
3060
0000
0000
FFF0
C000
C000
C000
C000
C000
C000
C000
C000
C000
FFE0
C000
C000
C000
C000
C000
C000
C000
C000
C000
C000
FFF8
ENDCHAR
STARTCHAR 0402
ENCODING 1026
SWIDTH 690 0
DWIDTH 23 0
BBX 20 22 1 0
BITMAP
FFFF00
030000
030000
030000
030000
030000
030000
030000
030000
03FF00
0301C0
030060
030060
030030
030030
030030
030030
030030
030020
030060
0309C0
030F00
ENDCHAR
STARTCHAR 0403
ENCODING 1027
SWIDTH 480 0
DWIDTH 16 0
BBX 12 28 3 0
BITMAP
00C0
0180
0300
0600
0000
0000
FFF0
C000
C000
C000
C000
C000
C000
C000
C000
C000
C000
C000
C000
C000
C000
C000
C000
C000
C000
C000
C000
C000
ENDCHAR
STARTCHAR 0404
ENCODING 1028
SWIDTH 570 0
DWIDTH 19 0
BBX 15 22 2 0
BITMAP
03F0
0F3C
1806
3000
6000
4000
C000
C000
C000
8000
FFE0
8000
8000
C000
C000
C000
4000
6000
3002
1806
0F3C
03F0
ENDCHAR
STARTCHAR 0405
ENCODING 1029
SWIDTH 510 0
DWIDTH 17 0
BBX 14 22 2 0
BITMAP
0FC0
1CF0
2018
6000
4000
4000
6000
6000
3800
1E00
0780
01E0
0030
0018
000C
000C
000C
000C
800C
E018
3CF0
0FC0
ENDCHAR
STARTCHAR 0406
ENCODING 1030
SWIDTH 240 0
DWIDTH 8 0
BBX 2 22 3 0
BITMAP
C0
C0
C0
C0
C0
C0
C0
C0
C0
C0
C0
C0
C0
C0
C0
C0
C0
C0
C0
C0
C0
C0
ENDCHAR
STARTCHAR 0407
ENCODING 1031
SWIDTH 240 0
DWIDTH 8 0
BBX 8 26 0 0
BITMAP
C3
C3
00
00
18
18
18
18
18
18
18
18
18
18
18
18
18
18
18
18
18
18
18
18
18
18
ENDCHAR
STARTCHAR 0408
ENCODING 1032
SWIDTH 450 0
DWIDTH 15 0
BBX 10 22 2 0
BITMAP
0040
0040
0040
0040
0040
0040
0040
0040
0040
0040
0040
0040
0040
0040
0040
0040
0040
0040
80C0
C080
7780
3E00
ENDCHAR
STARTCHAR 0409
ENCODING 1033
SWIDTH 900 0
DWIDTH 30 0
BBX 28 22 0 0
BITMAP
01FF8000
01818000
01018000
01018000
01018000
03018000
03018000
03018000
02018000
02018000
0201FF80
060180E0
06018060
04018030
04018010
04018010
0C018010
0C018030
08018030
18018060
700183C0
E001FF00
ENDCHAR
STARTCHAR 040A
ENCODING 1034
SWIDTH 930 0
DWIDTH 31 0
BBX 26 22 3 0
BITMAP
C0060000
C0060000
C0060000
C0060000
C0060000
C0060000
C0060000
C0060000
C0060000
C0060000
FFFFFE00
C0060380
C00600C0
C00600C0
C0060040
C0060040
C0060040
C0060040
C00600C0
C0060180
C0060F00
C007FC00
ENDCHAR
STARTCHAR 040B
ENCODING 1035
SWIDTH 690 0
DWIDTH 23 0
BBX 19 22 1 0
BITMAP
FFFF00
030000
030000
030000
030000
030000
030000
030000
030000
03FF00
0301C0
030060
030060
030020
030020
030020
030020
030020
030020
030020
030020
030020
ENDCHAR
STARTCHAR 040C
ENCODING 1036
SWIDTH 570 0
DWIDTH 19 0
BBX 15 28 3 0
BITMAP
0060
00C0
0180
0300
0000
0000
C00E
C01E
C010
C030
C060
C040
C0C0
C080
C180
C100
FF00
C300
C180
C0C0
C0C0
C060
C030
C010
C018
C00C
C004
C006
ENDCHAR
STARTCHAR 040D
ENCODING 1037
SWIDTH 630 0
DWIDTH 21 0
BBX 15 28 3 0
BITMAP
0C00
0600
0300
0180
0000
0000
C006
C006
C00E
C01A
C012
C032
C022
C062
C0C2
C082
C182
C102
C302
C602
C402
CC02
C802
D802
F002
E002
E002
C002
ENDCHAR
STARTCHAR 040E
ENCODING 1038
SWIDTH 480 0
DWIDTH 16 0
BBX 16 28 0 0
BITMAP
0810
0810
0C30
03C0
0000
0000
C003
6003
6002
2006
3004
100C
180C
0808
0C18
0C10
0430
0630
0220
0360
0140
01C0
0080
0180
0180
0300
1E00
3C00
ENDCHAR
STARTCHAR 040F
ENCODING 1039
SWIDTH 630 0
DWIDTH 21 0
BBX 15 28 3 -6
BITMAP
C006
C006
C006
C006
C006
C006
C006
C006
C006
C006
C006
C006
C006
C006
C006
C006
C006
C006
C006
C006
C006
FFFE
0100
0100
0100
0100
0100
0100
ENDCHAR
STARTCHAR 0410
ENCODING 1040
SWIDTH 540 0
DWIDTH 18 0
BBX 17 22 0 0
BITMAP
00C000
01C000
014000
016000
032000
022000
023000
061000
041800
041800
0C0800
080C00
080C00
1FFC00
100600
100600
300200
200300
600300
600100
400180
C00180
ENDCHAR
STARTCHAR 0411
ENCODING 1041
SWIDTH 570 0
DWIDTH 19 0
BBX 14 22 3 0
BITMAP
FFF8
C000
C000
C000
C000
C000
C000
C000
C000
C000
FFE0
C038
C00C
C00C
C004
C004
C004
C004
C00C
C018
C070
FFC0
ENDCHAR
STARTCHAR 0412
ENCODING 1042
SWIDTH 570 0
DWIDTH 19 0
BBX 15 22 3 0
BITMAP
FFC0
C0F0
C018
C018
C008
C008
C008
C018
C010
C0E0
FFE0
C038
C00C
C004
C006
C006
C006
C006
C00C
C018
C070
FFC0
ENDCHAR
STARTCHAR 0413
ENCODING 1043
SWIDTH 480 0
DWIDTH 16 0
BBX 12 22 3 0
BITMAP
FFF0
C000
C000
C000
C000
C000
C000
C000
C000
C000
C000
C000
C000
C000
C000
C000
C000
C000
C000
C000
C000
C000
ENDCHAR
STARTCHAR 0414
ENCODING 1044
SWIDTH 630 0
DWIDTH 21 0
BBX 19 28 1 -6
BITMAP
03FF00
020100
020100
020100
020100
060100
060100
040100
040100
040100
040100
0C0100
0C0100
080100
080100
080100
180100
180100
100100
300100
600100
FFFFE0
C00040
C00040
C00040
C00040
C00040
C00040
ENDCHAR
STARTCHAR 0415
ENCODING 1045
SWIDTH 510 0
DWIDTH 17 0
BBX 13 22 3 0
BITMAP
FFF0
C000
C000
C000
C000
C000
C000
C000
C000
C000
FFE0
C000
C000
C000
C000
C000
C000
C000
C000
C000
C000
FFF8
ENDCHAR
STARTCHAR 0416
ENCODING 1046
SWIDTH 780 0
DWIDTH 26 0
BBX 24 22 1 0
BITMAP
C01807
E0180F
301808
181818
181810
0C1830
0C1820
041860
061840
0218C0
03FF80
0218C0
061860
0C1860
081830
181810
101818
30180C
60180C
601806
C01802
801803
ENDCHAR
STARTCHAR 0417
ENCODING 1047
SWIDTH 540 0
DWIDTH 18 0
BBX 15 22 2 0
BITMAP
0FC0
3CF0
6018
0008
000C
000C
0008
0008
0018
00F0
0FE0
0038
000C
0004
0006
0006
0006
0006
800C
E018
3CF0
0FC0
ENDCHAR
STARTCHAR 0418
ENCODING 1048
SWIDTH 630 0
DWIDTH 21 0
BBX 15 22 3 0
BITMAP
C006
C006
C00E
C01A
C012
C032
C022
C062
C0C2
C082
C182
C102
C302
C602
C402
CC02
C802
D802
F002
E002
E002
C002
ENDCHAR
STARTCHAR 0419
ENCODING 1049
SWIDTH 630 0
DWIDTH 21 0
BBX 15 28 3 0
BITMAP
1810
0810
0C20
03C0
0000
0000
C006
C006
C00E
C01A
C012
C032
C022
C062
C0C2
C082
C182
C102
C302
C602
C402
CC02
C802
D802
F002
E002
E002
C002
ENDCHAR
STARTCHAR 041A
ENCODING 1050
SWIDTH 570 0
DWIDTH 19 0
BBX 15 22 3 0
BITMAP
C00E
C01E
C010
C030
C060
C040
C0C0
C080
C180
C100
FF00
C300
C180
C0C0
C0C0
C060
C030
C010
C018
C00C
C004
C006
ENDCHAR
STARTCHAR 041B
ENCODING 1051
SWIDTH 600 0
DWIDTH 20 0
BBX 17 22 0 0
BITMAP
01FF80
018080
010080
010080
010080
030080
030080
020080
020080
020080
060080
060080
060080
040080
040080
040080
0C0080
0C0080
080080
180080
700080
E00080
ENDCHAR
STARTCHAR 041C
ENCODING 1052
SWIDTH 720 0
DWIDTH 24 0
BBX 17 22 3 0
BITMAP
E00180
E00180
E00380
F00280
D00280
D00680
D80480
C80C80
C80880
CC0880
C41880
C41080
C61080
C23080
C32080
C12080
C16080
C1C080
C0C080
C0C080
C00080
C00080
ENDCHAR
STARTCHAR 041D
ENCODING 1053
SWIDTH 630 0
DWIDTH 21 0
BBX 15 22 3 0
BITMAP
C002
C002
C002
C002
C002
C002
C002
C002
C002
C002
FFFE
C002
C002
C002
C002
C002
C002
C002
C002
C002
C002
C002
ENDCHAR
STARTCHAR 041E
ENCODING 1054
SWIDTH 660 0
DWIDTH 22 0
BBX 18 22 2 0
BITMAP
03F000
0F3C00
180600
300300
600100
600180
400080
C000C0
C000C0
C000C0
8000C0
8000C0
C000C0
C000C0
C000C0
400080
600180
600100
300300
180600
0F3C00
03F000
ENDCHAR
STARTCHAR 041F
ENCODING 1055
SWIDTH 630 0
DWIDTH 21 0
BBX 15 22 3 0
BITMAP
FFFE
C006
C006
C006
C006
C006
C006
C006
C006
C006
C006
C006
C006
C006
C006
C006
C006
C006
C006
C006
C006
C006
ENDCHAR
STARTCHAR 0420
ENCODING 1056
SWIDTH 540 0
DWIDTH 18 0
BBX 14 22 3 0
BITMAP
FFC0
C0F0
C018
C008
C00C
C00C
C00C
C00C
C008
C018
C070
FFC0
C000
C000
C000
C000
C000
C000
C000
C000
C000
C000
ENDCHAR
STARTCHAR 0421
ENCODING 1057
SWIDTH 570 0
DWIDTH 19 0
BBX 15 22 2 0
BITMAP
03F0
0F3C
1806
3000
6000
6000
4000
C000
C000
C000
8000
8000
C000
C000
C000
C000
6000
6000
3002
1806
0F3C
03F0
ENDCHAR
STARTCHAR 0422
ENCODING 1058
SWIDTH 510 0
DWIDTH 17 0
BBX 15 22 1 0
BITMAP
FFFE
0100
0100
0100
0100
0100
0100
0100
0100
0100
0100
0100
0100
0100
0100
0100
0100
0100
0100
0100
0100
0100
ENDCHAR
STARTCHAR 0423
ENCODING 1059
SWIDTH 480 0
DWIDTH 16 0
BBX 16 22 0 0
BITMAP
C003
6003
6002
2006
3004
100C
180C
0808
0C18
0C10
0430
0630
0220
0360
0140
01C0
0080
0180
0180
0300
1E00
3C00
ENDCHAR
STARTCHAR 0424
ENCODING 1060
SWIDTH 720 0
DWIDTH 24 0
BBX 20 22 2 0
BITMAP
006000
006000
006000
07FC00
1F6F80
3060C0
606060
C06020
C06030
806010
806010
806010
806010
C06030
C06020
606060
3060C0
1E6F80
07FC00
006000
006000
006000
ENDCHAR
STARTCHAR 0425
ENCODING 1061
SWIDTH 480 0
DWIDTH 16 0
BBX 14 22 1 0
BITMAP
C00C
6008
6018
3010
1020
1860
0840
0CC0
0680
0780
0300
0300
0580
0CC0
0840
1860
1020
3030
2010
6018
C00C
8004
ENDCHAR
STARTCHAR 0426
ENCODING 1062
SWIDTH 630 0
DWIDTH 21 0
BBX 17 28 3 -6
BITMAP
C00400
C00400
C00400
C00400
C00400
C00400
C00400
C00400
C00400
C00400
C00400
C00400
C00400
C00400
C00400
C00400
C00400
C00400
C00400
C00400
C00400
FFFF80
000180
000180
000180
000180
000180
000180
ENDCHAR
STARTCHAR 0427
ENCODING 1063
SWIDTH 570 0
DWIDTH 19 0
BBX 14 22 2 0
BITMAP
C004
C004
C004
C004
C004
C004
C004
4004
6004
7004
3E3C
0FFC
0004
0004
0004
0004
0004
0004
0004
0004
0004
0004
ENDCHAR
STARTCHAR 0428
ENCODING 1064
SWIDTH 840 0
DWIDTH 28 0
BBX 22 22 3 0
BITMAP
C0300C
C0300C
C0300C
C0300C
C0300C
C0300C
C0300C
C0300C
C0300C
C0300C
C0300C
C0300C
C0300C
C0300C
C0300C
C0300C
C0300C
C0300C
C0300C
C0300C
C0300C
FFFFFC
ENDCHAR
STARTCHAR 0429
ENCODING 1065
SWIDTH 840 0
DWIDTH 28 0
BBX 24 28 3 -6
BITMAP
C0300C
C0300C
C0300C
C0300C
C0300C
C0300C
C0300C
C0300C
C0300C
C0300C
C0300C
C0300C
C0300C
C0300C
C0300C
C0300C
C0300C
C0300C
C0300C
C0300C
C0300C
FFFFFF
000003
000003
000003
000003
000003
000003
ENDCHAR
STARTCHAR 042A
ENCODING 1066
SWIDTH 720 0
DWIDTH 24 0
BBX 21 22 1 0
BITMAP
FF8000
018000
018000
018000
018000
018000
018000
018000
018000
018000
01FFC0
0180F0
018030
018018
018008
018008
018008
018018
018018
018030
0181E0
01FF80
ENDCHAR
STARTCHAR 042B
ENCODING 1067
SWIDTH 780 0
DWIDTH 26 0
BBX 19 22 3 0
BITMAP
C00020
C00020
C00020
C00020
C00020
C00020
C00020
C00020
C00020
C00020
FFE020
C07020
C01820
C00820
C00C20
C00C20
C00C20
C00C20
C00820
C01820
C0F020
FFC020
ENDCHAR
STARTCHAR 042C
ENCODING 1068
SWIDTH 570 0
DWIDTH 19 0
BBX 14 22 3 0
BITMAP
C000
C000
C000
C000
C000
C000
C000
C000
C000
C000
FFE0
C038
C00C
C00C
C004
C004
C004
C004
C00C
C018
C0F0
FFC0
ENDCHAR
STARTCHAR 042D
ENCODING 1069
SWIDTH 570 0
DWIDTH 19 0
BBX 15 22 2 0
BITMAP
1F80
79E0
C030
0018
000C
0004
0004
0006
0006
0006
1FFE
0006
0006
0006
0006
0004
000C
000C
8018
C030
79E0
1F80
ENDCHAR
STARTCHAR 042E
ENCODING 1070
SWIDTH 870 0
DWIDTH 29 0
BBX 25 22 3 0
BITMAP
C007E000
C01E7800
C0300C00
C0600600
C0400600
C0C00300
C0C00300
C0800100
C0800100
C1800180
FF800180
C1800180
C1800180
C0800100
C0800100
C0C00300
C0C00300
C0600600
C0600600
C0300C00
C01E7800
C007E000
ENDCHAR
STARTCHAR 042F
ENCODING 1071
SWIDTH 570 0
DWIDTH 19 0
BBX 14 22 1 0
BITMAP
07FC
1C04
3004
6004
6004
6004
6004
6004
6004
3004
1E04
07FC
0304
0604
0404
0C04
1804
1804
3004
2004
6004
C004
ENDCHAR
STARTCHAR 0430
ENCODING 1072
SWIDTH 480 0
DWIDTH 16 0
BBX 12 16 2 0
BITMAP
0F80
39C0
4060
0020
0030
0030
00F0
0F30
3030
4030
C030
8030
C030
C070
63B0
3E30
ENDCHAR
STARTCHAR 0431
ENCODING 1073
SWIDTH 540 0
DWIDTH 18 0
BBX 14 24 2 0
BITMAP
0008
01F8
0F80
1C00
3000
2000
6000
4000
4000
CFE0
D830
E018
C008
800C
800C
800C
C00C
C00C
C00C
4008
6018
3030
1CE0
07C0
ENDCHAR
STARTCHAR 0432
ENCODING 1074
SWIDTH 510 0
DWIDTH 17 0
BBX 12 16 3 0
BITMAP
FF80
C0E0
C060
C020
C020
C020
C0C0
FF80
C0E0
C030
C030
C010
C030
C030
C0E0
FF80
ENDCHAR
STARTCHAR 0433
ENCODING 1075
SWIDTH 390 0
DWIDTH 13 0
BBX 9 16 3 0
BITMAP
FF80
C000
C000
C000
C000
C000
C000
C000
C000
C000
C000
C000
C000
C000
C000
C000
ENDCHAR
STARTCHAR 0434
ENCODING 1076
SWIDTH 510 0
DWIDTH 17 0
BBX 15 22 1 -6
BITMAP
0FF8
0818
0818
1818
1818
1818
1018
1018
1018
1018
3018
3018
2018
2018
4018
FFFE
8006
8006
8006
8006
8006
8006
ENDCHAR
STARTCHAR 0435
ENCODING 1077
SWIDTH 480 0
DWIDTH 16 0
BBX 13 16 2 0
BITMAP
0F80
1CE0
2030
4010
C018
C018
8018
FFF8
8000
8000
C000
C000
6000
3010
1C70
0FC0
ENDCHAR
STARTCHAR 0436
ENCODING 1078
SWIDTH 630 0
DWIDTH 21 0
BBX 19 16 1 0
BITMAP
C04060
E040E0
304180
104100
184300
084200
0C4200
07FE00
084200
184300
104100
304180
2040C0
6040C0
C04060
804020
ENDCHAR
STARTCHAR 0437
ENCODING 1079
SWIDTH 450 0
DWIDTH 15 0
BBX 11 16 2 0
BITMAP
3F00
F1C0
8040
0060
0060
0040
0180
1F00
01C0
0060
0020
0020
0020
8060
F1C0
3F00
ENDCHAR
STARTCHAR 0438
ENCODING 1080
SWIDTH 540 0
DWIDTH 18 0
BBX 12 16 3 0
BITMAP
C010
C030
C070
C050
C090
C190
C110
C210
C610
CC10
C810
9810
9010
A010
E010
C010
ENDCHAR
STARTCHAR 0439
ENCODING 1081
SWIDTH 540 0
DWIDTH 18 0
BBX 12 24 3 0
BITMAP
6020
2020
2060
10C0
0F80
0000
0000
0000
C010
C030
C070
C050
C090
C190
C110
C210
C610
CC10
C810
9810
9010
A010
E010
C010
ENDCHAR
STARTCHAR 043A
ENCODING 1082
SWIDTH 480 0
DWIDTH 16 0
BBX 12 16 3 0
BITMAP
C070
C0E0
C080
C180
C100
C300
C200
FE00
C200
C300
C180
C080
C0C0
C060
C060
C030
ENDCHAR
STARTCHAR 043B
ENCODING 1083
SWIDTH 510 0
DWIDTH 17 0
BBX 13 16 1 0
BITMAP
0FF8
0818
0818
0818
0818
1818
1818
1818
1018
1018
1018
1018
1018
3018
6018
C018
ENDCHAR
STARTCHAR 043C
ENCODING 1084
SWIDTH 630 0
DWIDTH 21 0
BBX 15 16 3 0
BITMAP
C006
C00E
E00E
A01E
B016
9036
9826
8826
8866
8C46
84C6
8686
8286
8306
8106
8006
ENDCHAR
STARTCHAR 043D
ENCODING 1085
SWIDTH 540 0
DWIDTH 18 0
BBX 12 16 3 0
BITMAP
C010
C010
C010
C010
C010
C010
C010
FFF0
C010
C010
C010
C010
C010
C010
C010
C010
ENDCHAR
STARTCHAR 043E
ENCODING 1086
SWIDTH 540 0
DWIDTH 18 0
BBX 14 16 2 0
BITMAP
0FC0
1CE0
3030
6018
C008
C00C
800C
8004
8004
800C
C00C
C008
6018
7030
1CE0
0FC0
ENDCHAR
STARTCHAR 043F
ENCODING 1087
SWIDTH 540 0
DWIDTH 18 0
BBX 12 16 3 0
BITMAP
FFF0
C030
C030
C030
C030
C030
C030
C030
C030
C030
C030
C030
C030
C030
C030
C030
ENDCHAR
STARTCHAR 0440
ENCODING 1088
SWIDTH 540 0
DWIDTH 18 0
BBX 13 23 3 -7
BITMAP
87C0
98E0
E030
C018
C018
C008
C008
C008
C008
C008
C018
C018
C030
E030
F8E0
CF80
C000
C000
C000
C000
C000
C000
C000
ENDCHAR
STARTCHAR 0441
ENCODING 1089
SWIDTH 450 0
DWIDTH 15 0
BBX 12 16 2 0
BITMAP
0FC0
1CE0
3020
6000
C000
C000
8000
8000
8000
8000
C000
C000
6000
7010
3C60
0F80
ENDCHAR
STARTCHAR 0442
ENCODING 1090
SWIDTH 450 0
DWIDTH 15 0
BBX 13 16 1 0
BITMAP
FFF8
0200
0200
0200
0200
0200
0200
0200
0200
0200
0200
0200
0200
0200
0200
0200
ENDCHAR
STARTCHAR 0443
ENCODING 1091
SWIDTH 450 0
DWIDTH 15 0
BBX 13 23 1 -7
BITMAP
8018
C018
C010
4030
6030
2020
3060
3040
1040
18C0
0880
0C80
0D80
0500
0700
0300
0200
0200
0600
0400
0C00
B800
E000
ENDCHAR
STARTCHAR 0444
ENCODING 1092
SWIDTH 720 0
DWIDTH 24 0
BBX 20 31 2 -7
BITMAP
006000
006000
006000
006000
006000
006000
006000
006000
0F6F80
39F9C0
606060
404060
C04030
C04030
804030
804030
804030
804030
C04030
C04020
404060
606040
39F980
1F6F00
006000
006000
006000
006000
006000
006000
006000
ENDCHAR
STARTCHAR 0445
ENCODING 1093
SWIDTH 420 0
DWIDTH 14 0
BBX 12 16 1 0
BITMAP
C020
4060
2040
3080
1180
1900
0E00
0600
0E00
0B00
1100
3080
20C0
6040
C060
8030
ENDCHAR
STARTCHAR 0446
ENCODING 1094
SWIDTH 540 0
DWIDTH 18 0
BBX 14 22 3 -6
BITMAP
C030
C030
C030
C030
C030
C030
C030
C030
C030
C030
C030
C030
C030
C030
C030
FFFC
000C
000C
000C
000C
000C
000C
ENDCHAR
STARTCHAR 0447
ENCODING 1095
SWIDTH 480 0
DWIDTH 16 0
BBX 11 16 2 0
BITMAP
C020
C020
C020
C020
C020
C020
4020
7020
3FE0
0020
0020
0020
0020
0020
0020
0020
ENDCHAR
STARTCHAR 0448
ENCODING 1096
SWIDTH 720 0
DWIDTH 24 0
BBX 18 16 3 0
BITMAP
C0C0C0
C0C0C0
C0C0C0
C0C0C0
C0C0C0
C0C0C0
C0C0C0
C0C0C0
C0C0C0
C0C0C0
C0C0C0
C0C0C0
C0C0C0
C0C0C0
C0C0C0
FFFFC0
ENDCHAR
STARTCHAR 0449
ENCODING 1097
SWIDTH 720 0
DWIDTH 24 0
BBX 20 22 3 -6
BITMAP
C0C0C0
C0C0C0
C0C0C0
C0C0C0
C0C0C0
C0C0C0
C0C0C0
C0C0C0
C0C0C0
C0C0C0
C0C0C0
C0C0C0
C0C0C0
C0C0C0
C0C0C0
FFFFF0
000010
000010
000010
000010
000010
000010
ENDCHAR
STARTCHAR 044A
ENCODING 1098
SWIDTH 570 0
DWIDTH 19 0
BBX 17 16 1 0
BITMAP
FE0000
020000
020000
020000
020000
020000
03FC00
020700
020300
020180
020180
020180
020180
020100
020600
03FC00
ENDCHAR
STARTCHAR 044B
ENCODING 1099
SWIDTH 630 0
DWIDTH 21 0
BBX 15 16 3 0
BITMAP
C002
C002
C002
C002
C002
C002
FF02
C382
C0C2
C042
C062
C062
C042
C0C2
C382
FE02
ENDCHAR
STARTCHAR 044C
ENCODING 1100
SWIDTH 480 0
DWIDTH 16 0
BBX 11 16 3 0
BITMAP
C000
C000
C000
C000
C000
C000
FF00
C1C0
C060
C020
C020
C020
C020
C060
C1C0
FF00
ENDCHAR
STARTCHAR 044D
ENCODING 1101
SWIDTH 450 0
DWIDTH 15 0
BBX 12 16 1 0
BITMAP
1F00
73C0
4060
0020
0030
0030
0010
1FF0
0010
0010
0030
0030
0020
8060
E3C0
3F00
ENDCHAR
STARTCHAR 044E
ENCODING 1102
SWIDTH 720 0
DWIDTH 24 0
BBX 19 16 3 0
BITMAP
C03E00
C0F380
C180C0
C100C0
C30060
C20060
C20060
FE0020
C20020
C20020
C20060
C30060
C100C0
C18080
C0E780
C03E00
ENDCHAR
STARTCHAR 044F
ENCODING 1103
SWIDTH 510 0
DWIDTH 17 0
BBX 11 16 2 0
BITMAP
1FE0
3820
6020
4020
C020
4020
6020
3820
1FE0
0C20
0820
1020
3020
6020
4020
C020
ENDCHAR
STARTCHAR 0450
ENCODING 1104
SWIDTH 480 0
DWIDTH 16 0
BBX 13 24 2 1
BITMAP
1800
0C00
0600
0300
0100
0000
0000
0000
0F80
1CE0
2030
4010
C018
C018
8018
FFF8
8000
8000
C000
C000
6000
3010
1C70
0FC0
ENDCHAR
STARTCHAR 0451
ENCODING 1105
SWIDTH 480 0
DWIDTH 16 0
BBX 13 22 2 0
BITMAP
1860
18E0
0000
0000
0000
0000
0F80
1CE0
2030
4010
C018
C018
8018
FFF8
8000
8000
C000
C000
6000
3010
1C70
0FC0
ENDCHAR
STARTCHAR 0452
ENCODING 1106
SWIDTH 540 0
DWIDTH 18 0
BBX 16 31 0 -7
BITMAP
1800
1800
1800
1800
FFE0
1800
1800
1800
1800
11F8
130C
1C06
1806
1802
1803
1803
1803
1803
1803
1803
1803
1803
1803
1803
0003
0002
0006
0006
000C
0098
00F0
ENDCHAR
STARTCHAR 0453
ENCODING 1107
SWIDTH 390 0
DWIDTH 13 0
BBX 9 25 3 0
BITMAP
0080
0180
0300
0600
0C00
0800
0000
0000
0000
FF80
C000
C000
C000
C000
C000
C000
C000
C000
C000
C000
C000
C000
C000
C000
C000
ENDCHAR
STARTCHAR 0454
ENCODING 1108
SWIDTH 450 0
DWIDTH 15 0
BBX 12 16 2 0
BITMAP
0FC0
1CE0
6020
4000
C000
C000
8000
FFC0
8000
8000
C000
C000
4000
6010
3C60
0F80
ENDCHAR
STARTCHAR 0455
ENCODING 1109
SWIDTH 420 0
DWIDTH 14 0
BBX 11 16 1 0
BITMAP
1F80
31C0
6000
4000
4000
6000
3800
1E00
03C0
00E0
0060
0020
0020
C060
70C0
1F80
ENDCHAR
STARTCHAR 0456
ENCODING 1110
SWIDTH 240 0
DWIDTH 8 0
BBX 2 22 3 1
BITMAP
C0
C0
00
00
00
00
C0
C0
C0
C0
C0
C0
C0
C0
C0
C0
C0
C0
C0
C0
C0
C0
ENDCHAR
STARTCHAR 0457
ENCODING 1111
SWIDTH 240 0
DWIDTH 8 0
BBX 8 22 0 0
BITMAP
C3
C3
00
00
00
00
18
18
18
18
18
18
18
18
18
18
18
18
18
18
18
18
ENDCHAR
STARTCHAR 0458
ENCODING 1112
SWIDTH 240 0
DWIDTH 8 0
BBX 6 29 -1 -6
BITMAP
0C
0C
00
00
00
00
0C
0C
0C
0C
0C
0C
0C
0C
0C
0C
0C
0C
0C
0C
0C
0C
0C
0C
0C
0C
08
98
F0
ENDCHAR
STARTCHAR 0459
ENCODING 1113
SWIDTH 720 0
DWIDTH 24 0
BBX 21 16 1 0
BITMAP
0FF000
081000
081000
081000
081000
081000
081FC0
181070
181018
181018
181008
101008
101018
301018
601070
C01FC0
ENDCHAR
STARTCHAR 045A
ENCODING 1114
SWIDTH 750 0
DWIDTH 25 0
BBX 20 16 3 0
BITMAP
C02000
C02000
C02000
C02000
C02000
C02000
C03F80
FFE0E0
C02030
C02030
C02010
C02010
C02030
C02030
C020E0
C03F80
ENDCHAR
STARTCHAR 045B
ENCODING 1115
SWIDTH 540 0
DWIDTH 18 0
BBX 15 24 0 0
BITMAP
1800
1800
1800
1800
FFE0
1800
1800
1800
1800
19F8
1B0C
1C04
1806
1806
1806
1806
1806
1806
1806
1806
1806
1806
1806
1806
ENDCHAR
STARTCHAR 045C
ENCODING 1116
SWIDTH 480 0
DWIDTH 16 0
BBX 12 25 3 0
BITMAP
0080
0180
0300
0200
0400
0800
0000
0000
0000
C070
C0E0
C080
C180
C100
C300
C200
FE00
C200
C300
C180
C080
C0C0
C060
C060
C030
ENDCHAR
STARTCHAR 045D
ENCODING 1117
SWIDTH 540 0
DWIDTH 18 0
BBX 12 25 3 0
BITMAP
1000
1800
0C00
0600
0200
0100
0000
0000
0000
C010
C030
C070
C050
C090
C190
C110
C210
C610
CC10
C810
9810
9010
A010
E010
C010
ENDCHAR
STARTCHAR 045E
ENCODING 1118
SWIDTH 450 0
DWIDTH 15 0
BBX 13 31 1 -7
BITMAP
2030
2020
3020
1840
0F80
0000
0000
0000
8018
C018
C010
4030
6030
2020
3060
3040
1040
18C0
0880
0C80
0D80
0500
0700
0300
0200
0200
0600
0400
0C00
B800
E000
ENDCHAR
STARTCHAR 045F
ENCODING 1119
SWIDTH 540 0
DWIDTH 18 0
BBX 12 22 3 -6
BITMAP
C010
C010
C010
C010
C010
C010
C010
C010
C010
C010
C010
C010
C010
C010
C010
FFF0
0600
0600
0600
0600
0600
0600
ENDCHAR
STARTCHAR 0462
ENCODING 1122
SWIDTH 600 0
DWIDTH 20 0
BBX 18 24 1 0
BITMAP
040000
040000
040000
040000
040000
FFFE00
040000
040000
040000
040000
040000
040000
07FC00
040F00
040180
040080
0400C0
0400C0
0400C0
040080
040080
040180
040F00
07FC00
ENDCHAR
STARTCHAR 0463
ENCODING 1123
SWIDTH 570 0
DWIDTH 19 0
BBX 16 20 1 0
BITMAP
0600
0600
0600
0600
FFF8
0600
0600
0600
0600
0600
0600
07FC
0606
0603
0601
0601
0601
0603
060E
07F8
ENDCHAR
STARTCHAR 0472
ENCODING 1138
SWIDTH 660 0
DWIDTH 22 0
BBX 18 22 2 0
BITMAP
03F000
0E3C00
180600
300300
600180
400180
C00080
C000C0
C000C0
8000C0
FFFFC0
8000C0
8000C0
C000C0
C000C0
C00080
600180
600100
300300
180600
0F3C00
03F000
ENDCHAR
STARTCHAR 0473
ENCODING 1139
SWIDTH 540 0
DWIDTH 18 0
BBX 14 16 2 0
BITMAP
0FC0
1CE0
2030
4018
C00C
800C
8004
FFFC
8004
8004
C00C
C00C
4018
6010
3CE0
0FC0
ENDCHAR
STARTCHAR 0474
ENCODING 1140
SWIDTH 510 0
DWIDTH 17 0
BBX 18 22 0 0
BITMAP
C001C0
400380
600200
600600
200400
300400
300C00
100C00
100800
181800
081800
081000
0C1000
043000
042000
062000
026000
026000
034000
014000
01C000
018000
ENDCHAR
STARTCHAR 0475
ENCODING 1141
SWIDTH 450 0
DWIDTH 15 0
BBX 14 16 1 0
BITMAP
800C
C01C
C010
4030
6020
6060
2060
3040
10C0
10C0
1880
0980
0900
0D00
0700
0600
ENDCHAR
STARTCHAR 0490
ENCODING 1168
SWIDTH 480 0
DWIDTH 16 0
BBX 12 28 3 0
BITMAP
0010
0010
0010
0010
0010
0010
FFF0
C000
C000
C000
C000
C000
C000
C000
C000
C000
C000
C000
C000
C000
C000
C000
C000
C000
C000
C000
C000
C000
ENDCHAR
STARTCHAR 0491
ENCODING 1169
SWIDTH 420 0
DWIDTH 14 0
BBX 10 22 3 0
BITMAP
0040
0040
0040
00C0
00C0
00C0
FFC0
C000
C000
C000
C000
C000
C000
C000
C000
C000
C000
C000
C000
C000
C000
C000
ENDCHAR
STARTCHAR 0492
ENCODING 1170
SWIDTH 510 0
DWIDTH 17 0
BBX 15 22 1 0
BITMAP
1FFE
1000
1000
1000
1000
1000
1000
1000
1000
1000
FFC0
1000
1000
1000
1000
1000
1000
1000
1000
1000
1000
1000
ENDCHAR
STARTCHAR 0493
ENCODING 1171
SWIDTH 420 0
DWIDTH 14 0
BBX 12 16 1 0
BITMAP
3FF0
3000
3000
3000
3000
3000
3000
FF00
3000
3000
3000
3000
3000
3000
3000
3000
ENDCHAR
STARTCHAR 0496
ENCODING 1174
SWIDTH 810 0
DWIDTH 27 0
BBX 25 28 1 -6
BITMAP
C0180700
E0180F00
30180800
18181800
18181000
08183000
0C182000
04186000
06184000
0218C000
03FF8000
0218C000
06186000
0C186000
08183000
18181000
10181800
30180C00
60180C00
60180600
C0180200
80180380
00000180
00000180
00000180
00000180
00000180
00000180
ENDCHAR
STARTCHAR 0497
ENCODING 1175
SWIDTH 660 0
DWIDTH 22 0
BBX 20 22 1 -6
BITMAP
C04060
E040E0
304180
104100
184300
084200
0C4200
07FE00
084200
184300
104100
304180
2040C0
6040C0
C04060
804030
000010
000010
000010
000010
000010
000010
ENDCHAR
STARTCHAR 0498
ENCODING 1176
SWIDTH 540 0
DWIDTH 18 0
BBX 15 28 2 -6
BITMAP
0FC0
3CF0
6018
0008
000C
000C
0008
0008
0018
00F0
0FE0
0038
000C
0004
0006
0006
0006
0006
800C
E018
3CF0
0FC0
0100
0100
0100
0100
0100
0100
ENDCHAR
STARTCHAR 0499
ENCODING 1177
SWIDTH 450 0
DWIDTH 15 0
BBX 11 21 2 -5
BITMAP
3F00
F1C0
8040
0060
0060
0040
0180
1F00
01C0
0060
0020
0020
0020
8060
E1C0
3F00
0400
0400
0400
0400
0400
ENDCHAR
STARTCHAR 049A
ENCODING 1178
SWIDTH 600 0
DWIDTH 20 0
BBX 16 28 3 -6
BITMAP
C00E
C01E
C010
C030
C060
C040
C0C0
C080
C180
C100
FF00
C300
C180
C0C0
C0C0
C060
C030
C010
C018
C00C
C004
C007
0001
0001
0001
0001
0001
0001
ENDCHAR
STARTCHAR 049B
ENCODING 1179
SWIDTH 510 0
DWIDTH 17 0
BBX 13 22 3 -6
BITMAP
C070
C0E0
C080
C180
C100
C300
C200
FE00
C200
C300
C180
C080
C0C0
C060
C060
C038
0008
0008
0008
0008
0008
0008
ENDCHAR
STARTCHAR 04A0
ENCODING 1184
SWIDTH 690 0
DWIDTH 23 0
BBX 22 22 1 0
BITMAP
FF001C
010038
010060
010040
0100C0
010180
010100
010300
010200
010600
01FC00
010600
010300
010100
010180
0100C0
010040
010060
010030
010010
010018
01000C
ENDCHAR
STARTCHAR 04A1
ENCODING 1185
SWIDTH 600 0
DWIDTH 20 0
BBX 18 16 1 0
BITMAP
FE01C0
020380
020200
020400
020400
020C00
020800
03F800
020800
020C00
020600
020200
020300
020100
020180
0200C0
ENDCHAR
STARTCHAR 04A2
ENCODING 1186
SWIDTH 630 0
DWIDTH 21 0
BBX 17 28 3 -6
BITMAP
C00200
C00200
C00200
C00200
C00200
C00200
C00200
C00200
C00200
C00200
FFFE00
C00200
C00200
C00200
C00200
C00200
C00200
C00200
C00200
C00200
C00200
C00380
000080
000080
000080
000080
000080
000080
ENDCHAR
STARTCHAR 04A3
ENCODING 1187
SWIDTH 540 0
DWIDTH 18 0
BBX 14 22 3 -6
BITMAP
C010
C010
C010
C010
C010
C010
C010
FFF0
C010
C010
C010
C010
C010
C010
C010
C01C
0004
0004
0004
0004
0004
0004
ENDCHAR
STARTCHAR 04AA
ENCODING 1194
SWIDTH 570 0
DWIDTH 19 0
BBX 15 28 2 -6
BITMAP
03F0
0F3C
1806
3000
6000
6000
4000
C000
C000
C000
8000
8000
C000
C000
C000
C000
6000
6000
3002
1806
0F1C
03F0
00C0
00C0
00C0
00C0
00C0
00C0
ENDCHAR
STARTCHAR 04AB
ENCODING 1195
SWIDTH 450 0
DWIDTH 15 0
BBX 12 21 2 -5
BITMAP
0FC0
1CE0
3020
6000
C000
C000
8000
8000
8000
8000
C000
C000
6000
7010
3C60
0FC0
0300
0300
0300
0200
0200
ENDCHAR
STARTCHAR 04AE
ENCODING 1198
SWIDTH 450 0
DWIDTH 15 0
BBX 15 22 0 0
BITMAP
C006
4004
600C
2008
3018
1010
1830
0820
0C60
0440
06C0
0280
0380
0100
0100
0100
0100
0100
0100
0100
0100
0100
ENDCHAR
STARTCHAR 04AF
ENCODING 1199
SWIDTH 420 0
DWIDTH 14 0
BBX 13 23 1 -7
BITMAP
8018
C010
C010
4030
6020
6020
2060
3040
10C0
1880
1880
0980
0D00
0500
0700
0600
0200
0200
0200
0200
0200
0200
0200
ENDCHAR
STARTCHAR 04B0
ENCODING 1200
SWIDTH 450 0
DWIDTH 15 0
BBX 14 22 0 0
BITMAP
C004
600C
6008
3018
3010
1830
1820
0C20
0C40
0440
0680
0380
3FF8
0100
0100
0100
0100
0100
0100
0100
0100
0100
ENDCHAR
STARTCHAR 04B1
ENCODING 1201
SWIDTH 420 0
DWIDTH 14 0
BBX 13 23 1 -7
BITMAP
8018
C018
C010
4030
6020
6020
2060
3040
10C0
1880
1880
0980
0D00
0500
0700
7FF0
0200
0200
0200
0200
0200
0200
0200
ENDCHAR
STARTCHAR 04B2
ENCODING 1202
SWIDTH 510 0
DWIDTH 17 0
BBX 15 28 1 -6
BITMAP
C00C
6008
6018
3010
1020
1860
0840
0CC0
0680
0780
0300
0300
0580
0CC0
0840
1860
1020
3030
2010
6018
C00C
8006
0002
0002
0002
0002
0002
0002
ENDCHAR
STARTCHAR 04B3
ENCODING 1203
SWIDTH 450 0
DWIDTH 15 0
BBX 13 22 1 -6
BITMAP
C020
4060
6040
3080
1180
1900
0E00
0600
0E00
0B00
1100
3080
20C0
6040
C060
8038
0018
0018
0018
0018
0018
0018
ENDCHAR
STARTCHAR 04B6
ENCODING 1206
SWIDTH 570 0
DWIDTH 19 0
BBX 16 28 2 -6
BITMAP
C004
C004
C004
C004
C004
C004
C004
4004
6004
7004
3E3C
0FFC
0004
0004
0004
0004
0004
0004
0004
0004
0004
0007
0001
0001
0001
0001
0001
0001
ENDCHAR
STARTCHAR 04B7
ENCODING 1207
SWIDTH 480 0
DWIDTH 16 0
BBX 13 22 2 -6
BITMAP
C020
C020
C020
C020
C020
C020
4020
7020
3FE0
0020
0020
0020
0020
0020
0020
0038
0008
0008
0008
0008
0008
0008
ENDCHAR
STARTCHAR 04BA
ENCODING 1210
SWIDTH 570 0
DWIDTH 19 0
BBX 14 22 3 0
BITMAP
C000
C000
C000
C000
C000
C000
C000
C000
C000
FFE0
C070
C018
C00C
C00C
C00C
C00C
C00C
C00C
C00C
C00C
C00C
C00C
ENDCHAR
STARTCHAR 04BB
ENCODING 1211
SWIDTH 540 0
DWIDTH 18 0
BBX 12 24 3 0
BITMAP
C000
C000
C000
C000
C000
C000
C000
C000
C780
DCE0
F060
C030
C030
C030
C030
C030
C030
C030
C030
C030
C030
C030
C030
C030
ENDCHAR
STARTCHAR 04C0
ENCODING 1216
SWIDTH 240 0
DWIDTH 8 0
BBX 2 22 3 0
BITMAP
C0
C0
C0
C0
C0
C0
C0
C0
C0
C0
C0
C0
C0
C0
C0
C0
C0
C0
C0
C0
C0
C0
ENDCHAR
STARTCHAR 04C1
ENCODING 1217
SWIDTH 780 0
DWIDTH 26 0
BBX 24 27 1 0
BITMAP
018100
008100
00C200
007C00
000000
C01807
E0180F
301808
181818
181810
081830
0C1820
041860
061840
0218C0
03FF80
0218C0
061860
0C1860
0C1830
181810
101818
301808
20180C
601806
C01806
C01803
ENDCHAR
STARTCHAR 04C2
ENCODING 1218
SWIDTH 630 0
DWIDTH 21 0
BBX 19 24 1 0
BITMAP
040400
040400
060400
030800
01F000
000000
000000
000000
C04060
E040E0
304180
104100
184300
084200
0C4200
07FE00
084200
184300
104100
304180
2040C0
6040C0
C04060
804020
ENDCHAR
STARTCHAR 04CF
ENCODING 1231
SWIDTH 240 0
DWIDTH 8 0
BBX 3 24 3 0
BITMAP
C0
C0
C0
C0
C0
C0
C0
C0
C0
C0
C0
C0
C0
C0
C0
C0
C0
C0
C0
C0
C0
C0
C0
60
ENDCHAR
STARTCHAR 04D0
ENCODING 1232
SWIDTH 540 0
DWIDTH 18 0
BBX 17 28 0 0
BITMAP
0C0800
040800
061000
03E000
000000
000000
00C000
01C000
014000
016000
032000
022000
023000
061000
041800
041800
0C0800
080C00
080C00
1FFC00
100600
100600
300200
200300
600300
600100
400180
C00180
ENDCHAR
STARTCHAR 04D1
ENCODING 1233
SWIDTH 480 0
DWIDTH 16 0
BBX 12 24 2 0
BITMAP
2020
2020
3060
18C0
0F80
0000
0000
0000
0F80
39C0
4060
0020
0030
0030
00F0
0F30
3030
4030
C030
8030
C030
C070
63B0
3E30
ENDCHAR
STARTCHAR 04D4
ENCODING 1236
SWIDTH 810 0
DWIDTH 27 0
BBX 24 22 1 0
BITMAP
000FFF
001400
003400
002400
006400
004400
00C400
008400
018400
010400
0307FC
060400
060400
0C0400
0FFC00
180400
100400
300400
200400
600400
400400
C007FF
ENDCHAR
STARTCHAR 04D5
ENCODING 1237
SWIDTH 780 0
DWIDTH 26 0
BBX 23 16 2 0
BITMAP
0F81F0
39C738
406C0C
002804
003006
003006
01F006
0E3FFE
303000
603000
C01000
C01800
C03800
C06C04
71871C
3E01F0
ENDCHAR
STARTCHAR 04D6
ENCODING 1238
SWIDTH 510 0
DWIDTH 17 0
BBX 13 28 3 0
BITMAP
2060
3060
18C0
0F80
0000
0000
FFF0
C000
C000
C000
C000
C000
C000
C000
C000
C000
FFE0
C000
C000
C000
C000
C000
C000
C000
C000
C000
C000
FFF8
ENDCHAR
STARTCHAR 04D7
ENCODING 1239
SWIDTH 480 0
DWIDTH 16 0
BBX 13 24 2 0
BITMAP
2030
2020
3020
1840
0F80
0000
0000
0000
0F80
1CE0
2030
4010
C018
C018
8018
FFF8
8000
8000
C000
C000
6000
3010
1C70
0FC0
ENDCHAR
STARTCHAR 04D8
ENCODING 1240
SWIDTH 660 0
DWIDTH 22 0
BBX 18 22 2 0
BITMAP
03F000
0E1C00
300600
000300
000180
000180
000080
000080
0000C0
0000C0
0000C0
FFFFC0
C000C0
C000C0
C00080
400080
600180
600100
300300
180600
0E1C00
03F000
ENDCHAR
STARTCHAR 04D9
ENCODING 1241
SWIDTH 480 0
DWIDTH 16 0
BBX 13 16 1 0
BITMAP
0F80
78E0
0030
0010
0018
0008
0008
0008
FFF8
C008
C008
4018
4010
2030
38E0
0F80
ENDCHAR
STARTCHAR 04E2
ENCODING 1250
SWIDTH 630 0
DWIDTH 21 0
BBX 15 26 3 0
BITMAP
0FF0
0000
0000
0000
C006
C006
C00E
C01A
C012
C032
C022
C062
C0C2
C082
C182
C102
C302
C602
C402
CC02
C802
D802
F002
E002
E002
C002
ENDCHAR
STARTCHAR 04E3
ENCODING 1251
SWIDTH 540 0
DWIDTH 18 0
BBX 12 22 3 0
BITMAP
3FC0
0000
0000
0000
0000
0000
C010
C030
C070
C050
C090
C190
C110
C210
C610
CC10
C810
9810
9010
A010
E010
C010
ENDCHAR
STARTCHAR 04E6
ENCODING 1254
SWIDTH 660 0
DWIDTH 22 0
BBX 18 26 2 0
BITMAP
0E1800
061800
000000
000000
03F000
0F3C00
180600
300300
600100
600180
400080
C000C0
C000C0
C000C0
8000C0
8000C0
C000C0
C000C0
C000C0
400080
600180
600100
300300
180600
0F3C00
03F000
ENDCHAR
STARTCHAR 04E7
ENCODING 1255
SWIDTH 540 0
DWIDTH 18 0
BBX 14 22 2 0
BITMAP
1860
1860
0000
0000
0000
0000
0FC0
1CE0
3030
6018
C008
C00C
800C
8004
8004
800C
C00C
C008
6018
7030
1CE0
0FC0
ENDCHAR
STARTCHAR 04E8
ENCODING 1256
SWIDTH 660 0
DWIDTH 22 0
BBX 18 22 2 0
BITMAP
03F000
0E3C00
180600
300300
600180
400180
C00080
C000C0
C000C0
8000C0
FFFFC0
8000C0
8000C0
C000C0
C000C0
C00080
600180
600100
300300
180600
0F3C00
03F000
ENDCHAR
STARTCHAR 04E9
ENCODING 1257
SWIDTH 540 0
DWIDTH 18 0
BBX 14 16 2 0
BITMAP
0FC0
1CE0
2030
4018
C00C
800C
8004
FFFC
8004
8004
C00C
C00C
4018
6010
3CE0
0FC0
ENDCHAR
STARTCHAR 04EE
ENCODING 1262
SWIDTH 480 0
DWIDTH 16 0
BBX 16 26 0 0
BITMAP
0FF0
0000
0000
0000
C003
6003
6002
2006
3004
100C
180C
0808
0C18
0C10
0430
0630
0220
0360
0140
01C0
0080
0180
0180
0300
1E00
3C00
ENDCHAR
STARTCHAR 04EF
ENCODING 1263
SWIDTH 450 0
DWIDTH 15 0
BBX 13 29 1 -7
BITMAP
1FE0
0000
0000
0000
0000
0000
8018
C018
C010
4030
6030
2020
3060
3040
1040
18C0
0880
0C80
0D80
0500
0700
0300
0200
0200
0600
0400
0C00
B800
E000
ENDCHAR
STARTCHAR 04F2
ENCODING 1266
SWIDTH 480 0
DWIDTH 16 0
BBX 15 29 1 0
BITMAP
0318
0210
0620
0460
0840
0000
0000
8006
C004
C00C
600C
6008
2018
3010
1010
1830
0820
0860
0C40
0440
06C0
0280
0380
0100
0300
0300
0600
3C00
7800
ENDCHAR
STARTCHAR 04F3
ENCODING 1267
SWIDTH 450 0
DWIDTH 15 0
BBX 13 32 1 -7
BITMAP
0110
0230
0620
0460
0C40
0840
0000
0000
0000
8018
C018
C010
4030
6020
2020
3060
1040
1040
18C0
0880
0C80
0580
0500
0700
0300
0200
0200
0600
0400
0C00
B800
E000
ENDCHAR
STARTCHAR 1D43
ENCODING 7491
SWIDTH 330 0
DWIDTH 11 0
BBX 8 11 1 13
BITMAP
1E
63
01
01
0F
31
41
C1
C1
43
3D
ENDCHAR
STARTCHAR 1D47
ENCODING 7495
SWIDTH 360 0
DWIDTH 12 0
BBX 9 16 2 13
BITMAP
8000
8000
8000
8000
8000
9E00
E300
8180
8180
8080
8080
8080
8180
8100
E300
BC00
ENDCHAR
STARTCHAR 1D48
ENCODING 7496
SWIDTH 360 0
DWIDTH 12 0
BBX 9 16 1 13
BITMAP
0080
0080
0080
0080
0080
1E80
2180
4080
4080
C080
C080
C080
C080
4080
6380
1E80
ENDCHAR
STARTCHAR 1D49
ENCODING 7497
SWIDTH 330 0
DWIDTH 11 0
BBX 9 11 1 13
BITMAP
1E00
2300
4180
C080
8080
FF80
8000
C000
4000
6100
1E00
ENDCHAR
STARTCHAR 1D4D
ENCODING 7501
SWIDTH 330 0
DWIDTH 11 0
BBX 10 16 1 8
BITMAP
3FC0
6300
4100
4100
4100
6300
3C00
4000
4000
6000
3F80
40C0
80C0
8080
4180
3E00
ENDCHAR
STARTCHAR 1D4F
ENCODING 7503
SWIDTH 330 0
DWIDTH 11 0
BBX 8 16 2 13
BITMAP
80
80
80
80
80
83
86
8C
88
90
A8
CC
C4
86
83
81
ENDCHAR
STARTCHAR 1D50
ENCODING 7504
SWIDTH 540 0
DWIDTH 18 0
BBX 14 11 2 13
BITMAP
9C38
A2CC
C304
8104
8104
8104
8104
8104
8104
8104
8104
ENDCHAR
STARTCHAR 1D52
ENCODING 7506
SWIDTH 360 0
DWIDTH 12 0
BBX 10 11 1 13
BITMAP
1E00
6180
4080
C0C0
80C0
8040
C0C0
C0C0
4080
6100
1E00
ENDCHAR
STARTCHAR 1D56
ENCODING 7510
SWIDTH 360 0
DWIDTH 12 0
BBX 9 15 2 9
BITMAP
9E00
E300
8180
8180
8080
8080
8080
8180
8100
E300
BC00
8000
8000
8000
8000
ENDCHAR
STARTCHAR 1D57
ENCODING 7511
SWIDTH 210 0
DWIDTH 7 0
BBX 6 14 1 13
BITMAP
60
60
60
FC
60
60
60
60
60
60
60
60
20
3C
ENDCHAR
STARTCHAR 1D58
ENCODING 7512
SWIDTH 360 0
DWIDTH 12 0
BBX 8 11 2 13
BITMAP
81
81
81
81
81
81
81
81
83
C7
79
ENDCHAR
STARTCHAR 1D5B
ENCODING 7515
SWIDTH 300 0
DWIDTH 10 0
BBX 8 10 1 14
BITMAP
81
81
C3
42
42
66
24
24
18
18
ENDCHAR
STARTCHAR 1D9C
ENCODING 7580
SWIDTH 300 0
DWIDTH 10 0
BBX 8 11 1 13
BITMAP
1E
21
40
C0
80
80
C0
C0
40
71
1E
ENDCHAR
STARTCHAR 1DA0
ENCODING 7584
SWIDTH 180 0
DWIDTH 6 0
BBX 6 16 1 13
BITMAP
3C
20
60
40
40
F8
40
40
40
40
40
40
40
40
40
40
ENDCHAR
STARTCHAR 1DBB
ENCODING 7611
SWIDTH 270 0
DWIDTH 9 0
BBX 8 10 1 14
BITMAP
FE
06
04
08
18
10
20
40
C0
FF
ENDCHAR
STARTCHAR 1E06
ENCODING 7686
SWIDTH 570 0
DWIDTH 19 0
BBX 15 27 3 -5
BITMAP
FFC0
C0F0
C018
C018
C008
C008
C008
C018
C010
C0E0
FFE0
C038
C00C
C004
C006
C006
C006
C006
C00C
C018
C070
FFC0
0000
0000
0000
0000
1FE0
ENDCHAR
STARTCHAR 1E07
ENCODING 7687
SWIDTH 540 0
DWIDTH 18 0
BBX 13 29 3 -5
BITMAP
C000
C000
C000
C000
C000
C000
C000
C000
C7C0
98E0
E030
C018
C018
C008
C008
C008
C008
C008
C018
C018
C030
E030
B8E0
8F80
0000
0000
0000
0000
3FC0
ENDCHAR
STARTCHAR 1E0C
ENCODING 7692
SWIDTH 600 0
DWIDTH 20 0
BBX 15 28 3 -7
BITMAP
FF80
C1E0
C030
C018
C00C
C004
C006
C006
C002
C002
C002
C002
C002
C002
C006
C006
C004
C00C
C018
C030
C1E0
FF80
0000
0000
0000
0000
0300
0300
ENDCHAR
STARTCHAR 1E0D
ENCODING 7693
SWIDTH 540 0
DWIDTH 18 0
BBX 13 30 2 -6
BITMAP
0008
0008
0008
0008
0008
0008
0008
0008
0F88
1CE8
3018
6008
C008
C008
8008
8008
8008
8008
C008
C008
4018
6038
38C8
0F88
0000
0000
0000
0100
0180
0180
ENDCHAR
STARTCHAR 1E0E
ENCODING 7694
SWIDTH 600 0
DWIDTH 20 0
BBX 15 27 3 -5
BITMAP
FF80
C1E0
C030
C018
C00C
C004
C006
C006
C002
C002
C002
C002
C002
C002
C006
C006
C004
C00C
C018
C030
C1E0
FF80
0000
0000
0000
0000
1FE0
ENDCHAR
STARTCHAR 1E0F
ENCODING 7695
SWIDTH 540 0
DWIDTH 18 0
BBX 13 29 2 -5
BITMAP
0008
0008
0008
0008
0008
0008
0008
0008
0F88
1CE8
3018
6008
C008
C008
8008
8008
8008
8008
C008
C008
4018
6038
38C8
0F88
0000
0000
0000
0000
0FF0
ENDCHAR
STARTCHAR 1E16
ENCODING 7702
SWIDTH 510 0
DWIDTH 17 0
BBX 13 31 3 1
BITMAP
0080
0100
0200
0000
0000
3FC0
0000
0000
0000
FFF0
C000
C000
C000
C000
C000
C000
C000
C000
C000
FFE0
C000
C000
C000
C000
C000
C000
C000
C000
C000
C000
FFF8
ENDCHAR
STARTCHAR 1E17
ENCODING 7703
SWIDTH 480 0
DWIDTH 16 0
BBX 13 27 2 0
BITMAP
00C0
0180
0600
0400
0000
1FE0
0000
0000
0000
0000
0000
0F80
1CE0
2030
4010
C018
C018
8018
FFF8
8000
8000
C000
C000
6000
3010
1C70
0FC0
ENDCHAR
STARTCHAR 1E20
ENCODING 7712
SWIDTH 600 0
DWIDTH 20 0
BBX 16 25 2 0
BITMAP
07FC
0000
0000
03F8
0F3C
1806
3000
6000
6000
4000
C000
C000
C000
8000
807F
C003
C003
C003
4003
6003
6003
3003
1803
0F3E
03F0
ENDCHAR
STARTCHAR 1E21
ENCODING 7713
SWIDTH 480 0
DWIDTH 16 0
BBX 14 30 2 -8
BITMAP
1FE0
0000
0000
0000
0000
0000
0FFC
30C0
6060
4020
4030
C030
4030
4020
6060
30C0
2F00
4000
4000
4000
7000
3FF8
4018
C00C
800C
800C
8008
C018
7060
1F80
ENDCHAR
STARTCHAR 1E24
ENCODING 7716
SWIDTH 630 0
DWIDTH 21 0
BBX 15 29 3 -7
BITMAP
C002
C002
C002
C002
C002
C002
C002
C002
C002
C002
FFFE
C002
C002
C002
C002
C002
C002
C002
C002
C002
C002
C002
0000
0000
0000
0000
0180
0380
0100
ENDCHAR
STARTCHAR 1E25
ENCODING 7717
SWIDTH 540 0
DWIDTH 18 0
BBX 12 31 3 -7
BITMAP
C000
C000
C000
C000
C000
C000
C000
C000
C780
D8E0
E020
C030
C030
C030
C030
C030
C030
C030
C030
C030
C030
C030
C030
C030
0000
0000
0000
0000
0600
0700
0200
ENDCHAR
STARTCHAR 1E2A
ENCODING 7722
SWIDTH 630 0
DWIDTH 21 0
BBX 15 30 3 -8
BITMAP
C002
C002
C002
C002
C002
C002
C002
C002
C002
C002
FFFE
C002
C002
C002
C002
C002
C002
C002
C002
C002
C002
C002
0000
0000
0000
1018
1010
1830
0C60
07C0
ENDCHAR
STARTCHAR 1E2B
ENCODING 7723
SWIDTH 540 0
DWIDTH 18 0
BBX 12 32 3 -8
BITMAP
C000
C000
C000
C000
C000
C000
C000
C000
C780
D8E0
E020
C030
C030
C030
C030
C030
C030
C030
C030
C030
C030
C030
C030
C030
0000
0000
0000
6020
2020
3060
18C0
0F80
ENDCHAR
STARTCHAR 1E32
ENCODING 7730
SWIDTH 570 0
DWIDTH 19 0
BBX 15 29 3 -7
BITMAP
C00C
C018
C030
C060
C040
C0C0
C180
C300
C700
CF00
D980
F180
E0C0
E040
C060
C030
C030
C018
C018
C00C
C004
C006
0000
0000
0000
0000
0180
0180
0100
ENDCHAR
STARTCHAR 1E33
ENCODING 7731
SWIDTH 450 0
DWIDTH 15 0
BBX 12 31 3 -7
BITMAP
C000
C000
C000
C000
C000
C000
C000
C000
C060
C0C0
C180
C100
C200
C600
CC00
DE00
D200
E300
E180
C080
C0C0
C060
C060
C030
0000
0000
0000
0000
0600
0E00
0400
ENDCHAR
STARTCHAR 1E34
ENCODING 7732
SWIDTH 570 0
DWIDTH 19 0
BBX 15 27 3 -5
BITMAP
C00C
C018
C030
C060
C040
C0C0
C180
C300
C700
CF00
D980
F180
E0C0
E040
C060
C030
C030
C018
C018
C00C
C004
C006
0000
0000
0000
0000
0FF0
ENDCHAR
STARTCHAR 1E35
ENCODING 7733
SWIDTH 450 0
DWIDTH 15 0
BBX 12 29 3 -5
BITMAP
C000
C000
C000
C000
C000
C000
C000
C000
C060
C0C0
C180
C100
C200
C600
CC00
DE00
D200
E300
E180
C080
C0C0
C060
C060
C030
0000
0000
0000
0000
7FC0
ENDCHAR
STARTCHAR 1E36
ENCODING 7734
SWIDTH 480 0
DWIDTH 16 0
BBX 12 29 3 -7
BITMAP
C000
C000
C000
C000
C000
C000
C000
C000
C000
C000
C000
C000
C000
C000
C000
C000
C000
C000
C000
C000
C000
FFF0
0000
0000
0000
0000
0300
0700
0200
ENDCHAR
STARTCHAR 1E37
ENCODING 7735
SWIDTH 240 0
DWIDTH 8 0
BBX 3 30 3 -6
BITMAP
C0
C0
C0
C0
C0
C0
C0
C0
C0
C0
C0
C0
C0
C0
C0
C0
C0
C0
C0
C0
C0
C0
C0
60
00
00
00
40
E0
60
ENDCHAR
STARTCHAR 1E38
ENCODING 7736
SWIDTH 480 0
DWIDTH 16 0
BBX 15 33 0 -7
BITMAP
FF00
0000
0000
0000
1800
1800
1800
1800
1800
1800
1800
1800
1800
1800
1800
1800
1800
1800
1800
1800
1800
1800
1800
1800
1800
1FFE
0000
0000
0000
0000
0060
00E0
0040
ENDCHAR
STARTCHAR 1E39
ENCODING 7737
SWIDTH 240 0
DWIDTH 8 0
BBX 8 35 0 -6
BITMAP
FF
00
00
00
00
18
18
18
18
18
18
18
18
18
18
18
18
18
18
18
18
18
18
18
18
18
18
18
0C
00
00
00
08
1C
0C
ENDCHAR
STARTCHAR 1E3A
ENCODING 7738
SWIDTH 480 0
DWIDTH 16 0
BBX 12 27 3 -5
BITMAP
C000
C000
C000
C000
C000
C000
C000
C000
C000
C000
C000
C000
C000
C000
C000
C000
C000
C000
C000
C000
C000
FFF0
0000
0000
0000
0000
3FE0
ENDCHAR
STARTCHAR 1E3B
ENCODING 7739
SWIDTH 240 0
DWIDTH 8 0
BBX 8 29 1 -5
BITMAP
30
30
30
30
30
30
30
30
30
30
30
30
30
30
30
30
30
30
30
30
30
30
30
18
00
00
00
00
FF
ENDCHAR
STARTCHAR 1E3E
ENCODING 7742
SWIDTH 720 0
DWIDTH 24 0
BBX 17 28 3 0
BITMAP
001000
002000
004000
008000
000000
000000
E00180
E00180
E00380
F00280
D00280
D00680
D80480
C80C80
C80880
CC0880
C41880
C41080
C61080
C23080
C32080
C12080
C16080
C1C080
C0C080
C0C080
C00080
C00080
ENDCHAR
STARTCHAR 1E3F
ENCODING 7743
SWIDTH 810 0
DWIDTH 27 0
BBX 21 25 3 0
BITMAP
000400
000C00
001800
003000
006000
004000
000000
000000
000000
8781E0
99C670
A06818
C03018
C02008
C02008
C02008
C02008
C02008
C02008
C02008
C02008
C02008
C02008
C02008
C02008
ENDCHAR
STARTCHAR 1E40
ENCODING 7744
SWIDTH 720 0
DWIDTH 24 0
BBX 17 27 3 0
BITMAP
008000
01C000
00C000
000000
000000
E00180
E00180
E00380
F00280
D00280
D00680
D80480
C80C80
C80880
CC0880
C41880
C41080
C61080
C23080
C32080
C12080
C16080
C1C080
C0C080
C0C080
C00080
C00080
ENDCHAR
STARTCHAR 1E41
ENCODING 7745
SWIDTH 810 0
DWIDTH 27 0
BBX 21 22 3 0
BITMAP
003000
007000
002000
000000
000000
000000
8781E0
99C670
A06818
C03018
C02008
C02008
C02008
C02008
C02008
C02008
C02008
C02008
C02008
C02008
C02008
C02008
ENDCHAR
STARTCHAR 1E42
ENCODING 7746
SWIDTH 720 0
DWIDTH 24 0
BBX 17 29 3 -7
BITMAP
E00180
E00180
E00380
F00280
D00280
D00680
D80480
C80C80
C80880
CC0880
C41880
C41080
C61080
C23080
C32080
C12080
C16080
C1C080
C0C080
C0C080
C00080
C00080
000000
000000
000000
000000
00C000
00C000
008000
ENDCHAR
STARTCHAR 1E43
ENCODING 7747
SWIDTH 810 0
DWIDTH 27 0
BBX 21 22 3 -7
BITMAP
8781E0
99C670
A06818
C03018
C02008
C02008
C02008
C02008
C02008
C02008
C02008
C02008
C02008
C02008
C02008
C02008
000000
000000
000000
000000
003000
003000
ENDCHAR
STARTCHAR 1E44
ENCODING 7748
SWIDTH 630 0
DWIDTH 21 0
BBX 15 27 3 0
BITMAP
0100
0380
0180
0000
0000
C006
E006
E006
F006
D806
C806
CC06
C406
C606
C306
C306
C186
C086
C0C6
C042
C062
C032
C012
C01A
C00A
C00E
C006
ENDCHAR
STARTCHAR 1E45
ENCODING 7749
SWIDTH 540 0
DWIDTH 18 0
BBX 12 22 3 0
BITMAP
0600
0700
0200
0000
0000
0000
8780
98E0
A020
C030
C030
C030
C030
C030
C030
C030
C030
C030
C030
C030
C030
C030
ENDCHAR
STARTCHAR 1E46
ENCODING 7750
SWIDTH 630 0
DWIDTH 21 0
BBX 15 29 3 -7
BITMAP
C006
E006
E006
F006
D806
C806
CC06
C406
C606
C306
C306
C186
C086
C0C6
C042
C062
C032
C012
C01A
C00A
C00E
C006
0000
0000
0000
0000
0180
0380
0100
ENDCHAR
STARTCHAR 1E47
ENCODING 7751
SWIDTH 540 0
DWIDTH 18 0
BBX 12 23 3 -7
BITMAP
8780
98E0
A020
C030
C030
C030
C030
C030
C030
C030
C030
C030
C030
C030
C030
C030
0000
0000
0000
0000
0600
0600
0200
ENDCHAR
STARTCHAR 1E48
ENCODING 7752
SWIDTH 630 0
DWIDTH 21 0
BBX 15 27 3 -5
BITMAP
C006
E006
E006
F006
D806
C806
CC06
C406
C606
C306
C306
C186
C086
C0C6
C042
C062
C032
C012
C01A
C00A
C00E
C006
0000
0000
0000
0000
0FF0
ENDCHAR
STARTCHAR 1E49
ENCODING 7753
SWIDTH 540 0
DWIDTH 18 0
BBX 12 21 3 -5
BITMAP
8780
98E0
A020
C030
C030
C030
C030
C030
C030
C030
C030
C030
C030
C030
C030
C030
0000
0000
0000
0000
3FC0
ENDCHAR
STARTCHAR 1E52
ENCODING 7762
SWIDTH 660 0
DWIDTH 22 0
BBX 18 30 2 1
BITMAP
003000
006000
008000
000000
000000
07F800
000000
000000
03F000
0F3C00
180600
300300
600100
600180
400080
C000C0
C000C0
C000C0
8000C0
8000C0
C000C0
C000C0
C000C0
400080
600180
600100
300300
180600
0F3C00
03F000
ENDCHAR
STARTCHAR 1E53
ENCODING 7763
SWIDTH 540 0
DWIDTH 18 0
BBX 14 27 2 0
BITMAP
00C0
0180
0300
0400
0000
1FE0
0000
0000
0000
0000
0000
0FC0
1CE0
3030
6018
C008
C00C
800C
8004
8004
800C
C00C
C008
6018
7030
1CE0
0FC0
ENDCHAR
STARTCHAR 1E58
ENCODING 7768
SWIDTH 540 0
DWIDTH 18 0
BBX 14 27 3 0
BITMAP
0200
0700
0600
0000
0000
FFC0
C0F0
C018
C008
C00C
C00C
C00C
C00C
C008
C018
C0F0
FFC0
C100
C180
C0C0
C0C0
C060
C020
C030
C018
C018
C00C
ENDCHAR
STARTCHAR 1E59
ENCODING 7769
SWIDTH 330 0
DWIDTH 11 0
BBX 8 22 3 0
BITMAP
18
38
10
00
00
00
8F
9A
A0
E0
C0
C0
C0
C0
C0
C0
C0
C0
C0
C0
C0
C0
ENDCHAR
STARTCHAR 1E5A
ENCODING 7770
SWIDTH 540 0
DWIDTH 18 0
BBX 14 29 3 -7
BITMAP
FFC0
C0F0
C018
C008
C00C
C00C
C00C
C00C
C008
C018
C0F0
FFC0
C100
C180
C0C0
C0C0
C060
C020
C030
C018
C018
C00C
0000
0000
0000
0000
0300
0700
0200
ENDCHAR
STARTCHAR 1E5B
ENCODING 7771
SWIDTH 330 0
DWIDTH 11 0
BBX 9 23 2 -7
BITMAP
4780
4D00
5000
7000
6000
6000
6000
6000
6000
6000
6000
6000
6000
6000
6000
6000
0000
0000
0000
0000
6000
E000
4000
ENDCHAR
STARTCHAR 1E5C
ENCODING 7772
SWIDTH 540 0
DWIDTH 18 0
BBX 14 33 3 -7
BITMAP
3FC0
0000
0000
0000
FFC0
C0F0
C018
C008
C00C
C00C
C00C
C00C
C008
C018
C0F0
FFC0
C100
C180
C0C0
C0C0
C060
C020
C030
C018
C018
C00C
0000
0000
0000
0000
0300
0700
0200
ENDCHAR
STARTCHAR 1E5D
ENCODING 7773
SWIDTH 330 0
DWIDTH 11 0
BBX 9 29 2 -7
BITMAP
7F80
0000
0000
0000
0000
0000
4780
4D00
5000
7000
6000
6000
6000
6000
6000
6000
6000
6000
6000
6000
6000
6000
0000
0000
0000
0000
6000
E000
4000
ENDCHAR
STARTCHAR 1E5E
ENCODING 7774
SWIDTH 540 0
DWIDTH 18 0
BBX 14 27 3 -5
BITMAP
FFC0
C0F0
C018
C008
C00C
C00C
C00C
C00C
C008
C018
C0F0
FFC0
C100
C180
C0C0
C0C0
C060
C020
C030
C018
C018
C00C
0000
0000
0000
0000
1FE0
ENDCHAR
STARTCHAR 1E5F
ENCODING 7775
SWIDTH 330 0
DWIDTH 11 0
BBX 11 21 0 -5
BITMAP
11E0
1340
1400
1C00
1800
1800
1800
1800
1800
1800
1800
1800
1800
1800
1800
1800
0000
0000
0000
0000
FF00
ENDCHAR
STARTCHAR 1E60
ENCODING 7776
SWIDTH 510 0
DWIDTH 17 0
BBX 14 26 2 0
BITMAP
0300
0300
0000
0000
0FC0
1CF0
2018
6000
4000
4000
6000
6000
3800
1E00
0780
01E0
0030
0018
000C
000C
000C
000C
800C
E018
3CF0
0FC0
ENDCHAR
STARTCHAR 1E61
ENCODING 7777
SWIDTH 420 0
DWIDTH 14 0
BBX 11 22 1 0
BITMAP
0600
0600
0000
0000
0000
0000
1F80
31C0
6000
4000
4000
6000
3800
1E00
03C0
00E0
0060
0020
0020
C060
70C0
1F80
ENDCHAR
STARTCHAR 1E62
ENCODING 7778
SWIDTH 510 0
DWIDTH 17 0
BBX 14 28 2 -6
BITMAP
0FC0
1CF0
2018
6000
4000
4000
6000
6000
3800
1E00
0780
01E0
0030
0018
000C
000C
000C
000C
800C
E018
3CF0
0FC0
0000
0000
0000
0000
0300
0300
ENDCHAR
STARTCHAR 1E63
ENCODING 7779
SWIDTH 420 0
DWIDTH 14 0
BBX 11 22 1 -6
BITMAP
1F80
31C0
6000
4000
4000
6000
3800
1E00
03C0
00E0
0060
0020
0020
C060
70C0
1F80
0000
0000
0000
0200
0700
0600
ENDCHAR
STARTCHAR 1E6C
ENCODING 7788
SWIDTH 510 0
DWIDTH 17 0
BBX 15 29 1 -7
BITMAP
FFFE
0100
0100
0100
0100
0100
0100
0100
0100
0100
0100
0100
0100
0100
0100
0100
0100
0100
0100
0100
0100
0100
0000
0000
0000
0000
0180
0380
0100
ENDCHAR
STARTCHAR 1E6D
ENCODING 7789
SWIDTH 300 0
DWIDTH 10 0
BBX 9 27 1 -6
BITMAP
1000
1000
1000
1000
3000
FF80
3000
3000
3000
3000
3000
3000
3000
3000
3000
3000
3000
1000
1000
1D80
0F80
0000
0000
0000
0400
0E00
0600
ENDCHAR
STARTCHAR 1E6E
ENCODING 7790
SWIDTH 510 0
DWIDTH 17 0
BBX 15 27 1 -5
BITMAP
FFFE
0100
0100
0100
0100
0100
0100
0100
0100
0100
0100
0100
0100
0100
0100
0100
0100
0100
0100
0100
0100
0100
0000
0000
0000
0000
0FF0
ENDCHAR
STARTCHAR 1E6F
ENCODING 7791
SWIDTH 300 0
DWIDTH 10 0
BBX 10 26 1 -5
BITMAP
1000
1000
1000
1000
3000
FF80
3000
3000
3000
3000
3000
3000
3000
3000
3000
3000
3000
1000
1000
1D80
0F80
0000
0000
0000
0000
3FC0
ENDCHAR
STARTCHAR 1E80
ENCODING 7808
SWIDTH 780 0
DWIDTH 26 0
BBX 24 28 1 0
BITMAP
00C000
006000
003000
001800
000000
000000
C01803
C01802
C03802
402C06
602C06
602404
606404
204604
20460C
30420C
30C208
108308
108118
108118
198110
190190
090090
090090
0A00B0
0E00E0
060060
060060
ENDCHAR
STARTCHAR 1E81
ENCODING 7809
SWIDTH 690 0
DWIDTH 23 0
BBX 21 25 1 0
BITMAP
010000
018000
00C000
006000
003000
001000
000000
000000
000000
C06018
C07018
405010
405010
60D830
608820
208820
218860
310C60
110440
110440
1B06C0
1A0680
0A0280
0A0280
0C0380
ENDCHAR
STARTCHAR 1E82
ENCODING 7810
SWIDTH 780 0
DWIDTH 26 0
BBX 24 28 1 0
BITMAP
000200
000600
000800
001000
000000
000000
C01803
C01802
C03802
402C06
602C06
602404
606404
204604
20460C
30420C
30C208
108308
108118
108118
198110
190190
090090
090090
0A00B0
0E00E0
060060
060060
ENDCHAR
STARTCHAR 1E83
ENCODING 7811
SWIDTH 690 0
DWIDTH 23 0
BBX 21 25 1 0
BITMAP
000400
000C00
001800
003000
006000
004000
000000
000000
000000
C06018
C07018
405010
405010
60D830
608820
208820
218860
310C60
110440
110440
1B06C0
1A0680
0A0280
0A0280
0C0380
ENDCHAR
STARTCHAR 1E84
ENCODING 7812
SWIDTH 780 0
DWIDTH 26 0
BBX 24 26 1 0
BITMAP
01C300
00C300
000000
000000
C01803
C01802
C03802
402C06
602C06
602404
606404
204604
20460C
30420C
30C208
108308
108118
108118
198110
190190
090090
090090
0A00B0
0E00E0
060060
060060
ENDCHAR
STARTCHAR 1E85
ENCODING 7813
SWIDTH 690 0
DWIDTH 23 0
BBX 21 22 1 0
BITMAP
038E00
030C00
000000
000000
000000
000000
C06018
C07018
405010
405010
60D830
608820
208820
218860
310C60
110440
110440
1B06C0
1A0680
0A0280
0A0280
0C0380
ENDCHAR
STARTCHAR 1E8E
ENCODING 7822
SWIDTH 450 0
DWIDTH 15 0
BBX 15 27 0 0
BITMAP
0100
0380
0300
0000
0000
C006
4004
600C
2008
3018
1010
1830
0820
0C40
0440
0680
0280
0300
0100
0100
0100
0100
0100
0100
0100
0100
0100
ENDCHAR
STARTCHAR 1E8F
ENCODING 7823
SWIDTH 450 0
DWIDTH 15 0
BBX 13 30 1 -7
BITMAP
0200
0700
0300
0000
0000
0000
0000
8018
C018
C010
4030
6030
2020
3060
3040
1040
18C0
0880
0C80
0D80
0500
0700
0300
0200
0200
0600
0400
0C00
B800
E000
ENDCHAR
STARTCHAR 1E92
ENCODING 7826
SWIDTH 540 0
DWIDTH 18 0
BBX 14 29 2 -7
BITMAP
7FFC
000C
0008
0018
0030
0020
0060
00C0
0080
0180
0300
0200
0600
0400
0C00
1800
1000
3000
6000
4000
C000
FFFC
0000
0000
0000
0000
0300
0380
0100
ENDCHAR
STARTCHAR 1E93
ENCODING 7827
SWIDTH 390 0
DWIDTH 13 0
BBX 12 23 1 -7
BITMAP
7FE0
0060
0040
0080
0180
0300
0200
0600
0C00
0800
1800
3000
2000
6000
C000
FFF0
0000
0000
0000
0000
0600
0700
0200
ENDCHAR
STARTCHAR 1E94
ENCODING 7828
SWIDTH 540 0
DWIDTH 18 0
BBX 14 27 2 -5
BITMAP
7FFC
000C
0008
0018
0030
0020
0060
00C0
0080
0180
0300
0200
0600
0400
0C00
1800
1000
3000
6000
4000
C000
FFFC
0000
0000
0000
0000
1FE0
ENDCHAR
STARTCHAR 1E95
ENCODING 7829
SWIDTH 390 0
DWIDTH 13 0
BBX 12 21 1 -5
BITMAP
7FE0
0060
0040
0080
0180
0300
0200
0600
0C00
0800
1800
3000
2000
6000
C000
FFF0
0000
0000
0000
0000
3FC0
ENDCHAR
STARTCHAR 1E96
ENCODING 7830
SWIDTH 540 0
DWIDTH 18 0
BBX 12 29 3 -5
BITMAP
C000
C000
C000
C000
C000
C000
C000
C000
C780
D8E0
E020
C030
C030
C030
C030
C030
C030
C030
C030
C030
C030
C030
C030
C030
0000
0000
0000
0000
3FC0
ENDCHAR
STARTCHAR 1E97
ENCODING 7831
SWIDTH 300 0
DWIDTH 10 0
BBX 10 27 0 0
BITMAP
C300
E300
0000
0000
0000
0000
0800
0800
0800
0800
1800
7FC0
1800
1800
1800
1800
1800
1800
1800
1800
1800
1800
1800
0800
0800
0EC0
07C0
ENDCHAR
STARTCHAR 1E9E
ENCODING 7838
SWIDTH 630 0
DWIDTH 21 0
BBX 17 22 3 0
BITMAP
07E000
1E7800
300C00
600400
600600
400C00
C01800
C03000
C06000
C04000
C0F000
C03C00
C00700
C00300
C00180
C00180
C00180
C00180
C00180
C60300
C38E00
C0F800
ENDCHAR
STARTCHAR 1EA0
ENCODING 7840
SWIDTH 540 0
DWIDTH 18 0
BBX 17 29 0 -7
BITMAP
00C000
01C000
014000
016000
032000
022000
023000
061000
041800
041800
0C0800
080C00
080C00
1FFC00
100600
100600
300200
200300
600300
600100
400180
C00180
000000
000000
000000
000000
00C000
01C000
008000
ENDCHAR
STARTCHAR 1EA1
ENCODING 7841
SWIDTH 480 0
DWIDTH 16 0
BBX 12 22 2 -6
BITMAP
0F80
39C0
4060
0020
0030
0030
00F0
0F30
3030
4030
C030
8030
C030
C070
63B0
3E30
0000
0000
0000
0000
0600
0600
ENDCHAR
STARTCHAR 1EA2
ENCODING 7842
SWIDTH 540 0
DWIDTH 18 0
BBX 17 29 0 0
BITMAP
01C000
006000
002000
002000
00C000
000000
000000
00C000
01C000
014000
016000
032000
022000
023000
061000
041800
041800
0C0800
080C00
080C00
1FFC00
100600
100600
300200
200300
600100
600100
400180
C00080
ENDCHAR
STARTCHAR 1EA3
ENCODING 7843
SWIDTH 480 0
DWIDTH 16 0
BBX 12 24 2 0
BITMAP
0700
0180
0180
0180
0700
0000
0000
0000
0F80
39C0
4060
0020
0030
0030
01F0
0F30
3030
4030
C030
8030
C030
C070
63B0
3E30
ENDCHAR
STARTCHAR 1EA4
ENCODING 7844
SWIDTH 540 0
DWIDTH 18 0
BBX 17 29 0 0
BITMAP
000200
000400
00C800
036000
061000
000000
000000
00C000
01C000
014000
016000
032000
022000
023000
061000
041800
041800
0C0800
080C00
080C00
1FFC00
100600
100600
300200
200300
600300
600100
400180
C00180
ENDCHAR
STARTCHAR 1EA5
ENCODING 7845
SWIDTH 480 0
DWIDTH 16 0
BBX 13 25 2 0
BITMAP
0008
0018
0030
0720
0D80
1040
0000
0000
0000
0F80
39C0
4060
0020
0030
0030
00F0
0F30
3030
4030
C030
8030
C030
C070
63B0
3E30
ENDCHAR
STARTCHAR 1EA6
ENCODING 7846
SWIDTH 540 0
DWIDTH 18 0
BBX 17 29 0 0
BITMAP
100000
080000
0CC000
036000
061000
000000
000000
00C000
01C000
014000
016000
032000
022000
023000
061000
041800
041800
0C0800
080C00
080C00
1FFC00
100600
100600
300200
200300
600300
600100
400180
C00180
ENDCHAR
STARTCHAR 1EA7
ENCODING 7847
SWIDTH 480 0
DWIDTH 16 0
BBX 13 25 1 0
BITMAP
8000
4000
2000
1380
06C0
0820
0000
0000
0000
07C0
1CE0
2030
0010
0018
0018
0078
0798
1818
2018
6018
4018
6018
6038
31D8
1F18
ENDCHAR
STARTCHAR 1EA8
ENCODING 7848
SWIDTH 540 0
DWIDTH 18 0
BBX 17 30 0 0
BITMAP
001C00
000600
000200
00C400
036800
061000
000000
000000
00C000
01C000
014000
016000
032000
022000
023000
061000
041800
041800
0C0800
080C00
080C00
1FFC00
100600
100600
300200
200300
600100
600100
400180
C00080
ENDCHAR
STARTCHAR 1EA9
ENCODING 7849
SWIDTH 480 0
DWIDTH 16 0
BBX 13 25 2 0
BITMAP
0060
0010
0018
0730
0D80
1040
0000
0000
0000
0F80
39C0
4060
0020
0030
0030
01F0
0F30
3030
4030
C030
8030
C030
C070
63B0
3E30
ENDCHAR
STARTCHAR 1EAA
ENCODING 7850
SWIDTH 540 0
DWIDTH 18 0
BBX 17 31 0 0
BITMAP
070800
0CC800
087800
000000
00C000
036000
061000
000000
000000
00C000
01C000
014000
016000
032000
022000
023000
061000
041800
041800
0C0800
080C00
080C00
1FFC00
100600
100600
300200
200300
600300
600100
400180
C00180
ENDCHAR
STARTCHAR 1EAB
ENCODING 7851
SWIDTH 480 0
DWIDTH 16 0
BBX 12 26 2 0
BITMAP
1C20
3720
21C0
0000
0700
0D80
1040
0000
0000
0000
0F80
39C0
4060
0020
0030
0030
00F0
0F30
3030
4030
C030
8030
C030
C070
63B0
3E30
ENDCHAR
STARTCHAR 1EAC
ENCODING 7852
SWIDTH 540 0
DWIDTH 18 0
BBX 17 35 0 -7
BITMAP
00C000
016000
023000
040800
000000
000000
00C000
01C000
014000
016000
032000
022000
023000
061000
041800
041800
0C0800
080C00
080C00
1FFC00
100600
100600
300200
200300
600300
600100
400180
C00180
000000
000000
000000
000000
00C000
01C000
008000
ENDCHAR
STARTCHAR 1EAD
ENCODING 7853
SWIDTH 480 0
DWIDTH 16 0
BBX 12 30 2 -6
BITMAP
0700
0D80
0880
1040
2020
0000
0000
0000
0F80
39C0
4060
0020
0030
0030
00F0
0F30
3030
4030
C030
8030
C030
C070
63B0
3E30
0000
0000
0000
0000
0600
0600
ENDCHAR
STARTCHAR 1EAE
ENCODING 7854
SWIDTH 540 0
DWIDTH 18 0
BBX 17 31 0 0
BITMAP
003000
002000
004000
0C8800
040800
061000
03E000
000000
000000
00C000
01C000
014000
016000
032000
022000
023000
061000
041800
041800
0C0800
080C00
080C00
1FFC00
100600
100600
300200
200300
600300
600100
400180
C00180
ENDCHAR
STARTCHAR 1EAF
ENCODING 7855
SWIDTH 480 0
DWIDTH 16 0
BBX 12 26 2 1
BITMAP
0180
0100
2220
2020
3060
18C0
0F80
0000
0000
0000
0F80
39C0
4060
0020
0030
0030
00F0
0F30
3030
4030
C030
8030
C030
C070
63B0
3E30
ENDCHAR
STARTCHAR 1EB0
ENCODING 7856
SWIDTH 540 0
DWIDTH 18 0
BBX 17 31 0 0
BITMAP
020000
030000
018000
0CC800
040800
061000
03E000
000000
000000
00C000
01C000
014000
016000
032000
022000
023000
061000
041800
041800
0C0800
080C00
080C00
1FFC00
100600
100600
300200
200300
600300
600100
400180
C00180
ENDCHAR
STARTCHAR 1EB1
ENCODING 7857
SWIDTH 480 0
DWIDTH 16 0
BBX 12 26 2 1
BITMAP
0C00
0400
2220
2020
3060
18C0
0F80
0000
0000
0000
0F80
39C0
4060
0020
0030
0030
00F0
0F30
3030
4030
C030
8030
C030
C070
63B0
3E30
ENDCHAR
STARTCHAR 1EB2
ENCODING 7858
SWIDTH 540 0
DWIDTH 18 0
BBX 17 31 0 0
BITMAP
01C000
006000
002000
08C800
040800
061000
03E000
000000
000000
00C000
01C000
014000
016000
032000
022000
023000
061000
041800
041800
0C0800
080C00
080C00
1FFC00
100600
100600
300200
200300
600100
600100
400180
C00080
ENDCHAR
STARTCHAR 1EB3
ENCODING 7859
SWIDTH 480 0
DWIDTH 16 0
BBX 12 27 2 0
BITMAP
0700
0180
0180
2120
2220
3020
18C0
0F80
0000
0000
0000
0F80
39C0
4060
0020
0030
0030
01F0
0F30
3030
4030
C030
8030
C030
C070
63B0
3E30
ENDCHAR
STARTCHAR 1EB4
ENCODING 7860
SWIDTH 540 0
DWIDTH 18 0
BBX 17 31 0 0
BITMAP
070800
0CC800
087800
000000
0C0800
061000
03E000
000000
000000
00C000
01C000
014000
016000
032000
022000
023000
061000
041800
041800
0C0800
080C00
080C00
1FFC00
100600
100600
300200
200300
600300
600100
400180
C00180
ENDCHAR
STARTCHAR 1EB5
ENCODING 7861
SWIDTH 480 0
DWIDTH 16 0
BBX 12 26 2 0
BITMAP
1C20
3720
21C0
0000
2020
1040
0F80
0000
0000
0000
0F80
39C0
4060
0020
0030
0030
00F0
0F30
3030
4030
C030
8030
C030
C070
63B0
3E30
ENDCHAR
STARTCHAR 1EB6
ENCODING 7862
SWIDTH 540 0
DWIDTH 18 0
BBX 17 35 0 -7
BITMAP
0C0800
040800
061000
03E000
000000
000000
00C000
01C000
014000
016000
032000
022000
023000
061000
041800
041800
0C0800
080C00
080C00
1FFC00
100600
100600
300200
200300
600300
600100
400180
C00180
000000
000000
000000
000000
00C000
01C000
008000
ENDCHAR
STARTCHAR 1EB7
ENCODING 7863
SWIDTH 480 0
DWIDTH 16 0
BBX 12 30 2 -6
BITMAP
2020
2020
3060
18C0
0F80
0000
0000
0000
0F80
39C0
4060
0020
0030
0030
00F0
0F30
3030
4030
C030
8030
C030
C070
63B0
3E30
0000
0000
0000
0000
0600
0600
ENDCHAR
STARTCHAR 1EB8
ENCODING 7864
SWIDTH 510 0
DWIDTH 17 0
BBX 13 29 3 -7
BITMAP
FFF0
C000
C000
C000
C000
C000
C000
C000
C000
C000
FFE0
C000
C000
C000
C000
C000
C000
C000
C000
C000
C000
FFF8
0000
0000
0000
0000
0300
0300
0200
ENDCHAR
STARTCHAR 1EB9
ENCODING 7865
SWIDTH 480 0
DWIDTH 16 0
BBX 13 22 2 -6
BITMAP
0F80
1CE0
2030
4010
C018
C018
8018
FFF8
8000
8000
C000
C000
6000
3010
1C70
0FC0
0000
0000
0000
0200
0700
0300
ENDCHAR
STARTCHAR 1EBA
ENCODING 7866
SWIDTH 510 0
DWIDTH 17 0
BBX 13 29 3 0
BITMAP
0600
0300
0180
0180
0700
0000
0000
FFF0
C000
C000
C000
C000
C000
C000
C000
C000
C000
FFE0
C000
C000
C000
C000
C000
C000
C000
C000
C000
C000
FFF8
ENDCHAR
STARTCHAR 1EBB
ENCODING 7867
SWIDTH 480 0
DWIDTH 16 0
BBX 13 24 2 0
BITMAP
0700
0180
0080
0180
0300
0000
0000
0000
0F80
1CE0
2030
4010
C018
C018
8018
FFF8
8000
8000
C000
C000
6000
3010
1C70
0FC0
ENDCHAR
STARTCHAR 1EBC
ENCODING 7868
SWIDTH 510 0
DWIDTH 17 0
BBX 13 28 3 0
BITMAP
3C10
2630
4320
41C0
0000
0000
FFF0
C000
C000
C000
C000
C000
C000
C000
C000
C000
FFE0
C000
C000
C000
C000
C000
C000
C000
C000
C000
C000
FFF8
ENDCHAR
STARTCHAR 1EBD
ENCODING 7869
SWIDTH 480 0
DWIDTH 16 0
BBX 13 23 2 0
BITMAP
1C10
2610
6330
41E0
0000
0000
0000
0F80
1CE0
2030
4010
C018
C018
8018
FFF8
8000
8000
C000
C000
6000
3010
1C70
0FC0
ENDCHAR
STARTCHAR 1EBE
ENCODING 7870
SWIDTH 510 0
DWIDTH 17 0
BBX 13 29 3 0
BITMAP
0018
0030
0760
0D80
10C0
0000
0000
FFF0
C000
C000
C000
C000
C000
C000
C000
C000
C000
FFE0
C000
C000
C000
C000
C000
C000
C000
C000
C000
C000
FFF8
ENDCHAR
STARTCHAR 1EBF
ENCODING 7871
SWIDTH 480 0
DWIDTH 16 0
BBX 13 25 2 0
BITMAP
0008
0018
0010
0720
0D80
1060
0000
0000
0000
0F80
1CE0
2030
4010
C018
C018
8018
FFF8
8000
8000
C000
C000
6000
3010
1C70
0FC0
ENDCHAR
STARTCHAR 1EC0
ENCODING 7872
SWIDTH 510 0
DWIDTH 17 0
BBX 13 29 3 0
BITMAP
C000
6000
2700
0D80
10C0
0000
0000
FFF0
C000
C000
C000
C000
C000
C000
C000
C000
C000
FFE0
C000
C000
C000
C000
C000
C000
C000
C000
C000
C000
FFF8
ENDCHAR
STARTCHAR 1EC1
ENCODING 7873
SWIDTH 480 0
DWIDTH 16 0
BBX 14 25 1 0
BITMAP
C000
6000
3000
1B80
06C0
0830
0000
0000
0000
07C0
0E70
1018
2008
600C
600C
400C
7FFC
4000
4000
6000
6000
3000
1808
0E38
07E0
ENDCHAR
STARTCHAR 1EC2
ENCODING 7874
SWIDTH 510 0
DWIDTH 17 0
BBX 13 30 3 0
BITMAP
0060
0010
0010
0730
0DA0
10C0
0000
0000
FFF0
C000
C000
C000
C000
C000
C000
C000
C000
C000
FFE0
C000
C000
C000
C000
C000
C000
C000
C000
C000
C000
FFF8
ENDCHAR
STARTCHAR 1EC3
ENCODING 7875
SWIDTH 480 0
DWIDTH 16 0
BBX 13 25 2 0
BITMAP
0070
0018
0018
0710
0DA0
1060
0000
0000
0000
0F80
1CE0
2030
4010
C018
C018
8018
FFF8
8000
8000
C000
C000
6000
3010
1C70
0FC0
ENDCHAR
STARTCHAR 1EC4
ENCODING 7876
SWIDTH 510 0
DWIDTH 17 0
BBX 13 31 3 0
BITMAP
1C20
2720
21C0
0000
0700
0D80
10C0
0000
0000
FFF0
C000
C000
C000
C000
C000
C000
C000
C000
C000
FFE0
C000
C000
C000
C000
C000
C000
C000
C000
C000
C000
FFF8
ENDCHAR
STARTCHAR 1EC5
ENCODING 7877
SWIDTH 480 0
DWIDTH 16 0
BBX 13 26 2 0
BITMAP
1C20
1720
21C0
0000
0700
0D80
1060
0000
0000
0000
0F80
1CE0
2030
4010
C018
C018
8018
FFF8
8000
8000
C000
C000
6000
3010
1C70
0FC0
ENDCHAR
STARTCHAR 1EC6
ENCODING 7878
SWIDTH 510 0
DWIDTH 17 0
BBX 13 35 3 -7
BITMAP
0700
0D80
18C0
3060
0000
0000
FFF0
C000
C000
C000
C000
C000
C000
C000
C000
C000
FFE0
C000
C000
C000
C000
C000
C000
C000
C000
C000
C000
FFF8
0000
0000
0000
0000
0300
0300
0200
ENDCHAR
STARTCHAR 1EC7
ENCODING 7879
SWIDTH 480 0
DWIDTH 16 0
BBX 13 30 2 -6
BITMAP
0700
0580
08C0
1040
3020
0000
0000
0000
0F80
1CE0
2030
4010
C018
C018
8018
FFF8
8000
8000
C000
C000
6000
3010
1C70
0FC0
0000
0000
0000
0200
0700
0300
ENDCHAR
STARTCHAR 1EC8
ENCODING 7880
SWIDTH 240 0
DWIDTH 8 0
BBX 4 29 2 0
BITMAP
E0
30
10
10
60
00
00
60
60
60
60
60
60
60
60
60
60
60
60
60
60
60
60
60
60
60
60
60
60
ENDCHAR
STARTCHAR 1EC9
ENCODING 7881
SWIDTH 240 0
DWIDTH 8 0
BBX 4 25 2 0
BITMAP
E0
30
10
10
60
00
00
00
00
60
60
60
60
60
60
60
60
60
60
60
60
60
60
60
60
ENDCHAR
STARTCHAR 1ECA
ENCODING 7882
SWIDTH 240 0
DWIDTH 8 0
BBX 2 28 3 -7
BITMAP
C0
C0
C0
C0
C0
C0
C0
C0
C0
C0
C0
C0
C0
C0
C0
C0
C0
C0
C0
C0
C0
C0
00
00
00
00
C0
C0
ENDCHAR
STARTCHAR 1ECB
ENCODING 7883
SWIDTH 240 0
DWIDTH 8 0
BBX 2 29 3 -6
BITMAP
C0
C0
00
00
00
00
C0
C0
C0
C0
C0
C0
C0
C0
C0
C0
C0
C0
C0
C0
C0
C0
00
00
00
00
C0
C0
80
ENDCHAR
STARTCHAR 1ECC
ENCODING 7884
SWIDTH 660 0
DWIDTH 22 0
BBX 18 28 2 -6
BITMAP
03F000
0F3C00
180600
300300
600100
600180
400080
C000C0
C000C0
C000C0
8000C0
8000C0
C000C0
C000C0
C000C0
400080
600180
600100
300300
180600
0F3C00
03F000
000000
000000
000000
008000
00C000
00C000
ENDCHAR
STARTCHAR 1ECD
ENCODING 7885
SWIDTH 540 0
DWIDTH 18 0
BBX 14 22 2 -6
BITMAP
0FC0
1CE0
3030
6018
C008
C00C
800C
8004
8004
800C
C00C
C008
6018
7030
1CE0
0FC0
0000
0000
0000
0000
0300
0300
ENDCHAR
STARTCHAR 1ECE
ENCODING 7886
SWIDTH 660 0
DWIDTH 22 0
BBX 18 28 2 0
BITMAP
01C000
006000
002000
006000
00C000
000000
03F000
0F3C00
180600
300300
600100
600180
400080
C000C0
C000C0
C000C0
8000C0
8000C0
C000C0
C000C0
C000C0
400080
600180
600100
300300
180600
0F3C00
03F000
ENDCHAR
STARTCHAR 1ECF
ENCODING 7887
SWIDTH 540 0
DWIDTH 18 0
BBX 14 24 2 0
BITMAP
0700
0180
0080
0080
0300
0000
0000
0000
0FC0
1CE0
3030
6018
C008
C00C
800C
8004
8004
800C
C00C
C008
6018
7030
1CE0
0FC0
ENDCHAR
STARTCHAR 1ED0
ENCODING 7888
SWIDTH 660 0
DWIDTH 22 0
BBX 18 29 2 0
BITMAP
000300
000400
00C800
016000
021000
040000
000000
03F000
0F3C00
180600
300300
600100
600180
400080
C000C0
C000C0
C000C0
8000C0
8000C0
C000C0
C000C0
C000C0
400080
600180
600100
300300
180600
0F3C00
03F000
ENDCHAR
STARTCHAR 1ED1
ENCODING 7889
SWIDTH 540 0
DWIDTH 18 0
BBX 14 25 2 0
BITMAP
000C
0008
0010
0720
0CC0
1860
0000
0000
0000
0FC0
1CE0
3030
6018
C008
C00C
800C
8004
8004
800C
C00C
C008
6018
7030
1CE0
0FC0
ENDCHAR
STARTCHAR 1ED2
ENCODING 7890
SWIDTH 660 0
DWIDTH 22 0
BBX 18 29 2 0
BITMAP
100000
080000
04C000
016000
021000
040000
000000
03F000
0F3C00
180600
300300
600100
600180
400080
C000C0
C000C0
C000C0
8000C0
8000C0
C000C0
C000C0
C000C0
400080
600180
600100
300300
180600
0F3C00
03F000
ENDCHAR
STARTCHAR 1ED3
ENCODING 7891
SWIDTH 540 0
DWIDTH 18 0
BBX 14 25 2 0
BITMAP
8000
C000
6000
3700
0CC0
1860
0000
0000
0000
0FC0
1CE0
3030
6018
C008
C00C
800C
8004
8004
800C
C00C
C008
6018
7030
1CE0
0FC0
ENDCHAR
STARTCHAR 1ED4
ENCODING 7892
SWIDTH 660 0
DWIDTH 22 0
BBX 18 30 2 0
BITMAP
001C00
000600
000200
00C600
016800
021000
040000
000000
03F000
0F3C00
180600
300300
600100
600180
400080
C000C0
C000C0
C000C0
8000C0
8000C0
C000C0
C000C0
C000C0
400080
600180
600100
300300
180600
0F3C00
03F000
ENDCHAR
STARTCHAR 1ED5
ENCODING 7893
SWIDTH 540 0
DWIDTH 18 0
BBX 14 25 2 0
BITMAP
0070
0018
0008
0710
0CE0
1860
0000
0000
0000
0FC0
1CE0
3030
6018
C008
C00C
800C
8004
8004
800C
C00C
C008
6018
7030
1CE0
0FC0
ENDCHAR
STARTCHAR 1ED6
ENCODING 7894
SWIDTH 660 0
DWIDTH 22 0
BBX 18 30 2 0
BITMAP
078800
08F800
000000
00C000
016000
021000
040000
000000
03F000
0F3C00
180600
300300
600100
600180
400080
C000C0
C000C0
C000C0
8000C0
8000C0
C000C0
C000C0
C000C0
400080
600180
600100
300300
180600
0F3C00
03F000
ENDCHAR
STARTCHAR 1ED7
ENCODING 7895
SWIDTH 540 0
DWIDTH 18 0
BBX 14 26 2 0
BITMAP
1C20
1720
11C0
0000
0700
0CC0
1860
0000
0000
0000
0FC0
1CE0
3030
6018
C008
C00C
800C
8004
8004
800C
C00C
C008
6018
7030
1CE0
0FC0
ENDCHAR
STARTCHAR 1ED8
ENCODING 7896
SWIDTH 660 0
DWIDTH 22 0
BBX 18 34 2 -6
BITMAP
00C000
016000
023000
041800
000800
000000
03F000
0F3C00
180600
300300
600100
600180
400080
C000C0
C000C0
C000C0
8000C0
8000C0
C000C0
C000C0
C000C0
400080
600180
600100
300300
180600
0F3C00
03F000
000000
000000
000000
008000
00C000
00C000
ENDCHAR
STARTCHAR 1ED9
ENCODING 7897
SWIDTH 540 0
DWIDTH 18 0
BBX 14 30 2 -6
BITMAP
0300
0580
0CC0
1860
3020
0000
0000
0000
0FC0
1CE0
3030
6018
C008
C00C
800C
8004
8004
800C
C00C
C008
6018
7030
1CE0
0FC0
0000
0000
0000
0000
0300
0300
ENDCHAR
STARTCHAR 1EDA
ENCODING 7898
SWIDTH 660 0
DWIDTH 22 0
BBX 18 28 2 0
BITMAP
001000
003000
0060C0
00C0C0
0080C0
0000C0
03F180
0F3E00
180600
300300
200180
600180
400080
C000C0
C000C0
C000C0
C000C0
C000C0
C000C0
C000C0
C000C0
400080
600180
200180
300300
180600
0F3C00
03F000
ENDCHAR
STARTCHAR 1EDB
ENCODING 7899
SWIDTH 540 0
DWIDTH 18 0
BBX 15 25 2 0
BITMAP
0040
00C0
0080
0100
0204
0606
0006
0006
0004
0FD8
1CE0
3030
6018
C00C
C00C
800C
8004
8004
800C
C00C
C008
6018
7030
1CE0
0FC0
ENDCHAR
STARTCHAR 1EDC
ENCODING 7900
SWIDTH 660 0
DWIDTH 22 0
BBX 18 28 2 0
BITMAP
020000
030000
0180C0
00C0C0
0040C0
0000C0
03F180
0F3E00
180600
300300
200180
600180
400080
C000C0
C000C0
C000C0
C000C0
C000C0
C000C0
C000C0
C000C0
400080
600180
200180
300300
180600
0F3C00
03F000
ENDCHAR
STARTCHAR 1EDD
ENCODING 7901
SWIDTH 540 0
DWIDTH 18 0
BBX 15 25 2 0
BITMAP
0800
0800
0C00
0600
0304
0186
0006
0006
0004
0FD8
1CE0
3030
6018
C00C
C00C
800C
8004
8004
800C
C00C
C008
6018
7030
1CE0
0FC0
ENDCHAR
STARTCHAR 1EDE
ENCODING 7902
SWIDTH 660 0
DWIDTH 22 0
BBX 18 28 2 0
BITMAP
01C000
006000
002080
0060C0
00C0C0
0000C0
03F180
0F3E00
180600
300300
200180
600180
400080
C000C0
C000C0
C000C0
C000C0
C000C0
C000C0
C000C0
C000C0
400080
600180
200180
300300
180600
0F3C00
03F000
ENDCHAR
STARTCHAR 1EDF
ENCODING 7903
SWIDTH 540 0
DWIDTH 18 0
BBX 15 24 2 0
BITMAP
0700
0180
0080
0084
0306
0006
0006
0004
0FD8
1CE0
3030
6018
C00C
C00C
800C
8004
8004
800C
C00C
C008
6018
7030
1CE0
0FC0
ENDCHAR
STARTCHAR 1EE0
ENCODING 7904
SWIDTH 660 0
DWIDTH 22 0
BBX 18 27 2 0
BITMAP
0F8400
08C4C0
1878C0
0000C0
000080
03F180
0F3E00
180600
300300
200180
600180
400080
C000C0
C000C0
C000C0
C000C0
C000C0
C000C0
C000C0
C000C0
400080
600180
200180
300300
180600
0F3C00
03F000
ENDCHAR
STARTCHAR 1EE1
ENCODING 7905
SWIDTH 540 0
DWIDTH 18 0
BBX 15 23 2 0
BITMAP
1C10
2610
2334
41E6
0006
0006
0004
0FD8
1CE0
3030
6018
C00C
C00C
800C
8004
8004
800C
C00C
C008
6018
7030
1CE0
0FC0
ENDCHAR
STARTCHAR 1EE2
ENCODING 7906
SWIDTH 660 0
DWIDTH 22 0
BBX 18 32 2 -6
BITMAP
0000C0
0000C0
0000C0
0000C0
03F180
0F3E00
180600
300300
200180
600180
400080
C000C0
C000C0
C000C0
C000C0
C000C0
C000C0
C000C0
C000C0
400080
600180
200180
300300
180600
0F3C00
03F000
000000
000000
000000
008000
00C000
00C000
ENDCHAR
STARTCHAR 1EE3
ENCODING 7907
SWIDTH 540 0
DWIDTH 18 0
BBX 15 27 2 -6
BITMAP
0004
0006
0006
0006
0004
0FD8
1CE0
3030
6018
C00C
C00C
800C
8004
8004
800C
C00C
C008
6018
7030
1CE0
0FC0
0000
0000
0000
0000
0300
0300
ENDCHAR
STARTCHAR 1EE4
ENCODING 7908
SWIDTH 630 0
DWIDTH 21 0
BBX 15 28 3 -6
BITMAP
C002
C002
C002
C002
C002
C002
C002
C002
C002
C002
C002
C002
C002
C002
C006
C006
C006
6004
600C
3018
1EF0
0FC0
0000
0000
0000
0100
0380
0180
ENDCHAR
STARTCHAR 1EE5
ENCODING 7909
SWIDTH 540 0
DWIDTH 18 0
BBX 12 22 3 -6
BITMAP
8030
8030
8030
8030
8030
8030
8030
8030
8030
8030
8030
8030
C070
C0F0
73B0
3E30
0000
0000
0000
0200
0700
0600
ENDCHAR
STARTCHAR 1EE6
ENCODING 7910
SWIDTH 630 0
DWIDTH 21 0
BBX 15 29 3 0
BITMAP
0380
00C0
0040
00C0
0380
0000
0000
C002
C002
C002
C002
C002
C002
C002
C002
C002
C002
C002
C002
C002
C002
C006
C006
C006
6004
600C
3018
1EF0
0FC0
ENDCHAR
STARTCHAR 1EE7
ENCODING 7911
SWIDTH 540 0
DWIDTH 18 0
BBX 12 25 3 0
BITMAP
0E00
0300
0100
0100
0600
0000
0000
0000
0000
8030
8030
8030
8030
8030
8030
8030
8030
8030
8030
8030
8030
C070
C0F0
73B0
3E30
ENDCHAR
STARTCHAR 1EE8
ENCODING 7912
SWIDTH 660 0
DWIDTH 22 0
BBX 18 28 3 0
BITMAP
006000
00C040
018040
030040
000040
0000C0
C00300
C00200
C00200
C00200
C00200
C00200
C00200
C00200
C00200
C00200
C00200
C00200
C00200
C00200
C00600
C00600
C00600
600400
600C00
301800
1EF000
0FC000
ENDCHAR
STARTCHAR 1EE9
ENCODING 7913
SWIDTH 540 0
DWIDTH 18 0
BBX 15 25 3 0
BITMAP
0080
0180
0300
0600
0404
0806
0006
0004
000C
8030
8030
8030
8030
8030
8030
8030
8030
8030
8030
8030
8030
C070
C0F0
73B0
3E30
ENDCHAR
STARTCHAR 1EEA
ENCODING 7914
SWIDTH 660 0
DWIDTH 22 0
BBX 18 28 3 0
BITMAP
0C0000
060040
030040
018040
000040
0000C0
C00300
C00200
C00200
C00200
C00200
C00200
C00200
C00200
C00200
C00200
C00200
C00200
C00200
C00200
C00600
C00600
C00600
600400
600C00
301800
1EF000
0FC000
ENDCHAR
STARTCHAR 1EEB
ENCODING 7915
SWIDTH 540 0
DWIDTH 18 0
BBX 15 25 3 0
BITMAP
2000
3000
1800
0C00
0604
0206
0006
0004
000C
8030
8030
8030
8030
8030
8030
8030
8030
8030
8030
8030
8030
C070
C0F0
73B0
3E30
ENDCHAR
STARTCHAR 1EEC
ENCODING 7916
SWIDTH 660 0
DWIDTH 22 0
BBX 18 29 3 0
BITMAP
038000
00C000
00C040
00C040
038040
000040
000180
C00200
C00200
C00200
C00200
C00200
C00200
C00200
C00200
C00200
C00200
C00200
C00200
C00200
C00200
C00600
C00600
C00600
600400
600C00
301800
1EF000
0FC000
ENDCHAR
STARTCHAR 1EED
ENCODING 7917
SWIDTH 540 0
DWIDTH 18 0
BBX 15 25 3 0
BITMAP
0E00
0300
0100
0304
0606
0006
0004
000C
0018
8030
8030
8030
8030
8030
8030
8030
8030
8030
8030
8030
8030
C070
C0F0
73B0
3E30
ENDCHAR
STARTCHAR 1EEE
ENCODING 7918
SWIDTH 660 0
DWIDTH 22 0
BBX 18 28 3 0
BITMAP
0E0800
130840
219040
20F040
000040
0000C0
C00300
C00200
C00200
C00200
C00200
C00200
C00200
C00200
C00200
C00200
C00200
C00200
C00200
C00200
C00600
C00600
C00600
600400
600C00
301800
1EF000
0FC000
ENDCHAR
STARTCHAR 1EEF
ENCODING 7919
SWIDTH 540 0
DWIDTH 18 0
BBX 15 24 3 0
BITMAP
3820
4C20
4424
C244
81C6
0006
0004
000C
8030
8030
8030
8030
8030
8030
8030
8030
8030
8030
8030
8030
C070
C0F0
73B0
3E30
ENDCHAR
STARTCHAR 1EF0
ENCODING 7920
SWIDTH 660 0
DWIDTH 22 0
BBX 18 33 3 -6
BITMAP
000040
000040
000040
000040
0000C0
C00300
C00200
C00200
C00200
C00200
C00200
C00200
C00200
C00200
C00200
C00200
C00200
C00200
C00200
C00600
C00600
C00600
600400
600C00
301800
1EF000
0FC000
000000
000000
000000
010000
038000
018000
ENDCHAR
STARTCHAR 1EF1
ENCODING 7921
SWIDTH 540 0
DWIDTH 18 0
BBX 15 27 3 -5
BITMAP
0006
0006
0006
0004
000C
8030
8030
8030
8030
8030
8030
8030
8030
8030
8030
8030
8030
C070
C0F0
73B0
3E30
0000
0000
0000
0200
0700
0600
ENDCHAR
STARTCHAR 1EF2
ENCODING 7922
SWIDTH 450 0
DWIDTH 15 0
BBX 15 28 0 0
BITMAP
0C00
0600
0300
0180
0000
0000
C006
4004
600C
2008
3018
1010
1830
0820
0C40
0440
0680
0280
0300
0100
0100
0100
0100
0100
0100
0100
0100
0100
ENDCHAR
STARTCHAR 1EF3
ENCODING 7923
SWIDTH 450 0
DWIDTH 15 0
BBX 13 32 1 -7
BITMAP
1000
1800
0C00
0600
0300
0100
0000
0000
0000
8018
C018
C010
4030
6030
2020
3060
3040
1040
18C0
0880
0C80
0D80
0500
0700
0300
0200
0200
0600
0400
0C00
B800
E000
ENDCHAR
STARTCHAR 1EF4
ENCODING 7924
SWIDTH 450 0
DWIDTH 15 0
BBX 15 29 0 -7
BITMAP
C006
4004
600C
2008
3018
1010
1830
0820
0C40
0440
0680
0280
0300
0100
0100
0100
0100
0100
0100
0100
0100
0100
0000
0000
0000
0000
0180
0380
0100
ENDCHAR
STARTCHAR 1EF5
ENCODING 7925
SWIDTH 450 0
DWIDTH 15 0
BBX 13 23 1 -7
BITMAP
8018
C018
C010
4030
6030
2020
3060
3040
1040
18C0
0880
0C80
0D80
0500
0700
0300
0200
0200
0600
0400
0C30
B830
E000
ENDCHAR
STARTCHAR 1EF6
ENCODING 7926
SWIDTH 450 0
DWIDTH 15 0
BBX 14 29 0 0
BITMAP
0300
00C0
00C0
00C0
0380
0000
0000
C004
600C
6008
3018
3010
1830
1820
0C20
0C40
0440
0680
0380
0300
0100
0100
0100
0100
0100
0100
0100
0100
0100
ENDCHAR
STARTCHAR 1EF7
ENCODING 7927
SWIDTH 450 0
DWIDTH 15 0
BBX 13 32 1 -7
BITMAP
0600
0380
0080
0180
0300
0000
0000
0000
0000
8018
C018
4010
4030
6020
2020
3060
1040
1040
18C0
0880
0C80
0580
0500
0700
0300
0200
0200
0600
0400
0C00
B800
E000
ENDCHAR
STARTCHAR 1EF8
ENCODING 7928
SWIDTH 450 0
DWIDTH 15 0
BBX 15 28 0 0
BITMAP
1E08
1318
2190
20E0
0000
0000
C006
4004
600C
2008
3018
1010
1830
0820
0C40
0440
0680
0280
0300
0100
0100
0100
0100
0100
0100
0100
0100
0100
ENDCHAR
STARTCHAR 1EF9
ENCODING 7929
SWIDTH 450 0
DWIDTH 15 0
BBX 13 31 1 -7
BITMAP
1C10
2610
2210
4120
40E0
0000
0000
0000
8018
C018
C010
4030
6030
2020
3060
3040
1040
18C0
0880
0C80
0D80
0500
0700
0300
0200
0200
0600
0400
0C00
B800
E000
ENDCHAR
STARTCHAR 1F00
ENCODING 7936
SWIDTH 540 0
DWIDTH 18 0
BBX 15 25 2 0
BITMAP
0700
0180
00C0
0080
0180
0200
0000
0000
0000
0F84
1CC4
302C
603C
C018
C018
8018
8018
8018
8018
C010
C010
C030
6050
3998
1F0E
ENDCHAR
STARTCHAR 1F01
ENCODING 7937
SWIDTH 540 0
DWIDTH 18 0
BBX 15 24 2 0
BITMAP
0380
0600
0400
0600
0300
0000
0000
0000
0F84
1CC4
302C
603C
C018
C018
8018
8018
8018
8018
C010
C010
C030
6050
3998
1F0E
ENDCHAR
STARTCHAR 1F02
ENCODING 7938
SWIDTH 540 0
DWIDTH 18 0
BBX 15 25 2 0
BITMAP
0080
1880
0480
06C0
0440
0840
0040
0000
0000
0F84
1CC4
302C
603C
C018
C018
8018
8018
8018
8018
C010
C010
C030
6050
3998
1F0E
ENDCHAR
STARTCHAR 1F03
ENCODING 7939
SWIDTH 540 0
DWIDTH 18 0
BBX 15 25 2 0
BITMAP
0080
0D80
1080
3080
10C0
0840
0040
0000
0000
0F84
1CC4
302C
603C
C018
C018
8018
8018
8018
8018
C010
C010
C030
6050
3998
1F0E
ENDCHAR
STARTCHAR 1F04
ENCODING 7940
SWIDTH 540 0
DWIDTH 18 0
BBX 15 25 2 0
BITMAP
0040
1860
0440
06C0
04C0
0880
0080
0000
0000
0F84
1CC4
302C
603C
C018
C018
8018
8018
8018
8018
C010
C010
C030
6050
3998
1F0E
ENDCHAR
STARTCHAR 1F05
ENCODING 7941
SWIDTH 540 0
DWIDTH 18 0
BBX 15 25 2 0
BITMAP
0040
0E40
18C0
10C0
1080
0C80
0180
0000
0000
0F84
1CC4
302C
603C
C018
C018
8018
8018
8018
8018
C010
C010
C030
6050
3998
1F0E
ENDCHAR
STARTCHAR 1F06
ENCODING 7942
SWIDTH 540 0
DWIDTH 18 0
BBX 15 26 2 0
BITMAP
0E10
1320
10E0
0000
0300
0080
0080
0300
0000
0000
0F84
1CC4
302C
603C
C018
C018
8018
8018
8018
8018
C010
C010
C030
6050
3998
1F0E
ENDCHAR
STARTCHAR 1F07
ENCODING 7943
SWIDTH 540 0
DWIDTH 18 0
BBX 15 26 2 0
BITMAP
0E10
1320
10E0
0000
0380
0600
0200
0100
0000
0000
0F84
1CC4
302C
603C
C018
C018
8018
8018
8018
8018
C010
C010
C030
6050
3998
1F0E
ENDCHAR
STARTCHAR 1F08
ENCODING 7944
SWIDTH 540 0
DWIDTH 18 0
BBX 17 22 0 0
BITMAP
C0C000
30C000
11E000
112000
212000
433000
021000
021800
061800
040800
040C00
0C0C00
080400
0FFE00
180600
100200
100300
300300
200100
600180
600180
400080
ENDCHAR
STARTCHAR 1F09
ENCODING 7945
SWIDTH 540 0
DWIDTH 18 0
BBX 17 22 0 0
BITMAP
70C000
C0C000
81E000
812000
C12000
233000
021000
021000
061800
040800
040800
0C0C00
080400
0FFE00
180600
100200
300300
300300
200100
600180
600180
400080
ENDCHAR
STARTCHAR 1F0A
ENCODING 7946
SWIDTH 660 0
DWIDTH 22 0
BBX 21 22 0 0
BITMAP
CC0C00
640C00
241600
261200
661200
C23300
002100
006100
006180
004080
00C080
0080C0
008040
01FFC0
010060
010020
030020
020030
020010
060010
040018
040008
ENDCHAR
STARTCHAR 1F0B
ENCODING 7947
SWIDTH 630 0
DWIDTH 21 0
BBX 21 22 0 0
BITMAP
6C0C00
CC1C00
841400
841600
863200
422200
002300
006100
004100
004180
00C080
0080C0
0080C0
01FFC0
010060
030060
030020
020030
060030
060010
040018
0C0018
ENDCHAR
STARTCHAR 1F0C
ENCODING 7948
SWIDTH 660 0
DWIDTH 22 0
BBX 21 22 0 0
BITMAP
C60C00
660C00
241400
241200
643200
CC3300
002300
006100
006180
004080
00C080
0080C0
008040
01FFC0
010060
010020
030020
020030
020010
060010
040018
0C0008
ENDCHAR
STARTCHAR 1F0D
ENCODING 7949
SWIDTH 630 0
DWIDTH 21 0
BBX 21 22 0 0
BITMAP
660C00
C41C00
841400
841600
8C3200
482200
002300
006100
004100
004180
00C080
008080
0180C0
01FFC0
010060
030060
030020
020030
060030
060010
040018
0C0018
ENDCHAR
STARTCHAR 1F0E
ENCODING 7950
SWIDTH 570 0
DWIDTH 19 0
BBX 20 22 -1 0
BITMAP
723000
8C3800
302800
0C6800
0C4C00
184400
00C400
008600
008200
018200
010300
010100
030180
03FF80
060080
0600C0
0400C0
0C0040
0C0060
080060
180020
180030
ENDCHAR
STARTCHAR 1F0F
ENCODING 7951
SWIDTH 570 0
DWIDTH 19 0
BBX 20 22 -1 0
BITMAP
723000
8C3800
182800
306800
204C00
184400
00C400
008600
008200
018200
010300
010100
030180
03FF80
060080
0600C0
0400C0
0C0040
0C0060
080060
180020
180030
ENDCHAR
STARTCHAR 1F10
ENCODING 7952
SWIDTH 450 0
DWIDTH 15 0
BBX 11 24 2 0
BITMAP
0E00
0300
0100
0100
0600
0000
0000
0000
1F80
31E0
6020
4000
4000
6000
3000
1F00
7000
C000
8000
8000
8000
C020
70E0
1F80
ENDCHAR
STARTCHAR 1F11
ENCODING 7953
SWIDTH 450 0
DWIDTH 15 0
BBX 11 24 2 0
BITMAP
0700
0C00
0800
0800
0600
0000
0000
0000
1F80
31E0
6020
4000
4000
6000
3000
1F00
7000
C000
8000
8000
8000
C020
70E0
1F80
ENDCHAR
STARTCHAR 1F12
ENCODING 7954
SWIDTH 450 0
DWIDTH 15 0
BBX 11 25 2 0
BITMAP
0100
3300
1900
0900
0980
3080
0080
0000
0000
1F80
31E0
6020
4000
4000
6000
3000
1F00
7000
C000
8000
8000
8000
C020
70E0
1F80
ENDCHAR
STARTCHAR 1F13
ENCODING 7955
SWIDTH 450 0
DWIDTH 15 0
BBX 11 24 2 1
BITMAP
3B00
6300
4100
6100
3180
0080
0000
0000
1F80
31E0
6020
4000
4000
6000
3000
1F00
7000
C000
8000
8000
8000
C020
70E0
1F80
ENDCHAR
STARTCHAR 1F14
ENCODING 7956
SWIDTH 450 0
DWIDTH 15 0
BBX 11 25 2 0
BITMAP
0080
3080
1980
0980
0900
3100
0300
0000
0000
1F80
31E0
6020
4000
4000
6000
3000
1F00
7000
C000
8000
8000
8000
C020
70E0
1F80
ENDCHAR
STARTCHAR 1F15
ENCODING 7957
SWIDTH 450 0
DWIDTH 15 0
BBX 11 24 2 1
BITMAP
1980
2180
2100
2100
1B00
0200
0000
0000
1F80
31E0
6020
4000
4000
6000
3000
1F00
7000
C000
8000
8000
8000
C020
70E0
1F80
ENDCHAR
STARTCHAR 1F18
ENCODING 7960
SWIDTH 600 0
DWIDTH 20 0
BBX 19 22 0 0
BITMAP
C3FFC0
630000
330000
330000
230000
C30000
030000
030000
030000
030000
03FF80
030000
030000
030000
030000
030000
030000
030000
030000
030000
030000
03FFE0
ENDCHAR
STARTCHAR 1F19
ENCODING 7961
SWIDTH 600 0
DWIDTH 20 0
BBX 19 22 0 0
BITMAP
73FFC0
C30000
830000
830000
C30000
630000
030000
030000
030000
030000
03FF80
030000
030000
030000
030000
030000
030000
030000
030000
030000
030000
03FFE0
ENDCHAR
STARTCHAR 1F1A
ENCODING 7962
SWIDTH 690 0
DWIDTH 23 0
BBX 22 22 0 0
BITMAP
CC7FF8
646000
246000
266000
666000
C26000
006000
006000
006000
006000
007FF0
006000
006000
006000
006000
006000
006000
006000
006000
006000
006000
007FFC
ENDCHAR
STARTCHAR 1F1B
ENCODING 7963
SWIDTH 690 0
DWIDTH 23 0
BBX 22 22 0 0
BITMAP
6C7FF8
CC6000
846000
846000
866000
426000
006000
006000
006000
006000
007FF0
006000
006000
006000
006000
006000
006000
006000
006000
006000
006000
007FFC
ENDCHAR
STARTCHAR 1F1C
ENCODING 7964
SWIDTH 690 0
DWIDTH 23 0
BBX 22 22 0 0
BITMAP
C67FF8
666000
246000
246000
646000
CC6000
006000
006000
006000
006000
007FF0
006000
006000
006000
006000
006000
006000
006000
006000
006000
006000
007FFC
ENDCHAR
STARTCHAR 1F1D
ENCODING 7965
SWIDTH 690 0
DWIDTH 23 0
BBX 22 22 0 0
BITMAP
667FF8
C46000
846000
846000
8C6000
486000
006000
006000
006000
006000
007FF0
006000
006000
006000
006000
006000
006000
006000
006000
006000
006000
007FFC
ENDCHAR
STARTCHAR 1F20
ENCODING 7968
SWIDTH 540 0
DWIDTH 18 0
BBX 12 30 3 -6
BITMAP
0600
0180
0180
0100
0600
0000
0000
0000
87C0
8CE0
9020
A030
C030
C030
C030
C030
C030
C030
C030
C030
C030
C030
C030
C030
0030
0030
0030
0030
0030
0030
ENDCHAR
STARTCHAR 1F21
ENCODING 7969
SWIDTH 540 0
DWIDTH 18 0
BBX 12 30 3 -6
BITMAP
0700
0C00
0800
0C00
0600
0000
0000
0000
87C0
8CE0
9020
A030
C030
C030
C030
C030
C030
C030
C030
C030
C030
C030
C030
C030
0030
0030
0030
0030
0030
0030
ENDCHAR
STARTCHAR 1F22
ENCODING 7970
SWIDTH 540 0
DWIDTH 18 0
BBX 12 31 3 -6
BITMAP
0100
3100
0D80
0D80
0880
1880
0080
0000
0000
87C0
8CE0
9020
A030
C030
C030
C030
C030
C030
C030
C030
C030
C030
C030
C030
C030
0030
0030
0030
0030
0030
0030
ENDCHAR
STARTCHAR 1F23
ENCODING 7971
SWIDTH 540 0
DWIDTH 18 0
BBX 12 31 3 -6
BITMAP
0100
1B00
2100
2100
2180
1880
0080
0000
0000
87C0
8CE0
9020
A030
C030
C030
C030
C030
C030
C030
C030
C030
C030
C030
C030
C030
0030
0030
0030
0030
0030
0030
ENDCHAR
STARTCHAR 1F24
ENCODING 7972
SWIDTH 540 0
DWIDTH 18 0
BBX 12 31 3 -6
BITMAP
0080
30C0
0C80
0C80
0980
1900
0100
0000
0000
87C0
8CE0
9020
A030
C030
C030
C030
C030
C030
C030
C030
C030
C030
C030
C030
C030
0030
0030
0030
0030
0030
0030
ENDCHAR
STARTCHAR 1F25
ENCODING 7973
SWIDTH 540 0
DWIDTH 18 0
BBX 12 31 3 -6
BITMAP
0080
1C80
3080
2180
3100
1900
0300
0000
0000
87C0
8CE0
9020
A030
C030
C030
C030
C030
C030
C030
C030
C030
C030
C030
C030
C030
0030
0030
0030
0030
0030
0030
ENDCHAR
STARTCHAR 1F26
ENCODING 7974
SWIDTH 540 0
DWIDTH 18 0
BBX 12 32 3 -6
BITMAP
1C20
2660
21C0
0000
0600
0100
0100
0600
0000
0000
87C0
8CE0
9020
A030
C030
C030
C030
C030
C030
C030
C030
C030
C030
C030
C030
C030
0030
0030
0030
0030
0030
0030
ENDCHAR
STARTCHAR 1F27
ENCODING 7975
SWIDTH 540 0
DWIDTH 18 0
BBX 12 32 3 -6
BITMAP
1C20
2660
21C0
0000
0700
0400
0400
0200
0000
0000
87C0
8CE0
9020
A030
C030
C030
C030
C030
C030
C030
C030
C030
C030
C030
C030
C030
0030
0030
0030
0030
0030
0030
ENDCHAR
STARTCHAR 1F28
ENCODING 7976
SWIDTH 720 0
DWIDTH 24 0
BBX 21 22 0 0
BITMAP
C30008
630008
330008
330008
230008
C30008
030008
030008
030008
030008
03FFF8
030008
030008
030008
030008
030008
030008
030008
030008
030008
030008
030008
ENDCHAR
STARTCHAR 1F29
ENCODING 7977
SWIDTH 720 0
DWIDTH 24 0
BBX 21 22 0 0
BITMAP
730008
C30008
830008
830008
830008
630008
030008
030008
030008
030008
03FFF8
030008
030008
030008
030008
030008
030008
030008
030008
030008
030008
030008
ENDCHAR
STARTCHAR 1F2A
ENCODING 7978
SWIDTH 810 0
DWIDTH 27 0
BBX 24 22 0 0
BITMAP
CC6001
646001
246001
266001
666001
C26001
006001
006001
006001
006001
007FFF
006001
006001
006001
006001
006001
006001
006001
006001
006001
006001
006001
ENDCHAR
STARTCHAR 1F2B
ENCODING 7979
SWIDTH 810 0
DWIDTH 27 0
BBX 24 22 0 0
BITMAP
6C6001
CC6001
846001
846001
866001
426001
006001
006001
006001
006001
007FFF
006001
006001
006001
006001
006001
006001
006001
006001
006001
006001
006001
ENDCHAR
STARTCHAR 1F2C
ENCODING 7980
SWIDTH 810 0
DWIDTH 27 0
BBX 24 22 0 0
BITMAP
C66001
666001
246001
246001
646001
CC6001
006001
006001
006001
006001
007FFF
006001
006001
006001
006001
006001
006001
006001
006001
006001
006001
006001
ENDCHAR
STARTCHAR 1F2D
ENCODING 7981
SWIDTH 810 0
DWIDTH 27 0
BBX 24 22 0 0
BITMAP
666003
C46003
846003
846003
8C6003
486003
006003
006003
006003
006003
007FFF
006003
006003
006003
006003
006003
006003
006003
006003
006003
006003
006003
ENDCHAR
STARTCHAR 1F2E
ENCODING 7982
SWIDTH 810 0
DWIDTH 27 0
BBX 25 22 -1 0
BITMAP
72200180
8C200180
30200180
0C200180
0C200180
18200180
00200180
00200180
00200180
00200180
003FFF80
00200180
00200180
00200180
00200180
00200180
00200180
00200180
00200180
00200180
00200180
00200180
ENDCHAR
STARTCHAR 1F2F
ENCODING 7983
SWIDTH 810 0
DWIDTH 27 0
BBX 25 22 -1 0
BITMAP
72200180
8C200180
18200180
30200180
20200180
18200180
00200180
00200180
00200180
00200180
003FFF80
00200180
00200180
00200180
00200180
00200180
00200180
00200180
00200180
00200180
00200180
00200180
ENDCHAR
STARTCHAR 1F30
ENCODING 7984
SWIDTH 240 0
DWIDTH 8 0
BBX 5 25 2 0
BITMAP
E0
30
10
10
60
00
00
00
00
60
60
60
60
60
60
60
40
40
40
40
40
40
40
60
38
ENDCHAR
STARTCHAR 1F31
ENCODING 7985
SWIDTH 240 0
DWIDTH 8 0
BBX 6 25 1 0
BITMAP
38
60
C0
40
60
10
00
00
00
30
30
30
30
30
30
30
20
20
20
20
20
20
20
30
1C
ENDCHAR
STARTCHAR 1F32
ENCODING 7986
SWIDTH 240 0
DWIDTH 8 0
BBX 8 26 -1 0
BITMAP
02
E6
36
12
12
23
41
00
00
00
0C
0C
0C
0C
0C
0C
0C
08
08
08
08
08
08
08
0C
07
ENDCHAR
STARTCHAR 1F33
ENCODING 7987
SWIDTH 240 0
DWIDTH 8 0
BBX 8 25 -1 1
BITMAP
34
C6
86
C2
62
03
00
00
00
0C
0C
0C
0C
0C
0C
0C
08
08
08
08
08
08
08
0C
07
ENDCHAR
STARTCHAR 1F34
ENCODING 7988
SWIDTH 240 0
DWIDTH 8 0
BBX 8 25 -1 1
BITMAP
E1
33
13
12
22
46
00
00
00
0C
0C
0C
0C
0C
0C
0C
08
08
08
08
08
08
08
0C
07
ENDCHAR
STARTCHAR 1F35
ENCODING 7989
SWIDTH 240 0
DWIDTH 8 0
BBX 8 25 -1 1
BITMAP
33
63
C2
42
66
04
00
00
00
0C
0C
0C
0C
0C
0C
0C
08
08
08
08
08
08
08
0C
07
ENDCHAR
STARTCHAR 1F36
ENCODING 7990
SWIDTH 240 0
DWIDTH 8 0
BBX 8 26 0 0
BITMAP
F1
8F
00
30
0C
0C
18
00
00
00
18
18
18
18
18
18
18
10
10
10
10
10
10
10
18
0E
ENDCHAR
STARTCHAR 1F37
ENCODING 7991
SWIDTH 240 0
DWIDTH 8 0
BBX 8 26 0 0
BITMAP
F1
8F
00
18
30
20
18
00
00
00
18
18
18
18
18
18
18
10
10
10
10
10
10
10
18
0E
ENDCHAR
STARTCHAR 1F38
ENCODING 7992
SWIDTH 330 0
DWIDTH 11 0
BBX 8 22 0 0
BITMAP
C3
63
33
33
23
C3
03
03
03
03
03
03
03
03
03
03
03
03
03
03
03
03
ENDCHAR
STARTCHAR 1F39
ENCODING 7993
SWIDTH 330 0
DWIDTH 11 0
BBX 8 22 0 0
BITMAP
73
C3
83
83
C3
63
03
03
03
03
03
03
03
03
03
03
03
03
03
03
03
03
ENDCHAR
STARTCHAR 1F3A
ENCODING 7994
SWIDTH 420 0
DWIDTH 14 0
BBX 11 22 0 0
BITMAP
CC60
6460
2460
2660
6660
C260
0060
0060
0060
0060
0060
0060
0060
0060
0060
0060
0060
0060
0060
0060
0060
0060
ENDCHAR
STARTCHAR 1F3B
ENCODING 7995
SWIDTH 420 0
DWIDTH 14 0
BBX 11 22 0 0
BITMAP
6C60
CC60
8460
8460
8660
4260
0060
0060
0060
0060
0060
0060
0060
0060
0060
0060
0060
0060
0060
0060
0060
0060
ENDCHAR
STARTCHAR 1F3C
ENCODING 7996
SWIDTH 420 0
DWIDTH 14 0
BBX 11 22 0 0
BITMAP
C660
6660
2460
2460
6460
CC60
0060
0060
0060
0060
0060
0060
0060
0060
0060
0060
0060
0060
0060
0060
0060
0060
ENDCHAR
STARTCHAR 1F3D
ENCODING 7997
SWIDTH 420 0
DWIDTH 14 0
BBX 11 22 0 0
BITMAP
6660
C460
8460
8460
8C60
4860
0060
0060
0060
0060
0060
0060
0060
0060
0060
0060
0060
0060
0060
0060
0060
0060
ENDCHAR
STARTCHAR 1F3E
ENCODING 7998
SWIDTH 420 0
DWIDTH 14 0
BBX 11 22 -1 0
BITMAP
7220
8C20
3020
0C20
0C20
1820
0020
0020
0020
0020
0020
0020
0020
0020
0020
0020
0020
0020
0020
0020
0020
0020
ENDCHAR
STARTCHAR 1F3F
ENCODING 7999
SWIDTH 420 0
DWIDTH 14 0
BBX 11 22 -1 0
BITMAP
7220
8C20
1820
3020
2020
1820
0020
0020
0020
0020
0020
0020
0020
0020
0020
0020
0020
0020
0020
0020
0020
0020
ENDCHAR
STARTCHAR 1F40
ENCODING 8000
SWIDTH 510 0
DWIDTH 17 0
BBX 14 25 2 0
BITMAP
0700
0380
0080
0080
0300
0200
0000
0000
0000
0F80
3CE0
6030
6018
C008
C008
800C
800C
800C
800C
C008
C008
6018
6030
38E0
0F80
ENDCHAR
STARTCHAR 1F41
ENCODING 8001
SWIDTH 510 0
DWIDTH 17 0
BBX 14 24 2 0
BITMAP
0380
0400
0C00
0400
0300
0000
0000
0000
0F80
3CE0
6030
6018
C008
C008
800C
800C
800C
800C
C008
C008
6018
6030
38E0
0F80
ENDCHAR
STARTCHAR 1F42
ENCODING 8002
SWIDTH 510 0
DWIDTH 17 0
BBX 14 24 2 1
BITMAP
3980
0D80
0480
0C80
18C0
0040
0000
0000
0F80
3CE0
6030
6018
C008
C008
800C
800C
800C
800C
C008
C008
6018
6030
38E0
0F80
ENDCHAR
STARTCHAR 1F43
ENCODING 8003
SWIDTH 510 0
DWIDTH 17 0
BBX 14 25 2 0
BITMAP
0100
1D00
3180
2180
3080
1880
00C0
0000
0000
0F80
3CE0
6030
6018
C008
C008
800C
800C
800C
800C
C008
C008
6018
6030
38E0
0F80
ENDCHAR
STARTCHAR 1F44
ENCODING 8004
SWIDTH 510 0
DWIDTH 17 0
BBX 14 25 2 0
BITMAP
0040
38C0
0CC0
0480
0C80
1980
0100
0000
0000
0F80
3CE0
6030
6018
C008
C008
800C
800C
800C
800C
C008
C008
6018
6030
38E0
0F80
ENDCHAR
STARTCHAR 1F45
ENCODING 8005
SWIDTH 510 0
DWIDTH 17 0
BBX 14 25 2 0
BITMAP
0080
0CC0
1080
3080
1180
1900
0100
0000
0000
0F80
3CE0
6030
6018
C008
C008
800C
800C
800C
800C
C008
C008
6018
6030
38E0
0F80
ENDCHAR
STARTCHAR 1F48
ENCODING 8008
SWIDTH 720 0
DWIDTH 24 0
BBX 22 22 0 0
BITMAP
C03F00
60F3C0
318060
330030
220018
C60008
04000C
04000C
0C000C
0C0004
0C0004
0C0004
0C0004
0C000C
04000C
06000C
060008
030018
030030
018060
00F3C0
003F00
ENDCHAR
STARTCHAR 1F49
ENCODING 8009
SWIDTH 720 0
DWIDTH 24 0
BBX 22 22 0 0
BITMAP
703F00
C0F3C0
818060
830030
C60010
660018
0C0008
0C000C
0C000C
08000C
08000C
08000C
0C000C
0C000C
0C000C
0C0008
060018
060010
030030
018060
00F3C0
003F00
ENDCHAR
STARTCHAR 1F4A
ENCODING 8010
SWIDTH 840 0
DWIDTH 28 0
BBX 26 22 0 0
BITMAP
CC03F000
640F7C00
24180E00
26300300
66600300
C2400180
00C00180
00C00080
008000C0
008000C0
008000C0
008000C0
008000C0
00C000C0
00C00080
00C00180
00400180
00600300
00300300
00180600
000F3C00
0003F000
ENDCHAR
STARTCHAR 1F4B
ENCODING 8011
SWIDTH 810 0
DWIDTH 27 0
BBX 26 22 0 0
BITMAP
6C03F000
CC0F7C00
84180E00
84300700
86600300
46400180
00C00180
00C00080
00800080
008000C0
008000C0
008000C0
008000C0
00800080
00C00080
00C00180
00400180
00600300
00300200
00380E00
000F3800
0003E000
ENDCHAR
STARTCHAR 1F4C
ENCODING 8012
SWIDTH 840 0
DWIDTH 28 0
BBX 26 22 0 0
BITMAP
C603F000
660F7C00
24180E00
24300300
64600300
CC400180
00C00180
00C00080
008000C0
008000C0
008000C0
008000C0
008000C0
00800080
00C00080
00C00180
00400180
00600300
00300200
00180E00
000F3800
0003F000
ENDCHAR
STARTCHAR 1F4D
ENCODING 8013
SWIDTH 810 0
DWIDTH 27 0
BBX 25 22 0 0
BITMAP
6603E000
C40E7800
84380E00
84200600
8C600300
48C00180
00C00180
00800180
00800080
01800080
01800080
01800080
01800080
00800080
00800180
00C00180
00C00100
00600300
00300600
00380C00
000F3800
0007E000
ENDCHAR
STARTCHAR 1F50
ENCODING 8016
SWIDTH 510 0
DWIDTH 17 0
BBX 12 25 2 0
BITMAP
0E00
0700
0100
0100
0600
0400
0000
0000
0000
C020
4030
4030
4030
4010
4010
4010
C010
C010
C010
C010
4030
4030
6060
39C0
1F80
ENDCHAR
STARTCHAR 1F51
ENCODING 8017
SWIDTH 510 0
DWIDTH 17 0
BBX 12 24 2 0
BITMAP
0700
0800
1800
0800
0600
0000
0000
0000
C020
4030
4030
4030
4010
4010
4010
C010
C010
C010
C010
4030
4030
6060
39C0
1F80
ENDCHAR
STARTCHAR 1F52
ENCODING 8018
SWIDTH 510 0
DWIDTH 17 0
BBX 12 25 2 0
BITMAP
0100
7300
1B00
0900
0900
3180
0080
0000
0000
C020
4030
4030
4030
4010
4010
4010
C010
C010
C010
C010
4030
4030
6060
39C0
1F80
ENDCHAR
STARTCHAR 1F53
ENCODING 8019
SWIDTH 510 0
DWIDTH 17 0
BBX 12 25 2 0
BITMAP
0200
3A00
6300
4300
6100
3100
0180
0000
0000
C020
4030
4030
4030
4010
4010
4010
C010
C010
C010
C010
4030
4030
6060
39C0
1F80
ENDCHAR
STARTCHAR 1F54
ENCODING 8020
SWIDTH 510 0
DWIDTH 17 0
BBX 12 25 2 0
BITMAP
0080
7180
1980
0900
0900
3300
0200
0000
0000
C020
4030
4030
4030
4010
4010
4010
C010
C010
C010
C010
4030
4030
6060
39C0
1F80
ENDCHAR
STARTCHAR 1F55
ENCODING 8021
SWIDTH 510 0
DWIDTH 17 0
BBX 12 25 2 0
BITMAP
0100
1980
2100
6100
2300
3200
0200
0000
0000
C020
4030
4030
4030
4010
4010
4010
C010
C010
C010
C010
4030
4030
6060
39C0
1F80
ENDCHAR
STARTCHAR 1F56
ENCODING 8022
SWIDTH 510 0
DWIDTH 17 0
BBX 12 26 2 0
BITMAP
3840
2E40
6380
0000
0E00
0300
0200
0400
0000
0000
C020
4030
4030
4030
4010
4010
4010
C010
C010
C010
C010
4030
4030
6060
39C0
1F80
ENDCHAR
STARTCHAR 1F57
ENCODING 8023
SWIDTH 510 0
DWIDTH 17 0
BBX 12 26 2 0
BITMAP
3840
2E40
6380
0000
0600
0800
0800
0600
0000
0000
C020
4030
4030
4030
4010
4010
4010
C010
C010
C010
C010
4030
4030
6060
39C0
1F80
ENDCHAR
STARTCHAR 1F59
ENCODING 8025
SWIDTH 600 0
DWIDTH 20 0
BBX 19 22 0 0
BITMAP
760020
C20060
830040
8100C0
C18080
608080
00C100
004100
006200
002200
003400
001400
001C00
000800
000800
000800
000800
000800
000800
000800
000800
000800
ENDCHAR
STARTCHAR 1F5B
ENCODING 8027
SWIDTH 690 0
DWIDTH 23 0
BBX 23 22 0 0
BITMAP
6CC006
CC4004
84600C
842008
863018
421010
001830
000820
000C60
000440
0006C0
000280
000380
000100
000100
000100
000100
000100
000100
000100
000100
000100
ENDCHAR
STARTCHAR 1F5D
ENCODING 8029
SWIDTH 690 0
DWIDTH 23 0
BBX 23 22 0 0
BITMAP
66C006
C4400C
84600C
842008
8C3018
481010
001830
000820
000C60
000440
0006C0
000280
000380
000100
000100
000100
000100
000100
000100
000100
000100
000100
ENDCHAR
STARTCHAR 1F5F
ENCODING 8031
SWIDTH 660 0
DWIDTH 22 0
BBX 23 22 -1 0
BITMAP
726006
8C6006
18300C
30300C
201818
181818
000C30
000C20
000620
000640
000340
000380
000180
000180
000180
000180
000180
000180
000180
000180
000180
000180
ENDCHAR
STARTCHAR 1F60
ENCODING 8032
SWIDTH 660 0
DWIDTH 22 0
BBX 19 25 2 0
BITMAP
01C000
006000
003000
002000
006000
008000
000000
000000
000000
100300
300180
200180
6000C0
4000C0
C00040
C0C040
80C060
80C060
80C060
C0C040
C0C040
40C0C0
60E0C0
333380
1E1F00
ENDCHAR
STARTCHAR 1F61
ENCODING 8033
SWIDTH 660 0
DWIDTH 22 0
BBX 19 24 2 0
BITMAP
00E000
018000
010000
018000
00C000
000000
000000
000000
100300
300180
200180
6000C0
4000C0
C00040
C0C040
80C060
80C060
80C060
C0C040
C0C040
40C0C0
60E0C0
333380
1E1F00
ENDCHAR
STARTCHAR 1F62
ENCODING 8034
SWIDTH 660 0
DWIDTH 22 0
BBX 19 25 2 0
BITMAP
002000
062000
012000
01B000
011000
021000
001000
000000
000000
100300
300180
200180
6000C0
4000C0
C00040
C0C040
80C060
80C060
80C060
C0C040
C0C040
40C0C0
60E0C0
333380
1E1F00
ENDCHAR
STARTCHAR 1F63
ENCODING 8035
SWIDTH 660 0
DWIDTH 22 0
BBX 19 25 2 0
BITMAP
002000
036000
042000
0C2000
043000
021000
001000
000000
000000
100300
300180
200180
6000C0
4000C0
C00040
C0C040
80C060
80C060
80C060
C0C040
C0C040
40C0C0
60E0C0
333380
1E1F00
ENDCHAR
STARTCHAR 1F64
ENCODING 8036
SWIDTH 660 0
DWIDTH 22 0
BBX 19 25 2 0
BITMAP
001000
061800
011000
01B000
013000
022000
002000
000000
000000
100300
300180
200180
6000C0
4000C0
C00040
C0C040
80C060
80C060
80C060
C0C040
C0C040
40C0C0
60E0C0
333380
1E1F00
ENDCHAR
STARTCHAR 1F65
ENCODING 8037
SWIDTH 660 0
DWIDTH 22 0
BBX 19 25 2 0
BITMAP
001000
039000
063000
043000
042000
032000
006000
000000
000000
100300
300180
200180
6000C0
4000C0
C00040
C0C040
80C060
80C060
80C060
C0C040
C0C040
40C0C0
60E0C0
333380
1E1F00
ENDCHAR
STARTCHAR 1F66
ENCODING 8038
SWIDTH 660 0
DWIDTH 22 0
BBX 19 26 2 0
BITMAP
038400
04C800
047800
000000
00C000
002000
002000
00C000
000000
000000
100300
300180
200180
6000C0
4000C0
C00040
C0C040
80C060
80C060
80C060
C0C040
C0C040
40C0C0
60E0C0
333380
1E1F00
ENDCHAR
STARTCHAR 1F67
ENCODING 8039
SWIDTH 660 0
DWIDTH 22 0
BBX 19 26 2 0
BITMAP
038400
04C800
047800
000000
00E000
018000
008000
004000
000000
000000
100300
300180
200180
6000C0
4000C0
C00040
C0C040
80C060
80C060
80C060
C0C040
C0C040
40C0C0
60E0C0
333380
1E1F00
ENDCHAR
STARTCHAR 1F68
ENCODING 8040
SWIDTH 720 0
DWIDTH 24 0
BBX 23 22 0 0
BITMAP
C03F00
60F3C0
318070
330030
230018
C60008
06000C
04000C
0C0004
0C0004
0C0004
0C0004
0C0004
040004
04000C
060008
020018
030018
018030
008060
0060C0
0FE0FE
ENDCHAR
ENDFONT
